%TF.GenerationSoftware,KiCad,Pcbnew,8.0.4*%
%TF.CreationDate,2024-09-28T10:20:43+10:00*%
%TF.ProjectId,stm8-blue,73746d38-2d62-46c7-9565-2e6b69636164,rev?*%
%TF.SameCoordinates,Original*%
%TF.FileFunction,Copper,L1,Top*%
%TF.FilePolarity,Positive*%
%FSLAX46Y46*%
G04 Gerber Fmt 4.6, Leading zero omitted, Abs format (unit mm)*
G04 Created by KiCad (PCBNEW 8.0.4) date 2024-09-28 10:20:43*
%MOMM*%
%LPD*%
G01*
G04 APERTURE LIST*
G04 Aperture macros list*
%AMRoundRect*
0 Rectangle with rounded corners*
0 $1 Rounding radius*
0 $2 $3 $4 $5 $6 $7 $8 $9 X,Y pos of 4 corners*
0 Add a 4 corners polygon primitive as box body*
4,1,4,$2,$3,$4,$5,$6,$7,$8,$9,$2,$3,0*
0 Add four circle primitives for the rounded corners*
1,1,$1+$1,$2,$3*
1,1,$1+$1,$4,$5*
1,1,$1+$1,$6,$7*
1,1,$1+$1,$8,$9*
0 Add four rect primitives between the rounded corners*
20,1,$1+$1,$2,$3,$4,$5,0*
20,1,$1+$1,$4,$5,$6,$7,0*
20,1,$1+$1,$6,$7,$8,$9,0*
20,1,$1+$1,$8,$9,$2,$3,0*%
G04 Aperture macros list end*
%TA.AperFunction,ComponentPad*%
%ADD10C,1.600000*%
%TD*%
%TA.AperFunction,ComponentPad*%
%ADD11O,1.600000X1.600000*%
%TD*%
%TA.AperFunction,ComponentPad*%
%ADD12R,1.700000X1.700000*%
%TD*%
%TA.AperFunction,ComponentPad*%
%ADD13O,1.700000X1.700000*%
%TD*%
%TA.AperFunction,ComponentPad*%
%ADD14C,2.000000*%
%TD*%
%TA.AperFunction,ComponentPad*%
%ADD15RoundRect,0.250000X-0.600000X-0.600000X0.600000X-0.600000X0.600000X0.600000X-0.600000X0.600000X0*%
%TD*%
%TA.AperFunction,SMDPad,CuDef*%
%ADD16RoundRect,0.250000X-0.337500X-0.475000X0.337500X-0.475000X0.337500X0.475000X-0.337500X0.475000X0*%
%TD*%
%TA.AperFunction,ComponentPad*%
%ADD17O,2.000000X1.200000*%
%TD*%
%TA.AperFunction,SMDPad,CuDef*%
%ADD18RoundRect,0.100000X-0.637500X-0.100000X0.637500X-0.100000X0.637500X0.100000X-0.637500X0.100000X0*%
%TD*%
%TA.AperFunction,ComponentPad*%
%ADD19R,1.800000X1.800000*%
%TD*%
%TA.AperFunction,ComponentPad*%
%ADD20C,1.800000*%
%TD*%
%TA.AperFunction,ComponentPad*%
%ADD21C,7.000000*%
%TD*%
%TA.AperFunction,SMDPad,CuDef*%
%ADD22RoundRect,0.250000X0.337500X0.475000X-0.337500X0.475000X-0.337500X-0.475000X0.337500X-0.475000X0*%
%TD*%
%TA.AperFunction,SMDPad,CuDef*%
%ADD23RoundRect,0.375000X-0.625000X-0.375000X0.625000X-0.375000X0.625000X0.375000X-0.625000X0.375000X0*%
%TD*%
%TA.AperFunction,SMDPad,CuDef*%
%ADD24RoundRect,0.500000X-0.500000X-1.400000X0.500000X-1.400000X0.500000X1.400000X-0.500000X1.400000X0*%
%TD*%
%TA.AperFunction,ViaPad*%
%ADD25C,0.800000*%
%TD*%
%TA.AperFunction,Conductor*%
%ADD26C,0.500000*%
%TD*%
%TA.AperFunction,Conductor*%
%ADD27C,0.400600*%
%TD*%
%TA.AperFunction,Conductor*%
%ADD28C,0.250000*%
%TD*%
G04 APERTURE END LIST*
D10*
%TO.P,R102,1*%
%TO.N,Net-(D102-A)*%
X86360000Y-71120000D03*
D11*
%TO.P,R102,2*%
%TO.N,+3.3V*%
X76200000Y-71120000D03*
%TD*%
D12*
%TO.P,J111,1,Pin_1*%
%TO.N,+5V*%
X55880000Y-53340000D03*
D13*
%TO.P,J111,2,Pin_2*%
%TO.N,GND*%
X53340000Y-53340000D03*
%TD*%
D14*
%TO.P,SW101,1,A*%
%TO.N,GND*%
X70560000Y-120650000D03*
X64060000Y-120650000D03*
%TO.P,SW101,2,B*%
%TO.N,Net-(J107-Pin_1)*%
X70560000Y-116150000D03*
X64060000Y-116150000D03*
%TD*%
D15*
%TO.P,J107,1,Pin_1*%
%TO.N,Net-(J107-Pin_1)*%
X63500000Y-111760000D03*
%TD*%
%TO.P,J108,1,Pin_1*%
%TO.N,Net-(J108-Pin_1)*%
X74930000Y-111760000D03*
%TD*%
D12*
%TO.P,J114,1,Pin_1*%
%TO.N,+5V*%
X88900000Y-58420000D03*
D13*
%TO.P,J114,2,Pin_2*%
%TO.N,GND*%
X86360000Y-58420000D03*
%TD*%
D16*
%TO.P,C102,1*%
%TO.N,GND*%
X48725000Y-68580000D03*
%TO.P,C102,2*%
%TO.N,+3.3V*%
X50800000Y-68580000D03*
%TD*%
D17*
%TO.P,U101,1,PD4*%
%TO.N,/PD4*%
X63500000Y-82550000D03*
D18*
X68257500Y-91055000D03*
D17*
%TO.P,U101,2,PD5*%
%TO.N,/PD5*%
X63500000Y-85090000D03*
D18*
X68257500Y-91705000D03*
D17*
%TO.P,U101,3,PD6*%
%TO.N,/PD6*%
X63500000Y-87630000D03*
D18*
X68257500Y-92355000D03*
D17*
%TO.P,U101,4,NRST*%
%TO.N,/NRST*%
X63500000Y-90170000D03*
D18*
X68257500Y-93005000D03*
D17*
%TO.P,U101,5,PA1*%
%TO.N,/PA1*%
X63500000Y-92710000D03*
D18*
X68257500Y-93655000D03*
%TO.P,U101,6,PA2*%
%TO.N,/PA2*%
X68257500Y-94305000D03*
D17*
X63500000Y-95250000D03*
D18*
%TO.P,U101,7,VSS*%
%TO.N,GND*%
X68257500Y-94955000D03*
D17*
X63500000Y-97790000D03*
D18*
%TO.P,U101,8,VCAP*%
%TO.N,Net-(U101-VCAP)*%
X68257500Y-95605000D03*
D17*
X63500000Y-100330000D03*
D18*
%TO.P,U101,9,VDD*%
%TO.N,+3.3V*%
X68257500Y-96255000D03*
D17*
X63500000Y-102870000D03*
D18*
%TO.P,U101,10,PA3*%
%TO.N,/PA3*%
X68257500Y-96905000D03*
D17*
X63500000Y-105410000D03*
D18*
%TO.P,U101,11,PB5*%
%TO.N,/PB5*%
X73982500Y-96905000D03*
D17*
X78740000Y-105410000D03*
D18*
%TO.P,U101,12,PB4*%
%TO.N,/PB4*%
X73982500Y-96255000D03*
D17*
X78740000Y-102870000D03*
D18*
%TO.P,U101,13,PC3*%
%TO.N,/PC3*%
X73982500Y-95605000D03*
D17*
X78740000Y-100330000D03*
D18*
%TO.P,U101,14,PC4*%
%TO.N,/PC4*%
X73982500Y-94955000D03*
D17*
X78740000Y-97790000D03*
D18*
%TO.P,U101,15,PC5*%
%TO.N,/PC5*%
X73982500Y-94305000D03*
D17*
X78740000Y-95250000D03*
%TO.P,U101,16,PC6*%
%TO.N,/PC6*%
X78740000Y-92710000D03*
D18*
X73982500Y-93655000D03*
D17*
%TO.P,U101,17,PC7*%
%TO.N,/PC7*%
X78740000Y-90170000D03*
D18*
X73982500Y-93005000D03*
D17*
%TO.P,U101,18,PD1*%
%TO.N,/PD1*%
X78740000Y-87630000D03*
D18*
X73982500Y-92355000D03*
D17*
%TO.P,U101,19,PD2*%
%TO.N,/PD2*%
X78740000Y-85090000D03*
D18*
X73982500Y-91705000D03*
D17*
%TO.P,U101,20,PD3*%
%TO.N,/PD3*%
X78740000Y-82550000D03*
D18*
X73982500Y-91055000D03*
%TD*%
D12*
%TO.P,J104,1,Pin_1*%
%TO.N,/PD3*%
X96520000Y-82550000D03*
D13*
%TO.P,J104,2,Pin_2*%
%TO.N,/PD2*%
X96520000Y-85090000D03*
%TO.P,J104,3,Pin_3*%
%TO.N,/PD1*%
X96520000Y-87630000D03*
%TO.P,J104,4,Pin_4*%
%TO.N,/PC7*%
X96520000Y-90170000D03*
%TO.P,J104,5,Pin_5*%
%TO.N,/PC6*%
X96520000Y-92710000D03*
%TO.P,J104,6,Pin_6*%
%TO.N,/PC5*%
X96520000Y-95250000D03*
%TO.P,J104,7,Pin_7*%
%TO.N,/PC4*%
X96520000Y-97790000D03*
%TO.P,J104,8,Pin_8*%
%TO.N,/PC3*%
X96520000Y-100330000D03*
%TO.P,J104,9,Pin_9*%
%TO.N,/PB4*%
X96520000Y-102870000D03*
%TO.P,J104,10,Pin_10*%
%TO.N,/PB5*%
X96520000Y-105410000D03*
%TD*%
D14*
%TO.P,SW102,1,A*%
%TO.N,GND*%
X81280000Y-120650000D03*
X74780000Y-120650000D03*
%TO.P,SW102,2,B*%
%TO.N,Net-(J108-Pin_1)*%
X81280000Y-116150000D03*
X74780000Y-116150000D03*
%TD*%
D12*
%TO.P,J113,1,Pin_1*%
%TO.N,+5V*%
X88900000Y-53340000D03*
D13*
%TO.P,J113,2,Pin_2*%
%TO.N,GND*%
X86360000Y-53340000D03*
%TD*%
D19*
%TO.P,D101,1,K*%
%TO.N,GND*%
X93980000Y-66040000D03*
D20*
%TO.P,D101,2,A*%
%TO.N,Net-(D101-A)*%
X91440000Y-66040000D03*
%TD*%
D19*
%TO.P,D102,1,K*%
%TO.N,/PB5*%
X93980000Y-71120000D03*
D20*
%TO.P,D102,2,A*%
%TO.N,Net-(D102-A)*%
X91440000Y-71120000D03*
%TD*%
D16*
%TO.P,C101,1*%
%TO.N,GND*%
X48725000Y-71120000D03*
%TO.P,C101,2*%
%TO.N,+5V*%
X50800000Y-71120000D03*
%TD*%
D14*
%TO.P,SW100,1,A*%
%TO.N,GND*%
X59690000Y-120650000D03*
X53190000Y-120650000D03*
%TO.P,SW100,2,B*%
%TO.N,/NRST*%
X59690000Y-116150000D03*
X53190000Y-116150000D03*
%TD*%
D21*
%TO.P,H102,1*%
%TO.N,N/C*%
X96520000Y-53340000D03*
%TD*%
D12*
%TO.P,J105,1,Pin_1*%
%TO.N,+3.3V*%
X87630000Y-120650000D03*
D13*
%TO.P,J105,2,Pin_2*%
%TO.N,/PD1*%
X87630000Y-118110000D03*
%TO.P,J105,3,Pin_3*%
%TO.N,GND*%
X87630000Y-115570000D03*
%TO.P,J105,4,Pin_4*%
%TO.N,/NRST*%
X87630000Y-113030000D03*
%TD*%
D21*
%TO.P,H101,1*%
%TO.N,N/C*%
X45720000Y-53340000D03*
%TD*%
D12*
%TO.P,J106,1,VBUS*%
%TO.N,+5V*%
X76200000Y-60960000D03*
D13*
%TO.P,J106,2,D-*%
%TO.N,unconnected-(J106-D--Pad2)*%
X73660000Y-60960000D03*
%TO.P,J106,3,D+*%
%TO.N,unconnected-(J106-D+-Pad3)*%
X71120000Y-60960000D03*
%TO.P,J106,4,ID*%
%TO.N,unconnected-(J106-ID-Pad4)*%
X68580000Y-60960000D03*
%TO.P,J106,5,GND*%
%TO.N,GND*%
X66040000Y-60960000D03*
D12*
%TO.P,J106,6,Shield*%
X76454000Y-53340000D03*
X65786000Y-53340000D03*
%TD*%
%TO.P,J102,1,Pin_1*%
%TO.N,/PD4*%
X50800000Y-82550000D03*
D13*
%TO.P,J102,2,Pin_2*%
%TO.N,/PD5*%
X50800000Y-85090000D03*
%TO.P,J102,3,Pin_3*%
%TO.N,/PD6*%
X50800000Y-87630000D03*
%TO.P,J102,4,Pin_4*%
%TO.N,/NRST*%
X50800000Y-90170000D03*
%TO.P,J102,5,Pin_5*%
%TO.N,/PA1*%
X50800000Y-92710000D03*
%TO.P,J102,6,Pin_6*%
%TO.N,/PA2*%
X50800000Y-95250000D03*
%TO.P,J102,7,Pin_7*%
%TO.N,GND*%
X50800000Y-97790000D03*
%TO.P,J102,8,Pin_8*%
%TO.N,+5V*%
X50800000Y-100330000D03*
%TO.P,J102,9,Pin_9*%
%TO.N,+3.3V*%
X50800000Y-102870000D03*
%TO.P,J102,10,Pin_10*%
%TO.N,/PA3*%
X50800000Y-105410000D03*
%TD*%
D10*
%TO.P,R101,1*%
%TO.N,+3.3V*%
X76200000Y-66040000D03*
D11*
%TO.P,R101,2*%
%TO.N,Net-(D101-A)*%
X86360000Y-66040000D03*
%TD*%
D12*
%TO.P,J101,1,Pin_1*%
%TO.N,/PD4*%
X45720000Y-82550000D03*
D13*
%TO.P,J101,2,Pin_2*%
%TO.N,/PD5*%
X45720000Y-85090000D03*
%TO.P,J101,3,Pin_3*%
%TO.N,/PD6*%
X45720000Y-87630000D03*
%TO.P,J101,4,Pin_4*%
%TO.N,/NRST*%
X45720000Y-90170000D03*
%TO.P,J101,5,Pin_5*%
%TO.N,/PA1*%
X45720000Y-92710000D03*
%TO.P,J101,6,Pin_6*%
%TO.N,/PA2*%
X45720000Y-95250000D03*
%TO.P,J101,7,Pin_7*%
%TO.N,GND*%
X45720000Y-97790000D03*
%TO.P,J101,8,Pin_8*%
%TO.N,+5V*%
X45720000Y-100330000D03*
%TO.P,J101,9,Pin_9*%
%TO.N,+3.3V*%
X45720000Y-102870000D03*
%TO.P,J101,10,Pin_10*%
%TO.N,/PA3*%
X45720000Y-105410000D03*
%TD*%
D16*
%TO.P,C104,1*%
%TO.N,GND*%
X56112500Y-100330000D03*
%TO.P,C104,2*%
%TO.N,Net-(U101-VCAP)*%
X58187500Y-100330000D03*
%TD*%
D10*
%TO.P,R100,1*%
%TO.N,/NRST*%
X76200000Y-76200000D03*
D11*
%TO.P,R100,2*%
%TO.N,+3.3V*%
X86360000Y-76200000D03*
%TD*%
D21*
%TO.P,H104,1*%
%TO.N,N/C*%
X96520000Y-121920000D03*
%TD*%
D16*
%TO.P,C100,1*%
%TO.N,GND*%
X63732500Y-76200000D03*
%TO.P,C100,2*%
%TO.N,/NRST*%
X65807500Y-76200000D03*
%TD*%
D21*
%TO.P,H103,1*%
%TO.N,N/C*%
X45720000Y-121920000D03*
%TD*%
D22*
%TO.P,C103,1*%
%TO.N,+3.3V*%
X58187500Y-105410000D03*
%TO.P,C103,2*%
%TO.N,GND*%
X56112500Y-105410000D03*
%TD*%
D12*
%TO.P,JP101,1,A*%
%TO.N,+5V*%
X71120000Y-71120000D03*
D13*
%TO.P,JP101,2,B*%
%TO.N,+3.3V*%
X68580000Y-71120000D03*
%TD*%
D12*
%TO.P,J112,1,Pin_1*%
%TO.N,+5V*%
X55880000Y-58420000D03*
D13*
%TO.P,J112,2,Pin_2*%
%TO.N,GND*%
X53340000Y-58420000D03*
%TD*%
D12*
%TO.P,J103,1,Pin_1*%
%TO.N,/PD3*%
X91440000Y-82555000D03*
D13*
%TO.P,J103,2,Pin_2*%
%TO.N,/PD2*%
X91440000Y-85095000D03*
%TO.P,J103,3,Pin_3*%
%TO.N,/PD1*%
X91440000Y-87635000D03*
%TO.P,J103,4,Pin_4*%
%TO.N,/PC7*%
X91440000Y-90175000D03*
%TO.P,J103,5,Pin_5*%
%TO.N,/PC6*%
X91440000Y-92715000D03*
%TO.P,J103,6,Pin_6*%
%TO.N,/PC5*%
X91440000Y-95255000D03*
%TO.P,J103,7,Pin_7*%
%TO.N,/PC4*%
X91440000Y-97795000D03*
%TO.P,J103,8,Pin_8*%
%TO.N,/PC3*%
X91440000Y-100335000D03*
%TO.P,J103,9,Pin_9*%
%TO.N,/PB4*%
X91440000Y-102875000D03*
%TO.P,J103,10,Pin_10*%
%TO.N,/PB5*%
X91440000Y-105415000D03*
%TD*%
D23*
%TO.P,U102,1,GND*%
%TO.N,GND*%
X56540000Y-66280000D03*
%TO.P,U102,2,VO*%
%TO.N,+3.3V*%
X56540000Y-68580000D03*
D24*
X62840000Y-68580000D03*
D23*
%TO.P,U102,3,VI*%
%TO.N,+5V*%
X56540000Y-70880000D03*
%TD*%
D25*
%TO.N,Net-(U101-VCAP)*%
X69215000Y-100330000D03*
%TD*%
D26*
%TO.N,GND*%
X56112500Y-100330000D02*
X56112500Y-105410000D01*
X54383500Y-62921500D02*
X53340000Y-61878100D01*
X63732500Y-77586400D02*
X63732500Y-76200000D01*
X76454000Y-53340000D02*
X75152100Y-53340000D01*
X62010000Y-62261900D02*
X66040000Y-62261900D01*
X57558300Y-118518300D02*
X56112500Y-118518300D01*
X48725000Y-68580000D02*
X54383500Y-62921500D01*
X55321700Y-118518300D02*
X53190000Y-120650000D01*
X48725000Y-71120000D02*
X48725000Y-68580000D01*
X56112500Y-118518300D02*
X56112500Y-105410000D01*
X62048100Y-82086600D02*
X62048100Y-97790000D01*
X56540000Y-65078100D02*
X54383500Y-62921500D01*
X69447500Y-94973800D02*
X69447500Y-86288100D01*
X93980000Y-66040000D02*
X93980000Y-67391900D01*
X66040000Y-54768900D02*
X73723200Y-54768900D01*
X93980000Y-67391900D02*
X93219600Y-67391900D01*
X69447500Y-86288100D02*
X63647100Y-80487600D01*
X93219600Y-67391900D02*
X89734200Y-70877300D01*
X66040000Y-60960000D02*
X66040000Y-62261900D01*
X65786000Y-53340000D02*
X65786000Y-54641900D01*
X63647100Y-80487600D02*
X62048100Y-82086600D01*
X56540000Y-66280000D02*
X57991900Y-66280000D01*
X50800000Y-97790000D02*
X53572500Y-97790000D01*
X66040000Y-54768900D02*
X66040000Y-60960000D01*
X89734200Y-70877300D02*
X89734200Y-74658200D01*
X82894300Y-81498100D02*
X74237500Y-81498100D01*
X63647000Y-80487600D02*
X63647000Y-77671900D01*
X63647000Y-77671900D02*
X63732500Y-77586400D01*
X89734200Y-74658200D02*
X82894300Y-81498100D01*
X56540000Y-66280000D02*
X56540000Y-65078100D01*
X65786000Y-54641900D02*
X65913000Y-54768900D01*
X57991900Y-66280000D02*
X62010000Y-62261900D01*
X69428600Y-94992700D02*
X69447500Y-94973800D01*
X56112500Y-118518300D02*
X55321700Y-118518300D01*
D27*
X69428600Y-94992700D02*
X68295200Y-94992700D01*
D26*
X63647100Y-80487600D02*
X63647000Y-80487600D01*
X63500000Y-97790000D02*
X62048100Y-97790000D01*
X65913000Y-54768900D02*
X66040000Y-54768900D01*
D27*
X68295200Y-94992700D02*
X68257500Y-94955000D01*
D26*
X73723200Y-54768900D02*
X75152100Y-53340000D01*
X74237500Y-81498100D02*
X69447500Y-86288100D01*
X53572500Y-97790000D02*
X56112500Y-100330000D01*
X59690000Y-120650000D02*
X57558300Y-118518300D01*
X53340000Y-61878100D02*
X53340000Y-58420000D01*
D28*
%TO.N,/NRST*%
X64050100Y-90170000D02*
X64826900Y-90170000D01*
X46085800Y-91346900D02*
X45720000Y-91346900D01*
X45720000Y-90170000D02*
X45720000Y-91346900D01*
X47084600Y-110044600D02*
X47084600Y-92345700D01*
X64826900Y-90170000D02*
X64826900Y-90355500D01*
X53190000Y-116150000D02*
X47084600Y-110044600D01*
X65807500Y-76200000D02*
X76200000Y-76200000D01*
X64826900Y-90355500D02*
X67476400Y-93005000D01*
X64050100Y-90170000D02*
X63500000Y-90170000D01*
X67476400Y-93005000D02*
X68257500Y-93005000D01*
X47084600Y-92345700D02*
X46085800Y-91346900D01*
D26*
%TO.N,+5V*%
X47659300Y-62244300D02*
X47659300Y-71892000D01*
X55880000Y-57118100D02*
X55880000Y-53340000D01*
X88900000Y-53340000D02*
X88900000Y-58420000D01*
X55880000Y-57118100D02*
X52785500Y-57118100D01*
X47659300Y-71892000D02*
X48212900Y-72445600D01*
X49474400Y-72445600D02*
X49474400Y-99004400D01*
X56540000Y-70880000D02*
X51040000Y-70880000D01*
X55880000Y-58420000D02*
X55880000Y-57118100D01*
X49474400Y-72445600D02*
X50800000Y-71120000D01*
X86360000Y-60960000D02*
X88900000Y-58420000D01*
X49474400Y-99004400D02*
X50800000Y-100330000D01*
X76200000Y-60960000D02*
X86360000Y-60960000D01*
X52785500Y-57118100D02*
X47659300Y-62244300D01*
X48212900Y-72445600D02*
X49474400Y-72445600D01*
X51040000Y-70880000D02*
X50800000Y-71120000D01*
%TO.N,+3.3V*%
X62840000Y-68536800D02*
X62840000Y-68493700D01*
X66040000Y-102235000D02*
X66040000Y-99060000D01*
D27*
X67124100Y-96255000D02*
X68257500Y-96255000D01*
D26*
X60727500Y-102870000D02*
X58187500Y-105410000D01*
X82531900Y-76200000D02*
X86360000Y-76200000D01*
X61339900Y-68493700D02*
X61253600Y-68580000D01*
X61253600Y-68580000D02*
X61253600Y-98047500D01*
X62840000Y-68536800D02*
X64694900Y-68536800D01*
X50800000Y-68580000D02*
X56540000Y-68580000D01*
X64694900Y-68536800D02*
X67278100Y-71120000D01*
X65822000Y-98842000D02*
X66040000Y-99060000D01*
X61253600Y-98047500D02*
X62048100Y-98842000D01*
X62840000Y-68493700D02*
X61339900Y-68493700D01*
X62840000Y-68580000D02*
X62840000Y-68536800D01*
X60727500Y-102870000D02*
X63500000Y-102870000D01*
X62048100Y-98842000D02*
X65822000Y-98842000D01*
X63500000Y-102870000D02*
X65405000Y-102870000D01*
X68580000Y-71120000D02*
X67278100Y-71120000D01*
X76200000Y-66040000D02*
X76200000Y-71120000D01*
X65405000Y-102870000D02*
X66040000Y-102235000D01*
X66040000Y-97339100D02*
X67124100Y-96255000D01*
X76200000Y-71120000D02*
X77451900Y-71120000D01*
X56540000Y-68580000D02*
X61253600Y-68580000D01*
X77451900Y-71120000D02*
X82531900Y-76200000D01*
X66040000Y-99060000D02*
X66040000Y-97339100D01*
D28*
%TO.N,Net-(U101-VCAP)*%
X69850000Y-99695000D02*
X69215000Y-100330000D01*
X69850000Y-96460001D02*
X69850000Y-99695000D01*
X58187500Y-100330000D02*
X63500000Y-100330000D01*
X68257500Y-95605000D02*
X68994999Y-95605000D01*
X68994999Y-95605000D02*
X69850000Y-96460001D01*
%TO.N,/PB5*%
X93980000Y-71120000D02*
X93980000Y-102063900D01*
X91440000Y-105415000D02*
X91440000Y-104238100D01*
X78740000Y-105410000D02*
X77413100Y-105410000D01*
X77413100Y-105410000D02*
X73982500Y-101979400D01*
X91805800Y-104238100D02*
X91440000Y-104238100D01*
X96520000Y-105410000D02*
X95343100Y-105410000D01*
X92988500Y-103055400D02*
X95343100Y-105410000D01*
X93980000Y-102063900D02*
X92988500Y-103055400D01*
X92988500Y-103055400D02*
X91805800Y-104238100D01*
X73982500Y-101979400D02*
X73982500Y-96905000D01*
%TO.N,/PD4*%
X68257500Y-85980600D02*
X68257500Y-91055000D01*
X64826900Y-82550000D02*
X68257500Y-85980600D01*
X63500000Y-82550000D02*
X64826900Y-82550000D01*
%TO.N,/PD5*%
X64826900Y-85090000D02*
X67167200Y-87430300D01*
X67167200Y-87430300D02*
X67167200Y-91306500D01*
X67167200Y-91306500D02*
X67565700Y-91705000D01*
X67565700Y-91705000D02*
X68257500Y-91705000D01*
X63500000Y-85090000D02*
X64826900Y-85090000D01*
%TO.N,/PD6*%
X63500000Y-87630000D02*
X64826900Y-87630000D01*
X67527400Y-92355000D02*
X68257500Y-92355000D01*
X66715300Y-91542900D02*
X67527400Y-92355000D01*
X64826900Y-87630000D02*
X66715300Y-89518400D01*
X66715300Y-89518400D02*
X66715300Y-91542900D01*
%TO.N,/PA1*%
X63500000Y-92710000D02*
X64826900Y-92710000D01*
X68257500Y-93655000D02*
X65771900Y-93655000D01*
X65771900Y-93655000D02*
X64826900Y-92710000D01*
%TO.N,/PA2*%
X65771900Y-94305000D02*
X68257500Y-94305000D01*
X63500000Y-95250000D02*
X64826900Y-95250000D01*
X64826900Y-95250000D02*
X65771900Y-94305000D01*
%TO.N,/PA3*%
X68257500Y-96905000D02*
X68257500Y-101979400D01*
X68257500Y-101979400D02*
X64826900Y-105410000D01*
X63500000Y-105410000D02*
X64826900Y-105410000D01*
%TO.N,/PD3*%
X73982500Y-91055000D02*
X73982500Y-85980600D01*
X78740000Y-82550000D02*
X77413100Y-82550000D01*
X73982500Y-85980600D02*
X77413100Y-82550000D01*
%TO.N,/PD2*%
X77413100Y-85090000D02*
X77413100Y-88966200D01*
X74674300Y-91705000D02*
X73982500Y-91705000D01*
X77413100Y-88966200D02*
X74674300Y-91705000D01*
X78740000Y-85090000D02*
X77413100Y-85090000D01*
%TO.N,/PD1*%
X78740000Y-87630000D02*
X80066900Y-87630000D01*
X89135900Y-88811900D02*
X88806900Y-89140900D01*
X87630000Y-116933100D02*
X87997900Y-116933100D01*
X91440000Y-88811900D02*
X89135900Y-88811900D01*
X88806900Y-116124100D02*
X88806900Y-89140900D01*
X73982500Y-92355000D02*
X74753100Y-92355000D01*
X74753100Y-92355000D02*
X78740000Y-88368100D01*
X87997900Y-116933100D02*
X88806900Y-116124100D01*
X91440000Y-87635000D02*
X91440000Y-88811900D01*
X87630000Y-118110000D02*
X87630000Y-116933100D01*
X88806900Y-89140900D02*
X81577800Y-89140900D01*
X78740000Y-88368100D02*
X78740000Y-87630000D01*
X81577800Y-89140900D02*
X80066900Y-87630000D01*
%TO.N,/PC7*%
X73982500Y-93005000D02*
X75905000Y-93005000D01*
X75905000Y-93005000D02*
X78740000Y-90170000D01*
%TO.N,/PC6*%
X73982500Y-93655000D02*
X76468100Y-93655000D01*
X76468100Y-93655000D02*
X77413100Y-92710000D01*
X78740000Y-92710000D02*
X77413100Y-92710000D01*
%TO.N,/PC5*%
X76468100Y-94305000D02*
X73982500Y-94305000D01*
X77413100Y-95250000D02*
X76468100Y-94305000D01*
X78740000Y-95250000D02*
X77413100Y-95250000D01*
%TO.N,/PC4*%
X77413100Y-97790000D02*
X77413100Y-97621900D01*
X74746200Y-94955000D02*
X73982500Y-94955000D01*
X78740000Y-97790000D02*
X77413100Y-97790000D01*
X77413100Y-97621900D02*
X74746200Y-94955000D01*
%TO.N,/PC3*%
X75516200Y-96417100D02*
X74704100Y-95605000D01*
X74704100Y-95605000D02*
X73982500Y-95605000D01*
X75516200Y-98433100D02*
X75516200Y-96417100D01*
X78740000Y-100330000D02*
X77413100Y-100330000D01*
X77413100Y-100330000D02*
X75516200Y-98433100D01*
%TO.N,/PB4*%
X78740000Y-102870000D02*
X77413100Y-102870000D01*
X74674300Y-96255000D02*
X73982500Y-96255000D01*
X75064200Y-96644900D02*
X74674300Y-96255000D01*
X77413100Y-102870000D02*
X75064200Y-100521100D01*
X75064200Y-100521100D02*
X75064200Y-96644900D01*
%TO.N,Net-(J107-Pin_1)*%
X63500000Y-111760000D02*
X64060000Y-112320000D01*
X64060000Y-116150000D02*
X70560000Y-116150000D01*
X64060000Y-112320000D02*
X64060000Y-116150000D01*
%TO.N,Net-(J108-Pin_1)*%
X74930000Y-111760000D02*
X74780000Y-111910000D01*
X74780000Y-111910000D02*
X74780000Y-116150000D01*
X74780000Y-116150000D02*
X81280000Y-116150000D01*
%TD*%
%TA.AperFunction,Conductor*%
%TO.N,GND*%
G36*
X66963040Y-94950185D02*
G01*
X67008795Y-95002989D01*
X67020001Y-95054500D01*
X67020001Y-95094324D01*
X67035442Y-95211622D01*
X67035445Y-95211634D01*
X67043837Y-95231895D01*
X67051304Y-95301364D01*
X67043838Y-95326794D01*
X67034956Y-95348238D01*
X67025019Y-95423716D01*
X66996752Y-95487612D01*
X66938428Y-95526083D01*
X66926274Y-95529147D01*
X66905190Y-95533341D01*
X66905189Y-95533341D01*
X66768609Y-95589914D01*
X66768602Y-95589918D01*
X66706518Y-95631400D01*
X66645684Y-95672048D01*
X66645682Y-95672049D01*
X66645679Y-95672052D01*
X66645678Y-95672052D01*
X65457048Y-96860683D01*
X65447945Y-96874308D01*
X65414672Y-96924106D01*
X65374919Y-96983599D01*
X65374912Y-96983611D01*
X65318343Y-97120182D01*
X65318340Y-97120192D01*
X65289500Y-97265179D01*
X65289500Y-97967500D01*
X65269815Y-98034539D01*
X65217011Y-98080294D01*
X65165500Y-98091500D01*
X65111144Y-98091500D01*
X65044105Y-98071815D01*
X64998350Y-98019011D01*
X64988406Y-97949853D01*
X64988671Y-97948103D01*
X65000000Y-97876572D01*
X65000000Y-97703428D01*
X64972914Y-97532415D01*
X64919408Y-97367742D01*
X64840804Y-97213475D01*
X64739032Y-97073397D01*
X64654594Y-96988959D01*
X63900000Y-97743553D01*
X63900000Y-97737339D01*
X63872741Y-97635606D01*
X63820080Y-97544394D01*
X63745606Y-97469920D01*
X63654394Y-97417259D01*
X63552661Y-97390000D01*
X63546448Y-97390000D01*
X64204211Y-96732235D01*
X64157582Y-96717085D01*
X63986571Y-96690000D01*
X63013429Y-96690000D01*
X62842423Y-96717084D01*
X62842411Y-96717087D01*
X62795787Y-96732235D01*
X63453553Y-97390000D01*
X63447339Y-97390000D01*
X63345606Y-97417259D01*
X63254394Y-97469920D01*
X63179920Y-97544394D01*
X63127259Y-97635606D01*
X63100000Y-97737339D01*
X63100000Y-97743553D01*
X62345406Y-96988959D01*
X62260965Y-97073399D01*
X62228418Y-97118197D01*
X62173088Y-97160862D01*
X62103474Y-97166841D01*
X62041679Y-97134235D01*
X62007322Y-97073396D01*
X62004100Y-97045311D01*
X62004100Y-95995538D01*
X62023785Y-95928499D01*
X62076589Y-95882744D01*
X62145747Y-95872800D01*
X62209303Y-95901825D01*
X62228415Y-95922649D01*
X62260586Y-95966928D01*
X62383072Y-96089414D01*
X62523212Y-96191232D01*
X62677555Y-96269873D01*
X62842299Y-96323402D01*
X63013389Y-96350500D01*
X63013390Y-96350500D01*
X63986610Y-96350500D01*
X63986611Y-96350500D01*
X64157701Y-96323402D01*
X64322445Y-96269873D01*
X64476788Y-96191232D01*
X64616928Y-96089414D01*
X64739414Y-95966928D01*
X64768705Y-95926613D01*
X64824035Y-95883948D01*
X64869022Y-95875500D01*
X64888507Y-95875500D01*
X64948929Y-95863481D01*
X65009352Y-95851463D01*
X65050302Y-95834501D01*
X65123186Y-95804312D01*
X65175819Y-95769143D01*
X65175821Y-95769142D01*
X65212909Y-95744360D01*
X65225633Y-95735858D01*
X65312758Y-95648733D01*
X65312759Y-95648730D01*
X65319825Y-95641665D01*
X65319827Y-95641661D01*
X65994671Y-94966819D01*
X66055994Y-94933334D01*
X66082352Y-94930500D01*
X66896001Y-94930500D01*
X66963040Y-94950185D01*
G37*
%TD.AperFunction*%
%TA.AperFunction,Conductor*%
G36*
X62209303Y-93361825D02*
G01*
X62228415Y-93382649D01*
X62260586Y-93426928D01*
X62383072Y-93549414D01*
X62523212Y-93651232D01*
X62677555Y-93729873D01*
X62842299Y-93783402D01*
X63013389Y-93810500D01*
X63013390Y-93810500D01*
X63986610Y-93810500D01*
X63986611Y-93810500D01*
X64157701Y-93783402D01*
X64322445Y-93729873D01*
X64476788Y-93651232D01*
X64616928Y-93549414D01*
X64616939Y-93549402D01*
X64618642Y-93547949D01*
X64619428Y-93547596D01*
X64620869Y-93546550D01*
X64621088Y-93546852D01*
X64682401Y-93519374D01*
X64751487Y-93529805D01*
X64786862Y-93554552D01*
X65124629Y-93892319D01*
X65158114Y-93953642D01*
X65153130Y-94023334D01*
X65124629Y-94067681D01*
X64786862Y-94405447D01*
X64725539Y-94438932D01*
X64655847Y-94433948D01*
X64620913Y-94413388D01*
X64620869Y-94413450D01*
X64620236Y-94412990D01*
X64618652Y-94412058D01*
X64616936Y-94410592D01*
X64476788Y-94308768D01*
X64322447Y-94230128D01*
X64322446Y-94230127D01*
X64322445Y-94230127D01*
X64157701Y-94176598D01*
X64157699Y-94176597D01*
X64157698Y-94176597D01*
X64026271Y-94155781D01*
X63986611Y-94149500D01*
X63013389Y-94149500D01*
X62973728Y-94155781D01*
X62842302Y-94176597D01*
X62677552Y-94230128D01*
X62523211Y-94308768D01*
X62443256Y-94366859D01*
X62383072Y-94410586D01*
X62383070Y-94410588D01*
X62383069Y-94410588D01*
X62260585Y-94533072D01*
X62228417Y-94577348D01*
X62173087Y-94620013D01*
X62103473Y-94625991D01*
X62041679Y-94593384D01*
X62007322Y-94532545D01*
X62004100Y-94504461D01*
X62004100Y-93455538D01*
X62023785Y-93388499D01*
X62076589Y-93342744D01*
X62145747Y-93332800D01*
X62209303Y-93361825D01*
G37*
%TD.AperFunction*%
%TA.AperFunction,Conductor*%
G36*
X62209303Y-90821825D02*
G01*
X62228415Y-90842649D01*
X62260586Y-90886928D01*
X62383072Y-91009414D01*
X62523212Y-91111232D01*
X62677555Y-91189873D01*
X62842299Y-91243402D01*
X63013389Y-91270500D01*
X63013390Y-91270500D01*
X63986610Y-91270500D01*
X63986611Y-91270500D01*
X64157701Y-91243402D01*
X64322445Y-91189873D01*
X64476788Y-91111232D01*
X64519256Y-91080376D01*
X64585061Y-91056896D01*
X64653115Y-91072720D01*
X64679823Y-91093013D01*
X66404629Y-92817819D01*
X66438114Y-92879142D01*
X66433130Y-92948834D01*
X66391258Y-93004767D01*
X66325794Y-93029184D01*
X66316948Y-93029500D01*
X66082352Y-93029500D01*
X66015313Y-93009815D01*
X65994671Y-92993181D01*
X65317098Y-92315608D01*
X65317078Y-92315586D01*
X65225636Y-92224144D01*
X65225628Y-92224138D01*
X65148421Y-92172550D01*
X65148419Y-92172548D01*
X65148419Y-92172549D01*
X65123185Y-92155687D01*
X65082939Y-92139017D01*
X65042692Y-92122347D01*
X65009353Y-92108537D01*
X64999327Y-92106543D01*
X64948929Y-92096518D01*
X64888510Y-92084500D01*
X64888507Y-92084500D01*
X64888506Y-92084500D01*
X64869022Y-92084500D01*
X64801983Y-92064815D01*
X64768705Y-92033387D01*
X64739414Y-91993072D01*
X64616930Y-91870588D01*
X64616928Y-91870586D01*
X64476788Y-91768768D01*
X64322445Y-91690127D01*
X64157701Y-91636598D01*
X64157699Y-91636597D01*
X64157698Y-91636597D01*
X64026271Y-91615781D01*
X63986611Y-91609500D01*
X63013389Y-91609500D01*
X62973728Y-91615781D01*
X62842302Y-91636597D01*
X62677552Y-91690128D01*
X62523211Y-91768768D01*
X62443256Y-91826859D01*
X62383072Y-91870586D01*
X62383070Y-91870588D01*
X62383069Y-91870588D01*
X62260585Y-91993072D01*
X62228417Y-92037348D01*
X62173087Y-92080013D01*
X62103473Y-92085991D01*
X62041679Y-92053384D01*
X62007322Y-91992545D01*
X62004100Y-91964461D01*
X62004100Y-90915538D01*
X62023785Y-90848499D01*
X62076589Y-90802744D01*
X62145747Y-90792800D01*
X62209303Y-90821825D01*
G37*
%TD.AperFunction*%
%TA.AperFunction,Conductor*%
G36*
X62209303Y-88281825D02*
G01*
X62228415Y-88302649D01*
X62260586Y-88346928D01*
X62383072Y-88469414D01*
X62523212Y-88571232D01*
X62677555Y-88649873D01*
X62842299Y-88703402D01*
X63013389Y-88730500D01*
X63013390Y-88730500D01*
X63986610Y-88730500D01*
X63986611Y-88730500D01*
X64157701Y-88703402D01*
X64322445Y-88649873D01*
X64476788Y-88571232D01*
X64616928Y-88469414D01*
X64616939Y-88469402D01*
X64618642Y-88467949D01*
X64619428Y-88467596D01*
X64620869Y-88466550D01*
X64621088Y-88466852D01*
X64682401Y-88439374D01*
X64751487Y-88449805D01*
X64786862Y-88474552D01*
X66053481Y-89741171D01*
X66086966Y-89802494D01*
X66089800Y-89828852D01*
X66089800Y-90434448D01*
X66070115Y-90501487D01*
X66017311Y-90547242D01*
X65948153Y-90557186D01*
X65884597Y-90528161D01*
X65878119Y-90522129D01*
X65476022Y-90120032D01*
X65442537Y-90058709D01*
X65442104Y-90056633D01*
X65428363Y-89987548D01*
X65381211Y-89873714D01*
X65381210Y-89873713D01*
X65381207Y-89873707D01*
X65312758Y-89771267D01*
X65312755Y-89771263D01*
X65225636Y-89684144D01*
X65225632Y-89684141D01*
X65123192Y-89615692D01*
X65123183Y-89615687D01*
X65009354Y-89568538D01*
X65009355Y-89568538D01*
X65009352Y-89568537D01*
X65009348Y-89568536D01*
X65009344Y-89568535D01*
X64888510Y-89544500D01*
X64888506Y-89544500D01*
X64869022Y-89544500D01*
X64801983Y-89524815D01*
X64768705Y-89493387D01*
X64739414Y-89453072D01*
X64616930Y-89330588D01*
X64616928Y-89330586D01*
X64476788Y-89228768D01*
X64322445Y-89150127D01*
X64157701Y-89096598D01*
X64157699Y-89096597D01*
X64157698Y-89096597D01*
X64026271Y-89075781D01*
X63986611Y-89069500D01*
X63013389Y-89069500D01*
X62973728Y-89075781D01*
X62842302Y-89096597D01*
X62677552Y-89150128D01*
X62523211Y-89228768D01*
X62443256Y-89286859D01*
X62383072Y-89330586D01*
X62383070Y-89330588D01*
X62383069Y-89330588D01*
X62260585Y-89453072D01*
X62228417Y-89497348D01*
X62173087Y-89540013D01*
X62103473Y-89545991D01*
X62041679Y-89513384D01*
X62007322Y-89452545D01*
X62004100Y-89424461D01*
X62004100Y-88375538D01*
X62023785Y-88308499D01*
X62076589Y-88262744D01*
X62145747Y-88252800D01*
X62209303Y-88281825D01*
G37*
%TD.AperFunction*%
%TA.AperFunction,Conductor*%
G36*
X62209303Y-85741825D02*
G01*
X62228415Y-85762649D01*
X62260586Y-85806928D01*
X62383072Y-85929414D01*
X62523212Y-86031232D01*
X62677555Y-86109873D01*
X62842299Y-86163402D01*
X63013389Y-86190500D01*
X63013390Y-86190500D01*
X63986610Y-86190500D01*
X63986611Y-86190500D01*
X64157701Y-86163402D01*
X64322445Y-86109873D01*
X64476788Y-86031232D01*
X64616928Y-85929414D01*
X64616939Y-85929402D01*
X64618642Y-85927949D01*
X64619428Y-85927596D01*
X64620869Y-85926550D01*
X64621088Y-85926852D01*
X64682401Y-85899374D01*
X64751487Y-85909805D01*
X64786862Y-85934552D01*
X66505381Y-87653071D01*
X66538866Y-87714394D01*
X66541700Y-87740752D01*
X66541700Y-88160848D01*
X66522015Y-88227887D01*
X66469211Y-88273642D01*
X66400053Y-88283586D01*
X66336497Y-88254561D01*
X66330019Y-88248529D01*
X65317098Y-87235608D01*
X65317078Y-87235586D01*
X65225633Y-87144141D01*
X65174409Y-87109915D01*
X65123187Y-87075689D01*
X65123186Y-87075688D01*
X65123183Y-87075686D01*
X65123180Y-87075685D01*
X65042692Y-87042347D01*
X65009353Y-87028537D01*
X64999327Y-87026543D01*
X64948929Y-87016518D01*
X64888510Y-87004500D01*
X64888507Y-87004500D01*
X64888506Y-87004500D01*
X64869022Y-87004500D01*
X64801983Y-86984815D01*
X64768705Y-86953387D01*
X64739414Y-86913072D01*
X64616930Y-86790588D01*
X64616928Y-86790586D01*
X64476788Y-86688768D01*
X64322445Y-86610127D01*
X64157701Y-86556598D01*
X64157699Y-86556597D01*
X64157698Y-86556597D01*
X64026271Y-86535781D01*
X63986611Y-86529500D01*
X63013389Y-86529500D01*
X62973728Y-86535781D01*
X62842302Y-86556597D01*
X62677552Y-86610128D01*
X62523211Y-86688768D01*
X62443256Y-86746859D01*
X62383072Y-86790586D01*
X62383070Y-86790588D01*
X62383069Y-86790588D01*
X62260585Y-86913072D01*
X62228417Y-86957348D01*
X62173087Y-87000013D01*
X62103473Y-87005991D01*
X62041679Y-86973384D01*
X62007322Y-86912545D01*
X62004100Y-86884461D01*
X62004100Y-85835538D01*
X62023785Y-85768499D01*
X62076589Y-85722744D01*
X62145747Y-85712800D01*
X62209303Y-85741825D01*
G37*
%TD.AperFunction*%
%TA.AperFunction,Conductor*%
G36*
X62209303Y-83201825D02*
G01*
X62228415Y-83222649D01*
X62260586Y-83266928D01*
X62383072Y-83389414D01*
X62523212Y-83491232D01*
X62677555Y-83569873D01*
X62842299Y-83623402D01*
X63013389Y-83650500D01*
X63013390Y-83650500D01*
X63986610Y-83650500D01*
X63986611Y-83650500D01*
X64157701Y-83623402D01*
X64322445Y-83569873D01*
X64476788Y-83491232D01*
X64616928Y-83389414D01*
X64616939Y-83389402D01*
X64618642Y-83387949D01*
X64619428Y-83387596D01*
X64620869Y-83386550D01*
X64621088Y-83386852D01*
X64682401Y-83359374D01*
X64751487Y-83369805D01*
X64786862Y-83394552D01*
X67595681Y-86203371D01*
X67629166Y-86264694D01*
X67632000Y-86291052D01*
X67632000Y-86711148D01*
X67612315Y-86778187D01*
X67559511Y-86823942D01*
X67490353Y-86833886D01*
X67426797Y-86804861D01*
X67420319Y-86798829D01*
X65317098Y-84695608D01*
X65317078Y-84695586D01*
X65225633Y-84604141D01*
X65174409Y-84569915D01*
X65123186Y-84535688D01*
X65123183Y-84535686D01*
X65123180Y-84535685D01*
X65042692Y-84502347D01*
X65009353Y-84488537D01*
X64999327Y-84486543D01*
X64948929Y-84476518D01*
X64888510Y-84464500D01*
X64888507Y-84464500D01*
X64888506Y-84464500D01*
X64869022Y-84464500D01*
X64801983Y-84444815D01*
X64768705Y-84413387D01*
X64739414Y-84373072D01*
X64616930Y-84250588D01*
X64616928Y-84250586D01*
X64476788Y-84148768D01*
X64322445Y-84070127D01*
X64157701Y-84016598D01*
X64157699Y-84016597D01*
X64157698Y-84016597D01*
X64026271Y-83995781D01*
X63986611Y-83989500D01*
X63013389Y-83989500D01*
X62973728Y-83995781D01*
X62842302Y-84016597D01*
X62677552Y-84070128D01*
X62523211Y-84148768D01*
X62443256Y-84206859D01*
X62383072Y-84250586D01*
X62383070Y-84250588D01*
X62383069Y-84250588D01*
X62260585Y-84373072D01*
X62228417Y-84417348D01*
X62173087Y-84460013D01*
X62103473Y-84465991D01*
X62041679Y-84433384D01*
X62007322Y-84372545D01*
X62004100Y-84344461D01*
X62004100Y-83295538D01*
X62023785Y-83228499D01*
X62076589Y-83182744D01*
X62145747Y-83172800D01*
X62209303Y-83201825D01*
G37*
%TD.AperFunction*%
%TA.AperFunction,Conductor*%
G36*
X96778191Y-48260500D02*
G01*
X97198233Y-48298354D01*
X97209273Y-48299852D01*
X97648018Y-48379579D01*
X97658864Y-48382058D01*
X98088704Y-48500851D01*
X98099295Y-48504298D01*
X98256596Y-48563419D01*
X98516716Y-48661184D01*
X98526941Y-48665560D01*
X98928619Y-48859292D01*
X98938415Y-48864572D01*
X98940508Y-48865824D01*
X99321061Y-49093561D01*
X99330353Y-49099704D01*
X99390675Y-49143607D01*
X99690909Y-49362120D01*
X99699604Y-49369066D01*
X100035165Y-49662798D01*
X100043192Y-49670489D01*
X100139446Y-49771378D01*
X100351016Y-49993136D01*
X100358337Y-50001534D01*
X100635961Y-50350510D01*
X100642498Y-50359532D01*
X100887681Y-50732022D01*
X100893382Y-50741594D01*
X101104131Y-51134569D01*
X101108950Y-51144613D01*
X101283583Y-51554932D01*
X101287481Y-51565369D01*
X101424577Y-51989699D01*
X101427523Y-52000444D01*
X101525981Y-52435378D01*
X101527950Y-52446344D01*
X101587060Y-52889016D01*
X101587972Y-52898760D01*
X101599821Y-53118777D01*
X101600000Y-53125445D01*
X101600000Y-121919290D01*
X101599993Y-121920642D01*
X101597634Y-122136962D01*
X101597169Y-122146418D01*
X101559410Y-122577996D01*
X101557998Y-122588720D01*
X101482887Y-123014699D01*
X101480546Y-123025260D01*
X101368590Y-123443087D01*
X101365337Y-123453404D01*
X101217396Y-123859869D01*
X101213256Y-123869864D01*
X101030449Y-124261894D01*
X101025454Y-124271489D01*
X100809180Y-124646087D01*
X100803368Y-124655211D01*
X100555256Y-125009551D01*
X100548671Y-125018133D01*
X100270632Y-125349487D01*
X100263323Y-125357462D01*
X99957462Y-125663323D01*
X99949487Y-125670632D01*
X99618133Y-125948671D01*
X99609551Y-125955256D01*
X99255211Y-126203368D01*
X99246087Y-126209180D01*
X98871489Y-126425454D01*
X98861894Y-126430449D01*
X98469864Y-126613256D01*
X98459869Y-126617396D01*
X98053404Y-126765337D01*
X98043087Y-126768590D01*
X97625260Y-126880546D01*
X97614699Y-126882887D01*
X97188720Y-126957998D01*
X97177996Y-126959410D01*
X96746418Y-126997169D01*
X96736962Y-126997634D01*
X96520642Y-126999993D01*
X96519290Y-127000000D01*
X45720710Y-127000000D01*
X45719358Y-126999993D01*
X45503037Y-126997634D01*
X45493581Y-126997169D01*
X45062003Y-126959410D01*
X45051279Y-126957998D01*
X44625300Y-126882887D01*
X44614739Y-126880546D01*
X44196912Y-126768590D01*
X44186601Y-126765339D01*
X43780127Y-126617394D01*
X43770135Y-126613256D01*
X43378105Y-126430449D01*
X43368510Y-126425454D01*
X42993912Y-126209180D01*
X42984788Y-126203368D01*
X42630448Y-125955256D01*
X42621876Y-125948679D01*
X42290499Y-125670620D01*
X42282537Y-125663323D01*
X41976676Y-125357462D01*
X41969379Y-125349501D01*
X41691317Y-125018119D01*
X41684743Y-125009551D01*
X41436631Y-124655211D01*
X41430819Y-124646087D01*
X41214545Y-124271489D01*
X41209550Y-124261894D01*
X41026737Y-123869850D01*
X41022609Y-123859884D01*
X40874655Y-123453384D01*
X40871413Y-123443101D01*
X40759450Y-123025249D01*
X40757115Y-123014715D01*
X40682000Y-122588719D01*
X40680589Y-122577996D01*
X40642829Y-122146405D01*
X40642365Y-122136962D01*
X40640877Y-122000499D01*
X40640007Y-121920642D01*
X40640004Y-121920000D01*
X41714675Y-121920000D01*
X41733962Y-122312591D01*
X41733962Y-122312597D01*
X41733963Y-122312599D01*
X41791637Y-122701406D01*
X41887143Y-123082684D01*
X42019561Y-123452770D01*
X42019562Y-123452772D01*
X42187620Y-123808100D01*
X42389692Y-124145236D01*
X42389694Y-124145239D01*
X42483327Y-124271489D01*
X42623846Y-124460956D01*
X42887807Y-124752192D01*
X43171759Y-125009551D01*
X43179049Y-125016158D01*
X43494761Y-125250306D01*
X43494763Y-125250307D01*
X43831899Y-125452379D01*
X43831902Y-125452380D01*
X43831903Y-125452381D01*
X44187228Y-125620438D01*
X44557316Y-125752857D01*
X44938600Y-125848364D01*
X45327409Y-125906038D01*
X45720000Y-125925325D01*
X46112591Y-125906038D01*
X46501400Y-125848364D01*
X46882684Y-125752857D01*
X47252772Y-125620438D01*
X47608097Y-125452381D01*
X47945239Y-125250306D01*
X48260951Y-125016158D01*
X48552192Y-124752192D01*
X48816158Y-124460951D01*
X49050306Y-124145239D01*
X49252381Y-123808097D01*
X49420438Y-123452772D01*
X49552857Y-123082684D01*
X49648364Y-122701400D01*
X49706038Y-122312591D01*
X49725325Y-121920000D01*
X49706038Y-121527409D01*
X49648364Y-121138600D01*
X49552857Y-120757316D01*
X49514457Y-120649994D01*
X51684859Y-120649994D01*
X51684859Y-120650005D01*
X51705385Y-120897729D01*
X51705387Y-120897738D01*
X51766412Y-121138717D01*
X51866266Y-121366364D01*
X51966564Y-121519882D01*
X52666212Y-120820234D01*
X52677482Y-120862292D01*
X52749890Y-120987708D01*
X52852292Y-121090110D01*
X52977708Y-121162518D01*
X53019765Y-121173787D01*
X52319942Y-121873609D01*
X52366768Y-121910055D01*
X52366770Y-121910056D01*
X52585385Y-122028364D01*
X52585396Y-122028369D01*
X52820506Y-122109083D01*
X53065707Y-122150000D01*
X53314293Y-122150000D01*
X53559493Y-122109083D01*
X53794603Y-122028369D01*
X53794614Y-122028364D01*
X54013228Y-121910057D01*
X54013231Y-121910055D01*
X54060056Y-121873609D01*
X53360234Y-121173787D01*
X53402292Y-121162518D01*
X53527708Y-121090110D01*
X53630110Y-120987708D01*
X53702518Y-120862292D01*
X53713787Y-120820235D01*
X54413434Y-121519882D01*
X54513731Y-121366369D01*
X54613587Y-121138717D01*
X54674612Y-120897738D01*
X54674614Y-120897729D01*
X54695141Y-120650005D01*
X54695141Y-120649994D01*
X58184859Y-120649994D01*
X58184859Y-120650005D01*
X58205385Y-120897729D01*
X58205387Y-120897738D01*
X58266412Y-121138717D01*
X58366266Y-121366364D01*
X58466564Y-121519882D01*
X59166212Y-120820234D01*
X59177482Y-120862292D01*
X59249890Y-120987708D01*
X59352292Y-121090110D01*
X59477708Y-121162518D01*
X59519765Y-121173787D01*
X58819942Y-121873609D01*
X58866768Y-121910055D01*
X58866770Y-121910056D01*
X59085385Y-122028364D01*
X59085396Y-122028369D01*
X59320506Y-122109083D01*
X59565707Y-122150000D01*
X59814293Y-122150000D01*
X60059493Y-122109083D01*
X60294603Y-122028369D01*
X60294614Y-122028364D01*
X60513228Y-121910057D01*
X60513231Y-121910055D01*
X60560056Y-121873609D01*
X59860234Y-121173787D01*
X59902292Y-121162518D01*
X60027708Y-121090110D01*
X60130110Y-120987708D01*
X60202518Y-120862292D01*
X60213787Y-120820235D01*
X60913434Y-121519882D01*
X61013731Y-121366369D01*
X61113587Y-121138717D01*
X61174612Y-120897738D01*
X61174614Y-120897729D01*
X61195141Y-120650005D01*
X61195141Y-120649994D01*
X62554859Y-120649994D01*
X62554859Y-120650005D01*
X62575385Y-120897729D01*
X62575387Y-120897738D01*
X62636412Y-121138717D01*
X62736266Y-121366364D01*
X62836564Y-121519882D01*
X63536212Y-120820234D01*
X63547482Y-120862292D01*
X63619890Y-120987708D01*
X63722292Y-121090110D01*
X63847708Y-121162518D01*
X63889765Y-121173787D01*
X63189942Y-121873609D01*
X63236768Y-121910055D01*
X63236770Y-121910056D01*
X63455385Y-122028364D01*
X63455396Y-122028369D01*
X63690506Y-122109083D01*
X63935707Y-122150000D01*
X64184293Y-122150000D01*
X64429493Y-122109083D01*
X64664603Y-122028369D01*
X64664614Y-122028364D01*
X64883228Y-121910057D01*
X64883231Y-121910055D01*
X64930056Y-121873609D01*
X64230234Y-121173787D01*
X64272292Y-121162518D01*
X64397708Y-121090110D01*
X64500110Y-120987708D01*
X64572518Y-120862292D01*
X64583787Y-120820235D01*
X65283434Y-121519882D01*
X65383731Y-121366369D01*
X65483587Y-121138717D01*
X65544612Y-120897738D01*
X65544614Y-120897729D01*
X65565141Y-120650005D01*
X65565141Y-120649994D01*
X69054859Y-120649994D01*
X69054859Y-120650005D01*
X69075385Y-120897729D01*
X69075387Y-120897738D01*
X69136412Y-121138717D01*
X69236266Y-121366364D01*
X69336564Y-121519882D01*
X70036212Y-120820234D01*
X70047482Y-120862292D01*
X70119890Y-120987708D01*
X70222292Y-121090110D01*
X70347708Y-121162518D01*
X70389765Y-121173787D01*
X69689942Y-121873609D01*
X69736768Y-121910055D01*
X69736770Y-121910056D01*
X69955385Y-122028364D01*
X69955396Y-122028369D01*
X70190506Y-122109083D01*
X70435707Y-122150000D01*
X70684293Y-122150000D01*
X70929493Y-122109083D01*
X71164603Y-122028369D01*
X71164614Y-122028364D01*
X71383228Y-121910057D01*
X71383231Y-121910055D01*
X71430056Y-121873609D01*
X70730234Y-121173787D01*
X70772292Y-121162518D01*
X70897708Y-121090110D01*
X71000110Y-120987708D01*
X71072518Y-120862292D01*
X71083787Y-120820235D01*
X71783434Y-121519882D01*
X71883731Y-121366369D01*
X71983587Y-121138717D01*
X72044612Y-120897738D01*
X72044614Y-120897729D01*
X72065141Y-120650005D01*
X72065141Y-120649994D01*
X73274859Y-120649994D01*
X73274859Y-120650005D01*
X73295385Y-120897729D01*
X73295387Y-120897738D01*
X73356412Y-121138717D01*
X73456266Y-121366364D01*
X73556564Y-121519882D01*
X74256212Y-120820234D01*
X74267482Y-120862292D01*
X74339890Y-120987708D01*
X74442292Y-121090110D01*
X74567708Y-121162518D01*
X74609765Y-121173787D01*
X73909942Y-121873609D01*
X73956768Y-121910055D01*
X73956770Y-121910056D01*
X74175385Y-122028364D01*
X74175396Y-122028369D01*
X74410506Y-122109083D01*
X74655707Y-122150000D01*
X74904293Y-122150000D01*
X75149493Y-122109083D01*
X75384603Y-122028369D01*
X75384614Y-122028364D01*
X75603228Y-121910057D01*
X75603231Y-121910055D01*
X75650056Y-121873609D01*
X74950234Y-121173787D01*
X74992292Y-121162518D01*
X75117708Y-121090110D01*
X75220110Y-120987708D01*
X75292518Y-120862292D01*
X75303787Y-120820235D01*
X76003434Y-121519882D01*
X76103731Y-121366369D01*
X76203587Y-121138717D01*
X76264612Y-120897738D01*
X76264614Y-120897729D01*
X76285141Y-120650005D01*
X76285141Y-120649994D01*
X79774859Y-120649994D01*
X79774859Y-120650005D01*
X79795385Y-120897729D01*
X79795387Y-120897738D01*
X79856412Y-121138717D01*
X79956266Y-121366364D01*
X80056564Y-121519882D01*
X80756212Y-120820234D01*
X80767482Y-120862292D01*
X80839890Y-120987708D01*
X80942292Y-121090110D01*
X81067708Y-121162518D01*
X81109765Y-121173787D01*
X80409942Y-121873609D01*
X80456768Y-121910055D01*
X80456770Y-121910056D01*
X80675385Y-122028364D01*
X80675396Y-122028369D01*
X80910506Y-122109083D01*
X81155707Y-122150000D01*
X81404293Y-122150000D01*
X81649493Y-122109083D01*
X81884603Y-122028369D01*
X81884614Y-122028364D01*
X82103228Y-121910057D01*
X82103231Y-121910055D01*
X82150056Y-121873609D01*
X81450234Y-121173787D01*
X81492292Y-121162518D01*
X81617708Y-121090110D01*
X81720110Y-120987708D01*
X81792518Y-120862292D01*
X81803787Y-120820235D01*
X82503434Y-121519882D01*
X82603731Y-121366369D01*
X82703587Y-121138717D01*
X82764612Y-120897738D01*
X82764614Y-120897729D01*
X82785141Y-120650005D01*
X82785141Y-120649994D01*
X82764614Y-120402270D01*
X82764612Y-120402261D01*
X82703587Y-120161282D01*
X82603731Y-119933630D01*
X82503434Y-119780116D01*
X81803787Y-120479764D01*
X81792518Y-120437708D01*
X81720110Y-120312292D01*
X81617708Y-120209890D01*
X81492292Y-120137482D01*
X81450235Y-120126212D01*
X82150057Y-119426390D01*
X82150056Y-119426389D01*
X82103229Y-119389943D01*
X81884614Y-119271635D01*
X81884603Y-119271630D01*
X81649493Y-119190916D01*
X81404293Y-119150000D01*
X81155707Y-119150000D01*
X80910506Y-119190916D01*
X80675396Y-119271630D01*
X80675390Y-119271632D01*
X80456761Y-119389949D01*
X80409942Y-119426388D01*
X80409942Y-119426390D01*
X81109765Y-120126212D01*
X81067708Y-120137482D01*
X80942292Y-120209890D01*
X80839890Y-120312292D01*
X80767482Y-120437708D01*
X80756212Y-120479764D01*
X80056564Y-119780116D01*
X79956267Y-119933632D01*
X79856412Y-120161282D01*
X79795387Y-120402261D01*
X79795385Y-120402270D01*
X79774859Y-120649994D01*
X76285141Y-120649994D01*
X76264614Y-120402270D01*
X76264612Y-120402261D01*
X76203587Y-120161282D01*
X76103731Y-119933630D01*
X76003434Y-119780116D01*
X75303787Y-120479764D01*
X75292518Y-120437708D01*
X75220110Y-120312292D01*
X75117708Y-120209890D01*
X74992292Y-120137482D01*
X74950235Y-120126212D01*
X75650057Y-119426390D01*
X75650056Y-119426389D01*
X75603229Y-119389943D01*
X75384614Y-119271635D01*
X75384603Y-119271630D01*
X75149493Y-119190916D01*
X74904293Y-119150000D01*
X74655707Y-119150000D01*
X74410506Y-119190916D01*
X74175396Y-119271630D01*
X74175390Y-119271632D01*
X73956761Y-119389949D01*
X73909942Y-119426388D01*
X73909942Y-119426390D01*
X74609765Y-120126212D01*
X74567708Y-120137482D01*
X74442292Y-120209890D01*
X74339890Y-120312292D01*
X74267482Y-120437708D01*
X74256212Y-120479764D01*
X73556564Y-119780116D01*
X73456267Y-119933632D01*
X73356412Y-120161282D01*
X73295387Y-120402261D01*
X73295385Y-120402270D01*
X73274859Y-120649994D01*
X72065141Y-120649994D01*
X72044614Y-120402270D01*
X72044612Y-120402261D01*
X71983587Y-120161282D01*
X71883731Y-119933630D01*
X71783434Y-119780116D01*
X71083787Y-120479764D01*
X71072518Y-120437708D01*
X71000110Y-120312292D01*
X70897708Y-120209890D01*
X70772292Y-120137482D01*
X70730235Y-120126212D01*
X71430057Y-119426390D01*
X71430056Y-119426389D01*
X71383229Y-119389943D01*
X71164614Y-119271635D01*
X71164603Y-119271630D01*
X70929493Y-119190916D01*
X70684293Y-119150000D01*
X70435707Y-119150000D01*
X70190506Y-119190916D01*
X69955396Y-119271630D01*
X69955390Y-119271632D01*
X69736761Y-119389949D01*
X69689942Y-119426388D01*
X69689942Y-119426390D01*
X70389765Y-120126212D01*
X70347708Y-120137482D01*
X70222292Y-120209890D01*
X70119890Y-120312292D01*
X70047482Y-120437708D01*
X70036212Y-120479764D01*
X69336564Y-119780116D01*
X69236267Y-119933632D01*
X69136412Y-120161282D01*
X69075387Y-120402261D01*
X69075385Y-120402270D01*
X69054859Y-120649994D01*
X65565141Y-120649994D01*
X65544614Y-120402270D01*
X65544612Y-120402261D01*
X65483587Y-120161282D01*
X65383731Y-119933630D01*
X65283434Y-119780116D01*
X64583787Y-120479764D01*
X64572518Y-120437708D01*
X64500110Y-120312292D01*
X64397708Y-120209890D01*
X64272292Y-120137482D01*
X64230235Y-120126212D01*
X64930057Y-119426390D01*
X64930056Y-119426389D01*
X64883229Y-119389943D01*
X64664614Y-119271635D01*
X64664603Y-119271630D01*
X64429493Y-119190916D01*
X64184293Y-119150000D01*
X63935707Y-119150000D01*
X63690506Y-119190916D01*
X63455396Y-119271630D01*
X63455390Y-119271632D01*
X63236761Y-119389949D01*
X63189942Y-119426388D01*
X63189942Y-119426390D01*
X63889765Y-120126212D01*
X63847708Y-120137482D01*
X63722292Y-120209890D01*
X63619890Y-120312292D01*
X63547482Y-120437708D01*
X63536212Y-120479764D01*
X62836564Y-119780116D01*
X62736267Y-119933632D01*
X62636412Y-120161282D01*
X62575387Y-120402261D01*
X62575385Y-120402270D01*
X62554859Y-120649994D01*
X61195141Y-120649994D01*
X61174614Y-120402270D01*
X61174612Y-120402261D01*
X61113587Y-120161282D01*
X61013731Y-119933630D01*
X60913434Y-119780116D01*
X60213787Y-120479764D01*
X60202518Y-120437708D01*
X60130110Y-120312292D01*
X60027708Y-120209890D01*
X59902292Y-120137482D01*
X59860235Y-120126212D01*
X60560057Y-119426390D01*
X60560056Y-119426389D01*
X60513229Y-119389943D01*
X60294614Y-119271635D01*
X60294603Y-119271630D01*
X60059493Y-119190916D01*
X59814293Y-119150000D01*
X59565707Y-119150000D01*
X59320506Y-119190916D01*
X59085396Y-119271630D01*
X59085390Y-119271632D01*
X58866761Y-119389949D01*
X58819942Y-119426388D01*
X58819942Y-119426390D01*
X59519765Y-120126212D01*
X59477708Y-120137482D01*
X59352292Y-120209890D01*
X59249890Y-120312292D01*
X59177482Y-120437708D01*
X59166212Y-120479764D01*
X58466564Y-119780116D01*
X58366267Y-119933632D01*
X58266412Y-120161282D01*
X58205387Y-120402261D01*
X58205385Y-120402270D01*
X58184859Y-120649994D01*
X54695141Y-120649994D01*
X54674614Y-120402270D01*
X54674612Y-120402261D01*
X54613587Y-120161282D01*
X54513731Y-119933630D01*
X54413434Y-119780116D01*
X53713787Y-120479764D01*
X53702518Y-120437708D01*
X53630110Y-120312292D01*
X53527708Y-120209890D01*
X53402292Y-120137482D01*
X53360235Y-120126212D01*
X54060057Y-119426390D01*
X54060056Y-119426389D01*
X54013229Y-119389943D01*
X53794614Y-119271635D01*
X53794603Y-119271630D01*
X53559493Y-119190916D01*
X53314293Y-119150000D01*
X53065707Y-119150000D01*
X52820506Y-119190916D01*
X52585396Y-119271630D01*
X52585390Y-119271632D01*
X52366761Y-119389949D01*
X52319942Y-119426388D01*
X52319942Y-119426390D01*
X53019765Y-120126212D01*
X52977708Y-120137482D01*
X52852292Y-120209890D01*
X52749890Y-120312292D01*
X52677482Y-120437708D01*
X52666212Y-120479764D01*
X51966564Y-119780116D01*
X51866267Y-119933632D01*
X51766412Y-120161282D01*
X51705387Y-120402261D01*
X51705385Y-120402270D01*
X51684859Y-120649994D01*
X49514457Y-120649994D01*
X49420438Y-120387228D01*
X49252381Y-120031903D01*
X49193478Y-119933630D01*
X49050307Y-119694763D01*
X49050306Y-119694761D01*
X48816158Y-119379049D01*
X48816153Y-119379043D01*
X48552192Y-119087807D01*
X48260956Y-118823846D01*
X48212399Y-118787834D01*
X47945239Y-118589694D01*
X47918480Y-118573655D01*
X47608100Y-118387620D01*
X47252772Y-118219562D01*
X47252770Y-118219561D01*
X46882684Y-118087143D01*
X46501406Y-117991637D01*
X46501401Y-117991636D01*
X46501400Y-117991636D01*
X46357256Y-117970254D01*
X46112599Y-117933963D01*
X46112597Y-117933962D01*
X46112591Y-117933962D01*
X45720000Y-117914675D01*
X45327409Y-117933962D01*
X45327403Y-117933962D01*
X45327400Y-117933963D01*
X44938593Y-117991637D01*
X44557315Y-118087143D01*
X44187229Y-118219561D01*
X44187227Y-118219562D01*
X43831899Y-118387620D01*
X43494763Y-118589692D01*
X43179043Y-118823846D01*
X42887807Y-119087807D01*
X42623846Y-119379043D01*
X42389692Y-119694763D01*
X42187620Y-120031899D01*
X42019562Y-120387227D01*
X42019561Y-120387229D01*
X41887143Y-120757315D01*
X41791637Y-121138593D01*
X41735079Y-121519882D01*
X41733962Y-121527409D01*
X41714675Y-121920000D01*
X40640004Y-121920000D01*
X40640000Y-121919290D01*
X40640000Y-85089999D01*
X44364341Y-85089999D01*
X44364341Y-85090000D01*
X44384936Y-85325403D01*
X44384938Y-85325413D01*
X44446094Y-85553655D01*
X44446096Y-85553659D01*
X44446097Y-85553663D01*
X44483134Y-85633088D01*
X44545965Y-85767830D01*
X44545967Y-85767834D01*
X44681501Y-85961395D01*
X44681506Y-85961402D01*
X44848597Y-86128493D01*
X44848603Y-86128498D01*
X45034158Y-86258425D01*
X45077783Y-86313002D01*
X45084977Y-86382500D01*
X45053454Y-86444855D01*
X45034158Y-86461575D01*
X44848597Y-86591505D01*
X44681505Y-86758597D01*
X44545965Y-86952169D01*
X44545964Y-86952171D01*
X44446098Y-87166335D01*
X44446094Y-87166344D01*
X44384938Y-87394586D01*
X44384936Y-87394596D01*
X44364341Y-87629999D01*
X44364341Y-87630000D01*
X44384936Y-87865403D01*
X44384938Y-87865413D01*
X44446094Y-88093655D01*
X44446096Y-88093659D01*
X44446097Y-88093663D01*
X44520304Y-88252800D01*
X44545965Y-88307830D01*
X44545967Y-88307834D01*
X44681501Y-88501395D01*
X44681506Y-88501402D01*
X44848597Y-88668493D01*
X44848603Y-88668498D01*
X45034158Y-88798425D01*
X45077783Y-88853002D01*
X45084977Y-88922500D01*
X45053454Y-88984855D01*
X45034158Y-89001575D01*
X44848597Y-89131505D01*
X44681505Y-89298597D01*
X44545965Y-89492169D01*
X44545964Y-89492171D01*
X44446098Y-89706335D01*
X44446094Y-89706344D01*
X44384938Y-89934586D01*
X44384936Y-89934596D01*
X44364341Y-90169999D01*
X44364341Y-90170000D01*
X44384936Y-90405403D01*
X44384938Y-90405413D01*
X44446094Y-90633655D01*
X44446096Y-90633659D01*
X44446097Y-90633663D01*
X44498848Y-90746788D01*
X44545965Y-90847830D01*
X44545967Y-90847834D01*
X44681501Y-91041395D01*
X44681506Y-91041402D01*
X44848597Y-91208493D01*
X44848603Y-91208498D01*
X45034158Y-91338425D01*
X45077783Y-91393002D01*
X45084977Y-91462500D01*
X45053454Y-91524855D01*
X45034158Y-91541575D01*
X44848597Y-91671505D01*
X44681505Y-91838597D01*
X44545965Y-92032169D01*
X44545964Y-92032171D01*
X44446098Y-92246335D01*
X44446094Y-92246344D01*
X44384938Y-92474586D01*
X44384936Y-92474596D01*
X44364341Y-92709999D01*
X44364341Y-92710000D01*
X44384936Y-92945403D01*
X44384938Y-92945413D01*
X44446094Y-93173655D01*
X44446096Y-93173659D01*
X44446097Y-93173663D01*
X44487180Y-93261765D01*
X44545965Y-93387830D01*
X44545967Y-93387834D01*
X44681501Y-93581395D01*
X44681506Y-93581402D01*
X44848597Y-93748493D01*
X44848603Y-93748498D01*
X45034158Y-93878425D01*
X45077783Y-93933002D01*
X45084977Y-94002500D01*
X45053454Y-94064855D01*
X45034158Y-94081575D01*
X44848597Y-94211505D01*
X44681505Y-94378597D01*
X44545965Y-94572169D01*
X44545964Y-94572171D01*
X44446098Y-94786335D01*
X44446094Y-94786344D01*
X44384938Y-95014586D01*
X44384936Y-95014596D01*
X44364341Y-95249999D01*
X44364341Y-95250000D01*
X44384936Y-95485403D01*
X44384938Y-95485413D01*
X44446094Y-95713655D01*
X44446096Y-95713659D01*
X44446097Y-95713663D01*
X44530742Y-95895185D01*
X44545965Y-95927830D01*
X44545967Y-95927834D01*
X44595262Y-95998234D01*
X44677470Y-96115639D01*
X44681501Y-96121395D01*
X44681506Y-96121402D01*
X44848597Y-96288493D01*
X44848603Y-96288498D01*
X44855744Y-96293498D01*
X45005552Y-96398395D01*
X45034594Y-96418730D01*
X45078219Y-96473307D01*
X45085413Y-96542805D01*
X45053890Y-96605160D01*
X45034595Y-96621880D01*
X44848922Y-96751890D01*
X44848920Y-96751891D01*
X44681891Y-96918920D01*
X44681886Y-96918926D01*
X44546400Y-97112420D01*
X44546399Y-97112422D01*
X44446570Y-97326507D01*
X44446567Y-97326513D01*
X44389364Y-97539999D01*
X44389364Y-97540000D01*
X45286988Y-97540000D01*
X45254075Y-97597007D01*
X45220000Y-97724174D01*
X45220000Y-97855826D01*
X45254075Y-97982993D01*
X45286988Y-98040000D01*
X44389364Y-98040000D01*
X44446567Y-98253486D01*
X44446570Y-98253492D01*
X44546399Y-98467578D01*
X44681894Y-98661082D01*
X44848917Y-98828105D01*
X45034595Y-98958119D01*
X45078219Y-99012696D01*
X45085412Y-99082195D01*
X45053890Y-99144549D01*
X45034595Y-99161269D01*
X44848594Y-99291508D01*
X44681505Y-99458597D01*
X44545965Y-99652169D01*
X44545964Y-99652171D01*
X44446098Y-99866335D01*
X44446094Y-99866344D01*
X44384938Y-100094586D01*
X44384936Y-100094596D01*
X44364341Y-100329999D01*
X44364341Y-100330000D01*
X44384936Y-100565403D01*
X44384938Y-100565413D01*
X44446094Y-100793655D01*
X44446096Y-100793659D01*
X44446097Y-100793663D01*
X44512214Y-100935450D01*
X44545965Y-101007830D01*
X44545967Y-101007834D01*
X44681501Y-101201395D01*
X44681506Y-101201402D01*
X44848597Y-101368493D01*
X44848603Y-101368498D01*
X45034158Y-101498425D01*
X45077783Y-101553002D01*
X45084977Y-101622500D01*
X45053454Y-101684855D01*
X45034158Y-101701575D01*
X44848597Y-101831505D01*
X44681505Y-101998597D01*
X44545965Y-102192169D01*
X44545964Y-102192171D01*
X44446098Y-102406335D01*
X44446094Y-102406344D01*
X44384938Y-102634586D01*
X44384936Y-102634596D01*
X44364341Y-102869999D01*
X44364341Y-102870000D01*
X44384936Y-103105403D01*
X44384938Y-103105413D01*
X44446094Y-103333655D01*
X44446096Y-103333659D01*
X44446097Y-103333663D01*
X44521563Y-103495500D01*
X44545965Y-103547830D01*
X44545967Y-103547834D01*
X44681501Y-103741395D01*
X44681506Y-103741402D01*
X44848597Y-103908493D01*
X44848603Y-103908498D01*
X45034158Y-104038425D01*
X45077783Y-104093002D01*
X45084977Y-104162500D01*
X45053454Y-104224855D01*
X45034158Y-104241575D01*
X44848597Y-104371505D01*
X44681505Y-104538597D01*
X44545965Y-104732169D01*
X44545964Y-104732171D01*
X44446098Y-104946335D01*
X44446094Y-104946344D01*
X44384938Y-105174586D01*
X44384936Y-105174596D01*
X44364341Y-105409999D01*
X44364341Y-105410000D01*
X44384936Y-105645403D01*
X44384938Y-105645413D01*
X44446094Y-105873655D01*
X44446096Y-105873659D01*
X44446097Y-105873663D01*
X44530742Y-106055185D01*
X44545965Y-106087830D01*
X44545967Y-106087834D01*
X44627395Y-106204124D01*
X44681505Y-106281401D01*
X44848599Y-106448495D01*
X44937151Y-106510500D01*
X45042165Y-106584032D01*
X45042167Y-106584033D01*
X45042170Y-106584035D01*
X45256337Y-106683903D01*
X45484592Y-106745063D01*
X45672918Y-106761539D01*
X45719999Y-106765659D01*
X45720000Y-106765659D01*
X45720001Y-106765659D01*
X45759234Y-106762226D01*
X45955408Y-106745063D01*
X46183663Y-106683903D01*
X46282696Y-106637722D01*
X46351772Y-106627231D01*
X46415556Y-106655751D01*
X46453796Y-106714227D01*
X46459100Y-106750105D01*
X46459100Y-110106211D01*
X46483135Y-110227044D01*
X46483140Y-110227061D01*
X46530285Y-110340880D01*
X46530290Y-110340889D01*
X46564514Y-110392107D01*
X46564515Y-110392109D01*
X46598740Y-110443331D01*
X46598741Y-110443332D01*
X46598742Y-110443333D01*
X46685867Y-110530458D01*
X46685868Y-110530458D01*
X46692935Y-110537525D01*
X46692934Y-110537525D01*
X46692938Y-110537528D01*
X51726338Y-115570929D01*
X51759823Y-115632252D01*
X51758863Y-115689050D01*
X51704892Y-115902174D01*
X51704890Y-115902187D01*
X51684357Y-116149994D01*
X51684357Y-116150005D01*
X51704890Y-116397812D01*
X51704892Y-116397824D01*
X51765936Y-116638881D01*
X51865826Y-116866606D01*
X52001833Y-117074782D01*
X52001836Y-117074785D01*
X52170256Y-117257738D01*
X52366491Y-117410474D01*
X52585190Y-117528828D01*
X52820386Y-117609571D01*
X53065665Y-117650500D01*
X53314335Y-117650500D01*
X53559614Y-117609571D01*
X53794810Y-117528828D01*
X54013509Y-117410474D01*
X54209744Y-117257738D01*
X54378164Y-117074785D01*
X54514173Y-116866607D01*
X54614063Y-116638881D01*
X54675108Y-116397821D01*
X54682671Y-116306552D01*
X54695643Y-116150005D01*
X54695643Y-116149994D01*
X58184357Y-116149994D01*
X58184357Y-116150005D01*
X58204890Y-116397812D01*
X58204892Y-116397824D01*
X58265936Y-116638881D01*
X58365826Y-116866606D01*
X58501833Y-117074782D01*
X58501836Y-117074785D01*
X58670256Y-117257738D01*
X58866491Y-117410474D01*
X59085190Y-117528828D01*
X59320386Y-117609571D01*
X59565665Y-117650500D01*
X59814335Y-117650500D01*
X60059614Y-117609571D01*
X60294810Y-117528828D01*
X60513509Y-117410474D01*
X60709744Y-117257738D01*
X60878164Y-117074785D01*
X61014173Y-116866607D01*
X61114063Y-116638881D01*
X61175108Y-116397821D01*
X61182671Y-116306552D01*
X61195643Y-116150005D01*
X61195643Y-116149994D01*
X61175109Y-115902187D01*
X61175107Y-115902175D01*
X61114063Y-115661118D01*
X61014173Y-115433393D01*
X60878166Y-115225217D01*
X60768891Y-115106513D01*
X60709744Y-115042262D01*
X60513509Y-114889526D01*
X60513507Y-114889525D01*
X60513506Y-114889524D01*
X60294811Y-114771172D01*
X60294802Y-114771169D01*
X60059616Y-114690429D01*
X59814335Y-114649500D01*
X59565665Y-114649500D01*
X59320383Y-114690429D01*
X59085197Y-114771169D01*
X59085188Y-114771172D01*
X58866493Y-114889524D01*
X58670257Y-115042261D01*
X58501833Y-115225217D01*
X58365826Y-115433393D01*
X58265936Y-115661118D01*
X58204892Y-115902175D01*
X58204890Y-115902187D01*
X58184357Y-116149994D01*
X54695643Y-116149994D01*
X54675109Y-115902187D01*
X54675107Y-115902175D01*
X54614063Y-115661118D01*
X54514173Y-115433393D01*
X54378166Y-115225217D01*
X54268891Y-115106513D01*
X54209744Y-115042262D01*
X54013509Y-114889526D01*
X54013507Y-114889525D01*
X54013506Y-114889524D01*
X53794811Y-114771172D01*
X53794802Y-114771169D01*
X53559616Y-114690429D01*
X53314335Y-114649500D01*
X53065665Y-114649500D01*
X52820386Y-114690428D01*
X52740713Y-114717780D01*
X52670914Y-114720929D01*
X52612770Y-114688179D01*
X49034574Y-111109983D01*
X62149500Y-111109983D01*
X62149500Y-112410001D01*
X62149501Y-112410018D01*
X62160000Y-112512796D01*
X62160001Y-112512799D01*
X62215185Y-112679331D01*
X62215186Y-112679334D01*
X62307288Y-112828656D01*
X62431344Y-112952712D01*
X62580666Y-113044814D01*
X62747203Y-113099999D01*
X62849991Y-113110500D01*
X63310500Y-113110499D01*
X63377539Y-113130183D01*
X63423294Y-113182987D01*
X63434500Y-113234499D01*
X63434500Y-114708479D01*
X63414815Y-114775518D01*
X63369519Y-114817533D01*
X63236496Y-114889522D01*
X63236494Y-114889523D01*
X63040257Y-115042261D01*
X62871833Y-115225217D01*
X62735826Y-115433393D01*
X62635936Y-115661118D01*
X62574892Y-115902175D01*
X62574890Y-115902187D01*
X62554357Y-116149994D01*
X62554357Y-116150005D01*
X62574890Y-116397812D01*
X62574892Y-116397824D01*
X62635936Y-116638881D01*
X62735826Y-116866606D01*
X62871833Y-117074782D01*
X62871836Y-117074785D01*
X63040256Y-117257738D01*
X63236491Y-117410474D01*
X63455190Y-117528828D01*
X63690386Y-117609571D01*
X63935665Y-117650500D01*
X64184335Y-117650500D01*
X64429614Y-117609571D01*
X64664810Y-117528828D01*
X64883509Y-117410474D01*
X65079744Y-117257738D01*
X65248164Y-117074785D01*
X65384173Y-116866607D01*
X65384175Y-116866603D01*
X65391595Y-116849689D01*
X65436551Y-116796203D01*
X65503287Y-116775514D01*
X65505150Y-116775500D01*
X69114850Y-116775500D01*
X69181889Y-116795185D01*
X69227644Y-116847989D01*
X69228405Y-116849689D01*
X69235824Y-116866603D01*
X69371833Y-117074782D01*
X69371836Y-117074785D01*
X69540256Y-117257738D01*
X69736491Y-117410474D01*
X69955190Y-117528828D01*
X70190386Y-117609571D01*
X70435665Y-117650500D01*
X70684335Y-117650500D01*
X70929614Y-117609571D01*
X71164810Y-117528828D01*
X71383509Y-117410474D01*
X71579744Y-117257738D01*
X71748164Y-117074785D01*
X71884173Y-116866607D01*
X71984063Y-116638881D01*
X72045108Y-116397821D01*
X72052671Y-116306552D01*
X72065643Y-116150005D01*
X72065643Y-116149994D01*
X73274357Y-116149994D01*
X73274357Y-116150005D01*
X73294890Y-116397812D01*
X73294892Y-116397824D01*
X73355936Y-116638881D01*
X73455826Y-116866606D01*
X73591833Y-117074782D01*
X73591836Y-117074785D01*
X73760256Y-117257738D01*
X73956491Y-117410474D01*
X74175190Y-117528828D01*
X74410386Y-117609571D01*
X74655665Y-117650500D01*
X74904335Y-117650500D01*
X75149614Y-117609571D01*
X75384810Y-117528828D01*
X75603509Y-117410474D01*
X75799744Y-117257738D01*
X75968164Y-117074785D01*
X76104173Y-116866607D01*
X76104175Y-116866603D01*
X76111595Y-116849689D01*
X76156551Y-116796203D01*
X76223287Y-116775514D01*
X76225150Y-116775500D01*
X79834850Y-116775500D01*
X79901889Y-116795185D01*
X79947644Y-116847989D01*
X79948405Y-116849689D01*
X79955824Y-116866603D01*
X80091833Y-117074782D01*
X80091836Y-117074785D01*
X80260256Y-117257738D01*
X80456491Y-117410474D01*
X80675190Y-117528828D01*
X80910386Y-117609571D01*
X81155665Y-117650500D01*
X81404335Y-117650500D01*
X81649614Y-117609571D01*
X81884810Y-117528828D01*
X82103509Y-117410474D01*
X82299744Y-117257738D01*
X82468164Y-117074785D01*
X82604173Y-116866607D01*
X82704063Y-116638881D01*
X82765108Y-116397821D01*
X82772671Y-116306552D01*
X82785643Y-116150005D01*
X82785643Y-116149994D01*
X82765109Y-115902187D01*
X82765107Y-115902175D01*
X82704063Y-115661118D01*
X82604173Y-115433393D01*
X82468166Y-115225217D01*
X82358891Y-115106513D01*
X82299744Y-115042262D01*
X82103509Y-114889526D01*
X82103507Y-114889525D01*
X82103506Y-114889524D01*
X81884811Y-114771172D01*
X81884802Y-114771169D01*
X81649616Y-114690429D01*
X81404335Y-114649500D01*
X81155665Y-114649500D01*
X80910383Y-114690429D01*
X80675197Y-114771169D01*
X80675188Y-114771172D01*
X80456493Y-114889524D01*
X80260257Y-115042261D01*
X80091833Y-115225217D01*
X79955824Y-115433396D01*
X79948405Y-115450311D01*
X79903449Y-115503797D01*
X79836713Y-115524486D01*
X79834850Y-115524500D01*
X76225150Y-115524500D01*
X76158111Y-115504815D01*
X76112356Y-115452011D01*
X76111595Y-115450311D01*
X76104175Y-115433396D01*
X75968166Y-115225217D01*
X75858891Y-115106513D01*
X75799744Y-115042262D01*
X75603509Y-114889526D01*
X75603508Y-114889525D01*
X75603505Y-114889523D01*
X75603503Y-114889522D01*
X75470481Y-114817533D01*
X75420891Y-114768313D01*
X75405500Y-114708479D01*
X75405500Y-113234499D01*
X75425185Y-113167460D01*
X75477989Y-113121705D01*
X75529500Y-113110499D01*
X75580002Y-113110499D01*
X75580008Y-113110499D01*
X75682797Y-113099999D01*
X75849334Y-113044814D01*
X75998656Y-112952712D01*
X76122712Y-112828656D01*
X76214814Y-112679334D01*
X76269999Y-112512797D01*
X76280500Y-112410009D01*
X76280499Y-111109992D01*
X76269999Y-111007203D01*
X76214814Y-110840666D01*
X76122712Y-110691344D01*
X75998656Y-110567288D01*
X75849334Y-110475186D01*
X75682797Y-110420001D01*
X75682795Y-110420000D01*
X75580010Y-110409500D01*
X74279998Y-110409500D01*
X74279981Y-110409501D01*
X74177203Y-110420000D01*
X74177200Y-110420001D01*
X74010668Y-110475185D01*
X74010663Y-110475187D01*
X73861342Y-110567289D01*
X73737289Y-110691342D01*
X73645187Y-110840663D01*
X73645186Y-110840666D01*
X73590001Y-111007203D01*
X73590001Y-111007204D01*
X73590000Y-111007204D01*
X73579500Y-111109983D01*
X73579500Y-112410001D01*
X73579501Y-112410018D01*
X73590000Y-112512796D01*
X73590001Y-112512799D01*
X73645185Y-112679331D01*
X73645186Y-112679334D01*
X73737288Y-112828656D01*
X73861344Y-112952712D01*
X73986647Y-113029999D01*
X74010668Y-113044815D01*
X74031110Y-113051588D01*
X74069502Y-113064310D01*
X74126947Y-113104081D01*
X74153772Y-113168596D01*
X74154500Y-113182016D01*
X74154500Y-114708479D01*
X74134815Y-114775518D01*
X74089519Y-114817533D01*
X73956496Y-114889522D01*
X73956494Y-114889523D01*
X73760257Y-115042261D01*
X73591833Y-115225217D01*
X73455826Y-115433393D01*
X73355936Y-115661118D01*
X73294892Y-115902175D01*
X73294890Y-115902187D01*
X73274357Y-116149994D01*
X72065643Y-116149994D01*
X72045109Y-115902187D01*
X72045107Y-115902175D01*
X71984063Y-115661118D01*
X71884173Y-115433393D01*
X71748166Y-115225217D01*
X71638891Y-115106513D01*
X71579744Y-115042262D01*
X71383509Y-114889526D01*
X71383507Y-114889525D01*
X71383506Y-114889524D01*
X71164811Y-114771172D01*
X71164802Y-114771169D01*
X70929616Y-114690429D01*
X70684335Y-114649500D01*
X70435665Y-114649500D01*
X70190383Y-114690429D01*
X69955197Y-114771169D01*
X69955188Y-114771172D01*
X69736493Y-114889524D01*
X69540257Y-115042261D01*
X69371833Y-115225217D01*
X69235824Y-115433396D01*
X69228405Y-115450311D01*
X69183449Y-115503797D01*
X69116713Y-115524486D01*
X69114850Y-115524500D01*
X65505150Y-115524500D01*
X65438111Y-115504815D01*
X65392356Y-115452011D01*
X65391595Y-115450311D01*
X65384175Y-115433396D01*
X65248166Y-115225217D01*
X65138891Y-115106513D01*
X65079744Y-115042262D01*
X64883509Y-114889526D01*
X64883508Y-114889525D01*
X64883505Y-114889523D01*
X64883503Y-114889522D01*
X64750481Y-114817533D01*
X64700891Y-114768313D01*
X64685500Y-114708479D01*
X64685500Y-112875514D01*
X64703960Y-112810419D01*
X64784814Y-112679334D01*
X64839999Y-112512797D01*
X64850500Y-112410009D01*
X64850499Y-111109992D01*
X64839999Y-111007203D01*
X64784814Y-110840666D01*
X64692712Y-110691344D01*
X64568656Y-110567288D01*
X64419334Y-110475186D01*
X64252797Y-110420001D01*
X64252795Y-110420000D01*
X64150010Y-110409500D01*
X62849998Y-110409500D01*
X62849981Y-110409501D01*
X62747203Y-110420000D01*
X62747200Y-110420001D01*
X62580668Y-110475185D01*
X62580663Y-110475187D01*
X62431342Y-110567289D01*
X62307289Y-110691342D01*
X62215187Y-110840663D01*
X62215186Y-110840666D01*
X62160001Y-111007203D01*
X62160001Y-111007204D01*
X62160000Y-111007204D01*
X62149500Y-111109983D01*
X49034574Y-111109983D01*
X47746419Y-109821828D01*
X47712934Y-109760505D01*
X47710100Y-109734147D01*
X47710100Y-92413441D01*
X47710101Y-92413420D01*
X47710101Y-92284091D01*
X47686064Y-92163253D01*
X47686063Y-92163251D01*
X47686063Y-92163249D01*
X47682932Y-92155690D01*
X47673621Y-92133211D01*
X47663401Y-92108537D01*
X47638912Y-92049415D01*
X47638910Y-92049412D01*
X47638908Y-92049408D01*
X47570458Y-91946967D01*
X47570455Y-91946963D01*
X46793519Y-91170028D01*
X46760034Y-91108705D01*
X46765018Y-91039014D01*
X46779622Y-91011228D01*
X46894035Y-90847830D01*
X46993903Y-90633663D01*
X47055063Y-90405408D01*
X47075659Y-90170000D01*
X47055063Y-89934592D01*
X47003556Y-89742363D01*
X46993905Y-89706344D01*
X46993904Y-89706343D01*
X46993903Y-89706337D01*
X46894035Y-89492171D01*
X46866657Y-89453070D01*
X46758494Y-89298597D01*
X46591402Y-89131506D01*
X46591396Y-89131501D01*
X46405842Y-89001575D01*
X46362217Y-88946998D01*
X46355023Y-88877500D01*
X46386546Y-88815145D01*
X46405842Y-88798425D01*
X46455180Y-88763878D01*
X46591401Y-88668495D01*
X46758495Y-88501401D01*
X46894035Y-88307830D01*
X46993903Y-88093663D01*
X47055063Y-87865408D01*
X47075659Y-87630000D01*
X47055063Y-87394592D01*
X46993903Y-87166337D01*
X46894035Y-86952171D01*
X46888624Y-86944442D01*
X46758494Y-86758597D01*
X46591402Y-86591506D01*
X46591396Y-86591501D01*
X46405842Y-86461575D01*
X46362217Y-86406998D01*
X46355023Y-86337500D01*
X46386546Y-86275145D01*
X46405842Y-86258425D01*
X46484467Y-86203371D01*
X46591401Y-86128495D01*
X46758495Y-85961401D01*
X46894035Y-85767830D01*
X46993903Y-85553663D01*
X47055063Y-85325408D01*
X47075659Y-85090000D01*
X47055063Y-84854592D01*
X46993903Y-84626337D01*
X46894035Y-84412171D01*
X46866656Y-84373070D01*
X46758496Y-84218600D01*
X46758495Y-84218599D01*
X46636567Y-84096671D01*
X46603084Y-84035351D01*
X46608068Y-83965659D01*
X46649939Y-83909725D01*
X46680915Y-83892810D01*
X46812331Y-83843796D01*
X46927546Y-83757546D01*
X47013796Y-83642331D01*
X47064091Y-83507483D01*
X47070500Y-83447873D01*
X47070499Y-81652128D01*
X47065299Y-81603757D01*
X47064091Y-81592516D01*
X47013797Y-81457671D01*
X47013793Y-81457664D01*
X46927547Y-81342455D01*
X46927544Y-81342452D01*
X46812335Y-81256206D01*
X46812328Y-81256202D01*
X46677482Y-81205908D01*
X46677483Y-81205908D01*
X46617883Y-81199501D01*
X46617881Y-81199500D01*
X46617873Y-81199500D01*
X46617864Y-81199500D01*
X44822129Y-81199500D01*
X44822123Y-81199501D01*
X44762516Y-81205908D01*
X44627671Y-81256202D01*
X44627664Y-81256206D01*
X44512455Y-81342452D01*
X44512452Y-81342455D01*
X44426206Y-81457664D01*
X44426202Y-81457671D01*
X44375908Y-81592517D01*
X44369501Y-81652116D01*
X44369501Y-81652123D01*
X44369500Y-81652135D01*
X44369500Y-83447870D01*
X44369501Y-83447876D01*
X44375908Y-83507483D01*
X44426202Y-83642328D01*
X44426206Y-83642335D01*
X44512452Y-83757544D01*
X44512455Y-83757547D01*
X44627664Y-83843793D01*
X44627671Y-83843797D01*
X44759081Y-83892810D01*
X44815015Y-83934681D01*
X44839432Y-84000145D01*
X44824580Y-84068418D01*
X44803430Y-84096673D01*
X44681503Y-84218600D01*
X44545965Y-84412169D01*
X44545964Y-84412171D01*
X44446098Y-84626335D01*
X44446094Y-84626344D01*
X44384938Y-84854586D01*
X44384936Y-84854596D01*
X44364341Y-85089999D01*
X40640000Y-85089999D01*
X40640000Y-71965920D01*
X46908799Y-71965920D01*
X46937640Y-72110907D01*
X46937643Y-72110917D01*
X46994213Y-72247490D01*
X46994214Y-72247491D01*
X46994216Y-72247495D01*
X47015811Y-72279814D01*
X47059699Y-72345499D01*
X47076351Y-72370420D01*
X47076352Y-72370421D01*
X47629949Y-72924016D01*
X47734484Y-73028551D01*
X47734487Y-73028553D01*
X47734488Y-73028554D01*
X47857403Y-73110683D01*
X47857406Y-73110685D01*
X47913979Y-73134118D01*
X47913980Y-73134118D01*
X47993988Y-73167259D01*
X48110141Y-73190363D01*
X48129368Y-73194187D01*
X48138981Y-73196100D01*
X48138982Y-73196100D01*
X48138983Y-73196100D01*
X48286818Y-73196100D01*
X48599900Y-73196100D01*
X48666939Y-73215785D01*
X48712694Y-73268589D01*
X48723900Y-73320100D01*
X48723900Y-99078318D01*
X48723900Y-99078320D01*
X48723899Y-99078320D01*
X48752740Y-99223307D01*
X48752743Y-99223317D01*
X48809312Y-99359888D01*
X48809320Y-99359902D01*
X48835252Y-99398711D01*
X48835253Y-99398714D01*
X48891446Y-99482814D01*
X48891452Y-99482821D01*
X49427130Y-100018497D01*
X49460615Y-100079820D01*
X49462977Y-100116985D01*
X49444341Y-100329997D01*
X49444341Y-100330000D01*
X49464936Y-100565403D01*
X49464938Y-100565413D01*
X49526094Y-100793655D01*
X49526096Y-100793659D01*
X49526097Y-100793663D01*
X49592214Y-100935450D01*
X49625965Y-101007830D01*
X49625967Y-101007834D01*
X49761501Y-101201395D01*
X49761506Y-101201402D01*
X49928597Y-101368493D01*
X49928603Y-101368498D01*
X50114158Y-101498425D01*
X50157783Y-101553002D01*
X50164977Y-101622500D01*
X50133454Y-101684855D01*
X50114158Y-101701575D01*
X49928597Y-101831505D01*
X49761505Y-101998597D01*
X49625965Y-102192169D01*
X49625964Y-102192171D01*
X49526098Y-102406335D01*
X49526094Y-102406344D01*
X49464938Y-102634586D01*
X49464936Y-102634596D01*
X49444341Y-102869999D01*
X49444341Y-102870000D01*
X49464936Y-103105403D01*
X49464938Y-103105413D01*
X49526094Y-103333655D01*
X49526096Y-103333659D01*
X49526097Y-103333663D01*
X49601563Y-103495500D01*
X49625965Y-103547830D01*
X49625967Y-103547834D01*
X49761501Y-103741395D01*
X49761506Y-103741402D01*
X49928597Y-103908493D01*
X49928603Y-103908498D01*
X50114158Y-104038425D01*
X50157783Y-104093002D01*
X50164977Y-104162500D01*
X50133454Y-104224855D01*
X50114158Y-104241575D01*
X49928597Y-104371505D01*
X49761505Y-104538597D01*
X49625965Y-104732169D01*
X49625964Y-104732171D01*
X49526098Y-104946335D01*
X49526094Y-104946344D01*
X49464938Y-105174586D01*
X49464936Y-105174596D01*
X49444341Y-105409999D01*
X49444341Y-105410000D01*
X49464936Y-105645403D01*
X49464938Y-105645413D01*
X49526094Y-105873655D01*
X49526096Y-105873659D01*
X49526097Y-105873663D01*
X49610742Y-106055185D01*
X49625965Y-106087830D01*
X49625967Y-106087834D01*
X49707395Y-106204124D01*
X49761505Y-106281401D01*
X49928599Y-106448495D01*
X50017151Y-106510500D01*
X50122165Y-106584032D01*
X50122167Y-106584033D01*
X50122170Y-106584035D01*
X50336337Y-106683903D01*
X50564592Y-106745063D01*
X50752918Y-106761539D01*
X50799999Y-106765659D01*
X50800000Y-106765659D01*
X50800001Y-106765659D01*
X50839234Y-106762226D01*
X51035408Y-106745063D01*
X51263663Y-106683903D01*
X51477830Y-106584035D01*
X51671401Y-106448495D01*
X51838495Y-106281401D01*
X51974035Y-106087830D01*
X52045308Y-105934986D01*
X55025001Y-105934986D01*
X55035494Y-106037697D01*
X55090641Y-106204119D01*
X55090643Y-106204124D01*
X55182684Y-106353345D01*
X55306654Y-106477315D01*
X55455875Y-106569356D01*
X55455880Y-106569358D01*
X55622302Y-106624505D01*
X55622309Y-106624506D01*
X55725019Y-106634999D01*
X55862499Y-106634999D01*
X55862500Y-106634998D01*
X55862500Y-105660000D01*
X55025001Y-105660000D01*
X55025001Y-105934986D01*
X52045308Y-105934986D01*
X52073903Y-105873663D01*
X52135063Y-105645408D01*
X52155659Y-105410000D01*
X52135063Y-105174592D01*
X52073903Y-104946337D01*
X52045307Y-104885013D01*
X55025000Y-104885013D01*
X55025000Y-105160000D01*
X55862500Y-105160000D01*
X55862500Y-104185000D01*
X55725027Y-104185000D01*
X55725012Y-104185001D01*
X55622302Y-104195494D01*
X55455880Y-104250641D01*
X55455875Y-104250643D01*
X55306654Y-104342684D01*
X55182684Y-104466654D01*
X55090643Y-104615875D01*
X55090641Y-104615880D01*
X55035494Y-104782302D01*
X55035493Y-104782309D01*
X55025000Y-104885013D01*
X52045307Y-104885013D01*
X51974035Y-104732171D01*
X51946657Y-104693070D01*
X51838494Y-104538597D01*
X51671402Y-104371506D01*
X51671396Y-104371501D01*
X51485842Y-104241575D01*
X51442217Y-104186998D01*
X51435023Y-104117500D01*
X51466546Y-104055145D01*
X51485842Y-104038425D01*
X51549022Y-103994186D01*
X51671401Y-103908495D01*
X51838495Y-103741401D01*
X51974035Y-103547830D01*
X52073903Y-103333663D01*
X52135063Y-103105408D01*
X52155659Y-102870000D01*
X52135063Y-102634592D01*
X52073903Y-102406337D01*
X51974035Y-102192171D01*
X51952267Y-102161082D01*
X51838494Y-101998597D01*
X51671402Y-101831506D01*
X51671396Y-101831501D01*
X51485842Y-101701575D01*
X51442217Y-101646998D01*
X51435023Y-101577500D01*
X51466546Y-101515145D01*
X51485842Y-101498425D01*
X51539100Y-101461133D01*
X51671401Y-101368495D01*
X51838495Y-101201401D01*
X51974035Y-101007830D01*
X52045308Y-100854986D01*
X55025001Y-100854986D01*
X55035494Y-100957697D01*
X55090641Y-101124119D01*
X55090643Y-101124124D01*
X55182684Y-101273345D01*
X55306654Y-101397315D01*
X55455875Y-101489356D01*
X55455880Y-101489358D01*
X55622302Y-101544505D01*
X55622309Y-101544506D01*
X55725019Y-101554999D01*
X55862499Y-101554999D01*
X55862500Y-101554998D01*
X55862500Y-100580000D01*
X55025001Y-100580000D01*
X55025001Y-100854986D01*
X52045308Y-100854986D01*
X52073903Y-100793663D01*
X52135063Y-100565408D01*
X52155659Y-100330000D01*
X52135063Y-100094592D01*
X52073903Y-99866337D01*
X52045307Y-99805013D01*
X55025000Y-99805013D01*
X55025000Y-100080000D01*
X55862500Y-100080000D01*
X55862500Y-99105000D01*
X55725027Y-99105000D01*
X55725012Y-99105001D01*
X55622302Y-99115494D01*
X55455880Y-99170641D01*
X55455875Y-99170643D01*
X55306654Y-99262684D01*
X55182684Y-99386654D01*
X55090643Y-99535875D01*
X55090641Y-99535880D01*
X55035494Y-99702302D01*
X55035493Y-99702309D01*
X55025000Y-99805013D01*
X52045307Y-99805013D01*
X51974035Y-99652171D01*
X51965083Y-99639385D01*
X51838494Y-99458597D01*
X51671402Y-99291506D01*
X51671401Y-99291505D01*
X51498792Y-99170643D01*
X51485405Y-99161269D01*
X51441781Y-99106692D01*
X51434588Y-99037193D01*
X51466110Y-98974839D01*
X51485405Y-98958119D01*
X51671082Y-98828105D01*
X51838105Y-98661082D01*
X51973600Y-98467578D01*
X52073429Y-98253492D01*
X52073432Y-98253486D01*
X52130636Y-98040000D01*
X51233012Y-98040000D01*
X51265925Y-97982993D01*
X51300000Y-97855826D01*
X51300000Y-97724174D01*
X51265925Y-97597007D01*
X51233012Y-97540000D01*
X52130636Y-97540000D01*
X52130635Y-97539999D01*
X52073432Y-97326513D01*
X52073429Y-97326507D01*
X51973600Y-97112422D01*
X51973599Y-97112420D01*
X51838113Y-96918926D01*
X51838108Y-96918920D01*
X51671078Y-96751890D01*
X51485405Y-96621879D01*
X51441780Y-96567302D01*
X51434588Y-96497804D01*
X51466110Y-96435449D01*
X51485406Y-96418730D01*
X51485842Y-96418425D01*
X51671401Y-96288495D01*
X51838495Y-96121401D01*
X51974035Y-95927830D01*
X52073903Y-95713663D01*
X52135063Y-95485408D01*
X52155659Y-95250000D01*
X52135063Y-95014592D01*
X52073903Y-94786337D01*
X51974035Y-94572171D01*
X51966741Y-94561753D01*
X51838494Y-94378597D01*
X51671402Y-94211506D01*
X51671396Y-94211501D01*
X51485842Y-94081575D01*
X51442217Y-94026998D01*
X51435023Y-93957500D01*
X51466546Y-93895145D01*
X51485842Y-93878425D01*
X51539100Y-93841133D01*
X51671401Y-93748495D01*
X51838495Y-93581401D01*
X51974035Y-93387830D01*
X52073903Y-93173663D01*
X52135063Y-92945408D01*
X52155659Y-92710000D01*
X52135063Y-92474592D01*
X52073903Y-92246337D01*
X51974035Y-92032171D01*
X51946657Y-91993070D01*
X51838494Y-91838597D01*
X51671402Y-91671506D01*
X51671396Y-91671501D01*
X51485842Y-91541575D01*
X51442217Y-91486998D01*
X51435023Y-91417500D01*
X51466546Y-91355145D01*
X51485842Y-91338425D01*
X51578801Y-91273334D01*
X51671401Y-91208495D01*
X51838495Y-91041401D01*
X51974035Y-90847830D01*
X52073903Y-90633663D01*
X52135063Y-90405408D01*
X52155659Y-90170000D01*
X52135063Y-89934592D01*
X52083556Y-89742363D01*
X52073905Y-89706344D01*
X52073904Y-89706343D01*
X52073903Y-89706337D01*
X51974035Y-89492171D01*
X51946657Y-89453070D01*
X51838494Y-89298597D01*
X51671402Y-89131506D01*
X51671396Y-89131501D01*
X51485842Y-89001575D01*
X51442217Y-88946998D01*
X51435023Y-88877500D01*
X51466546Y-88815145D01*
X51485842Y-88798425D01*
X51535180Y-88763878D01*
X51671401Y-88668495D01*
X51838495Y-88501401D01*
X51974035Y-88307830D01*
X52073903Y-88093663D01*
X52135063Y-87865408D01*
X52155659Y-87630000D01*
X52135063Y-87394592D01*
X52073903Y-87166337D01*
X51974035Y-86952171D01*
X51968624Y-86944442D01*
X51838494Y-86758597D01*
X51671402Y-86591506D01*
X51671396Y-86591501D01*
X51485842Y-86461575D01*
X51442217Y-86406998D01*
X51435023Y-86337500D01*
X51466546Y-86275145D01*
X51485842Y-86258425D01*
X51564467Y-86203371D01*
X51671401Y-86128495D01*
X51838495Y-85961401D01*
X51974035Y-85767830D01*
X52073903Y-85553663D01*
X52135063Y-85325408D01*
X52155659Y-85090000D01*
X52135063Y-84854592D01*
X52073903Y-84626337D01*
X51974035Y-84412171D01*
X51946656Y-84373070D01*
X51838496Y-84218600D01*
X51838495Y-84218599D01*
X51716567Y-84096671D01*
X51683084Y-84035351D01*
X51688068Y-83965659D01*
X51729939Y-83909725D01*
X51760915Y-83892810D01*
X51892331Y-83843796D01*
X52007546Y-83757546D01*
X52093796Y-83642331D01*
X52144091Y-83507483D01*
X52150500Y-83447873D01*
X52150499Y-81652128D01*
X52145299Y-81603757D01*
X52144091Y-81592516D01*
X52093797Y-81457671D01*
X52093793Y-81457664D01*
X52007547Y-81342455D01*
X52007544Y-81342452D01*
X51892335Y-81256206D01*
X51892328Y-81256202D01*
X51757482Y-81205908D01*
X51757483Y-81205908D01*
X51697883Y-81199501D01*
X51697881Y-81199500D01*
X51697873Y-81199500D01*
X51697865Y-81199500D01*
X50348900Y-81199500D01*
X50281861Y-81179815D01*
X50236106Y-81127011D01*
X50224900Y-81075500D01*
X50224900Y-72807828D01*
X50244585Y-72740789D01*
X50261215Y-72720151D01*
X50599548Y-72381817D01*
X50660871Y-72348333D01*
X50687229Y-72345499D01*
X51187502Y-72345499D01*
X51187508Y-72345499D01*
X51290297Y-72334999D01*
X51456834Y-72279814D01*
X51606156Y-72187712D01*
X51730212Y-72063656D01*
X51822314Y-71914334D01*
X51877499Y-71747797D01*
X51878102Y-71741895D01*
X51904500Y-71677204D01*
X51961682Y-71637054D01*
X52001460Y-71630500D01*
X55047058Y-71630500D01*
X55114097Y-71650185D01*
X55158146Y-71699406D01*
X55172969Y-71729295D01*
X55292277Y-71877721D01*
X55292278Y-71877722D01*
X55440704Y-71997030D01*
X55440707Y-71997032D01*
X55611302Y-72081639D01*
X55611303Y-72081639D01*
X55611307Y-72081641D01*
X55796111Y-72127600D01*
X55838877Y-72130500D01*
X57241122Y-72130499D01*
X57283889Y-72127600D01*
X57468693Y-72081641D01*
X57639296Y-71997030D01*
X57787722Y-71877722D01*
X57907030Y-71729296D01*
X57991641Y-71558693D01*
X58037600Y-71373889D01*
X58040500Y-71331123D01*
X58040499Y-70428878D01*
X58037600Y-70386111D01*
X57991641Y-70201307D01*
X57969872Y-70157413D01*
X57907032Y-70030707D01*
X57907030Y-70030704D01*
X57787722Y-69882278D01*
X57787721Y-69882277D01*
X57718514Y-69826647D01*
X57678595Y-69769304D01*
X57676015Y-69699482D01*
X57711594Y-69639349D01*
X57718514Y-69633353D01*
X57727909Y-69625800D01*
X57787722Y-69577722D01*
X57907030Y-69429296D01*
X57921854Y-69399406D01*
X57969275Y-69348093D01*
X58032942Y-69330500D01*
X60379100Y-69330500D01*
X60446139Y-69350185D01*
X60491894Y-69402989D01*
X60503100Y-69454500D01*
X60503100Y-98121418D01*
X60503100Y-98121420D01*
X60503099Y-98121420D01*
X60531940Y-98266407D01*
X60531943Y-98266417D01*
X60588514Y-98402993D01*
X60588518Y-98402999D01*
X60596870Y-98415498D01*
X60596871Y-98415499D01*
X60596872Y-98415500D01*
X60657962Y-98506930D01*
X60670651Y-98525920D01*
X60670652Y-98525921D01*
X61465149Y-99320416D01*
X61518722Y-99373989D01*
X61569685Y-99424952D01*
X61648176Y-99477398D01*
X61692981Y-99531010D01*
X61701688Y-99600335D01*
X61671534Y-99663362D01*
X61612091Y-99700082D01*
X61579285Y-99704500D01*
X59355301Y-99704500D01*
X59288262Y-99684815D01*
X59242507Y-99632011D01*
X59237595Y-99619504D01*
X59226746Y-99586763D01*
X59209814Y-99535666D01*
X59117712Y-99386344D01*
X58993656Y-99262288D01*
X58844334Y-99170186D01*
X58677797Y-99115001D01*
X58677795Y-99115000D01*
X58575010Y-99104500D01*
X57799998Y-99104500D01*
X57799980Y-99104501D01*
X57697203Y-99115000D01*
X57697200Y-99115001D01*
X57530668Y-99170185D01*
X57530663Y-99170187D01*
X57381342Y-99262289D01*
X57257288Y-99386343D01*
X57257283Y-99386349D01*
X57255241Y-99389661D01*
X57253247Y-99391453D01*
X57252807Y-99392011D01*
X57252711Y-99391935D01*
X57203291Y-99436383D01*
X57134328Y-99447602D01*
X57070247Y-99419755D01*
X57044168Y-99389656D01*
X57042319Y-99386659D01*
X57042316Y-99386655D01*
X56918345Y-99262684D01*
X56769124Y-99170643D01*
X56769119Y-99170641D01*
X56602697Y-99115494D01*
X56602690Y-99115493D01*
X56499986Y-99105000D01*
X56362500Y-99105000D01*
X56362500Y-101554999D01*
X56499972Y-101554999D01*
X56499986Y-101554998D01*
X56602697Y-101544505D01*
X56769119Y-101489358D01*
X56769124Y-101489356D01*
X56918345Y-101397315D01*
X57042318Y-101273342D01*
X57044165Y-101270348D01*
X57045969Y-101268724D01*
X57046798Y-101267677D01*
X57046976Y-101267818D01*
X57096110Y-101223621D01*
X57165073Y-101212396D01*
X57229156Y-101240236D01*
X57255243Y-101270341D01*
X57257288Y-101273656D01*
X57381344Y-101397712D01*
X57530666Y-101489814D01*
X57697203Y-101544999D01*
X57799991Y-101555500D01*
X58575008Y-101555499D01*
X58575016Y-101555498D01*
X58575019Y-101555498D01*
X58631302Y-101549748D01*
X58677797Y-101544999D01*
X58844334Y-101489814D01*
X58993656Y-101397712D01*
X59117712Y-101273656D01*
X59209814Y-101124334D01*
X59237595Y-101040495D01*
X59277368Y-100983051D01*
X59341884Y-100956228D01*
X59355301Y-100955500D01*
X62130978Y-100955500D01*
X62198017Y-100975185D01*
X62231295Y-101006613D01*
X62231296Y-101006615D01*
X62260586Y-101046928D01*
X62383072Y-101169414D01*
X62523212Y-101271232D01*
X62677555Y-101349873D01*
X62842299Y-101403402D01*
X63013389Y-101430500D01*
X63013390Y-101430500D01*
X63986610Y-101430500D01*
X63986611Y-101430500D01*
X64157701Y-101403402D01*
X64322445Y-101349873D01*
X64476788Y-101271232D01*
X64616928Y-101169414D01*
X64739414Y-101046928D01*
X64841232Y-100906788D01*
X64919873Y-100752445D01*
X64973402Y-100587701D01*
X65000500Y-100416611D01*
X65000500Y-100243389D01*
X64973402Y-100072299D01*
X64919873Y-99907555D01*
X64851210Y-99772795D01*
X64838314Y-99704125D01*
X64864591Y-99639385D01*
X64921697Y-99599128D01*
X64961695Y-99592500D01*
X65165500Y-99592500D01*
X65232539Y-99612185D01*
X65278294Y-99664989D01*
X65289500Y-99716500D01*
X65289500Y-101872770D01*
X65269815Y-101939809D01*
X65253181Y-101960451D01*
X65130451Y-102083181D01*
X65069128Y-102116666D01*
X65042770Y-102119500D01*
X64757204Y-102119500D01*
X64690165Y-102099815D01*
X64669523Y-102083181D01*
X64616930Y-102030588D01*
X64616928Y-102030586D01*
X64476788Y-101928768D01*
X64322445Y-101850127D01*
X64157701Y-101796598D01*
X64157699Y-101796597D01*
X64157698Y-101796597D01*
X64026271Y-101775781D01*
X63986611Y-101769500D01*
X63013389Y-101769500D01*
X62973728Y-101775781D01*
X62842302Y-101796597D01*
X62677552Y-101850128D01*
X62523211Y-101928768D01*
X62508015Y-101939809D01*
X62383072Y-102030586D01*
X62383070Y-102030588D01*
X62383069Y-102030588D01*
X62330477Y-102083181D01*
X62269154Y-102116666D01*
X62242796Y-102119500D01*
X60653580Y-102119500D01*
X60508592Y-102148340D01*
X60508582Y-102148343D01*
X60372011Y-102204912D01*
X60371998Y-102204919D01*
X60249084Y-102287048D01*
X60249080Y-102287051D01*
X58387949Y-104148181D01*
X58326626Y-104181666D01*
X58300268Y-104184500D01*
X57799998Y-104184500D01*
X57799980Y-104184501D01*
X57697203Y-104195000D01*
X57697200Y-104195001D01*
X57530668Y-104250185D01*
X57530663Y-104250187D01*
X57381342Y-104342289D01*
X57257288Y-104466343D01*
X57257283Y-104466349D01*
X57255241Y-104469661D01*
X57253247Y-104471453D01*
X57252807Y-104472011D01*
X57252711Y-104471935D01*
X57203291Y-104516383D01*
X57134328Y-104527602D01*
X57070247Y-104499755D01*
X57044168Y-104469656D01*
X57042319Y-104466659D01*
X57042316Y-104466655D01*
X56918345Y-104342684D01*
X56769124Y-104250643D01*
X56769119Y-104250641D01*
X56602697Y-104195494D01*
X56602690Y-104195493D01*
X56499986Y-104185000D01*
X56362500Y-104185000D01*
X56362500Y-106634999D01*
X56499972Y-106634999D01*
X56499986Y-106634998D01*
X56602697Y-106624505D01*
X56769119Y-106569358D01*
X56769124Y-106569356D01*
X56918345Y-106477315D01*
X57042318Y-106353342D01*
X57044165Y-106350348D01*
X57045969Y-106348724D01*
X57046798Y-106347677D01*
X57046976Y-106347818D01*
X57096110Y-106303621D01*
X57165073Y-106292396D01*
X57229156Y-106320236D01*
X57255243Y-106350341D01*
X57257288Y-106353656D01*
X57381344Y-106477712D01*
X57530666Y-106569814D01*
X57697203Y-106624999D01*
X57799991Y-106635500D01*
X58575008Y-106635499D01*
X58575016Y-106635498D01*
X58575019Y-106635498D01*
X58631302Y-106629748D01*
X58677797Y-106624999D01*
X58844334Y-106569814D01*
X58993656Y-106477712D01*
X59117712Y-106353656D01*
X59209814Y-106204334D01*
X59264999Y-106037797D01*
X59275500Y-105935009D01*
X59275499Y-105434728D01*
X59295183Y-105367690D01*
X59311813Y-105347053D01*
X61002048Y-103656819D01*
X61063371Y-103623334D01*
X61089729Y-103620500D01*
X62242796Y-103620500D01*
X62309835Y-103640185D01*
X62330477Y-103656819D01*
X62383072Y-103709414D01*
X62523212Y-103811232D01*
X62677555Y-103889873D01*
X62842299Y-103943402D01*
X63013389Y-103970500D01*
X63013390Y-103970500D01*
X63986610Y-103970500D01*
X63986611Y-103970500D01*
X64157701Y-103943402D01*
X64322445Y-103889873D01*
X64476788Y-103811232D01*
X64616928Y-103709414D01*
X64669523Y-103656819D01*
X64730846Y-103623334D01*
X64757204Y-103620500D01*
X65432448Y-103620500D01*
X65499487Y-103640185D01*
X65545242Y-103692989D01*
X65555186Y-103762147D01*
X65526161Y-103825703D01*
X65520129Y-103832181D01*
X64786862Y-104565447D01*
X64725539Y-104598932D01*
X64655847Y-104593948D01*
X64620913Y-104573388D01*
X64620869Y-104573450D01*
X64620236Y-104572990D01*
X64618652Y-104572058D01*
X64616936Y-104570592D01*
X64584478Y-104547010D01*
X64476788Y-104468768D01*
X64322445Y-104390127D01*
X64157701Y-104336598D01*
X64157699Y-104336597D01*
X64157698Y-104336597D01*
X64026271Y-104315781D01*
X63986611Y-104309500D01*
X63013389Y-104309500D01*
X62973728Y-104315781D01*
X62842302Y-104336597D01*
X62677552Y-104390128D01*
X62523211Y-104468768D01*
X62480562Y-104499755D01*
X62383072Y-104570586D01*
X62383070Y-104570588D01*
X62383069Y-104570588D01*
X62260588Y-104693069D01*
X62260588Y-104693070D01*
X62260586Y-104693072D01*
X62232180Y-104732169D01*
X62158768Y-104833211D01*
X62080128Y-104987552D01*
X62026597Y-105152302D01*
X61999500Y-105323389D01*
X61999500Y-105496611D01*
X62026598Y-105667701D01*
X62080127Y-105832445D01*
X62158768Y-105986788D01*
X62260586Y-106126928D01*
X62383072Y-106249414D01*
X62523212Y-106351232D01*
X62677555Y-106429873D01*
X62842299Y-106483402D01*
X63013389Y-106510500D01*
X63013390Y-106510500D01*
X63986610Y-106510500D01*
X63986611Y-106510500D01*
X64157701Y-106483402D01*
X64322445Y-106429873D01*
X64476788Y-106351232D01*
X64616928Y-106249414D01*
X64739414Y-106126928D01*
X64768705Y-106086613D01*
X64824035Y-106043948D01*
X64869022Y-106035500D01*
X64888507Y-106035500D01*
X64948929Y-106023481D01*
X65009352Y-106011463D01*
X65054039Y-105992952D01*
X65054042Y-105992952D01*
X65123181Y-105964314D01*
X65123180Y-105964314D01*
X65123186Y-105964312D01*
X65174409Y-105930084D01*
X65174411Y-105930083D01*
X65187171Y-105921556D01*
X65225633Y-105895858D01*
X65312758Y-105808733D01*
X65312759Y-105808731D01*
X65319825Y-105801665D01*
X65319828Y-105801661D01*
X68656229Y-102465260D01*
X68656233Y-102465258D01*
X68743358Y-102378133D01*
X68789607Y-102308917D01*
X68811812Y-102275686D01*
X68858963Y-102161851D01*
X68883000Y-102041007D01*
X68883000Y-101917793D01*
X68883000Y-101333175D01*
X68902685Y-101266136D01*
X68955489Y-101220381D01*
X69024647Y-101210437D01*
X69032748Y-101211879D01*
X69120354Y-101230500D01*
X69120356Y-101230500D01*
X69309644Y-101230500D01*
X69309646Y-101230500D01*
X69494803Y-101191144D01*
X69667730Y-101114151D01*
X69820871Y-101002888D01*
X69947533Y-100862216D01*
X70042179Y-100698284D01*
X70100674Y-100518256D01*
X70118321Y-100350344D01*
X70144904Y-100285734D01*
X70153941Y-100275648D01*
X70335858Y-100093733D01*
X70404312Y-99991285D01*
X70451463Y-99877451D01*
X70465872Y-99805013D01*
X70475501Y-99756608D01*
X70475501Y-99628283D01*
X70475500Y-99628257D01*
X70475500Y-96398397D01*
X70475500Y-96398395D01*
X70474701Y-96394380D01*
X70474703Y-96394359D01*
X70474698Y-96394361D01*
X70451464Y-96277555D01*
X70451463Y-96277554D01*
X70451463Y-96277550D01*
X70451460Y-96277544D01*
X70451459Y-96277539D01*
X70404314Y-96163719D01*
X70404312Y-96163716D01*
X70404312Y-96163715D01*
X70355629Y-96090858D01*
X70335858Y-96061268D01*
X70335856Y-96061265D01*
X70245637Y-95971046D01*
X70245606Y-95971017D01*
X69523571Y-95248982D01*
X69490086Y-95187659D01*
X69488810Y-95157051D01*
X69487012Y-95155000D01*
X69480953Y-95155000D01*
X69413914Y-95135315D01*
X69398520Y-95122910D01*
X69398442Y-95123007D01*
X69393727Y-95119138D01*
X69316520Y-95067550D01*
X69316518Y-95067548D01*
X69300815Y-95057055D01*
X69256011Y-95003442D01*
X69247305Y-94934117D01*
X69277462Y-94871090D01*
X69294218Y-94855583D01*
X69323282Y-94833282D01*
X69337050Y-94815338D01*
X69346125Y-94803513D01*
X69402553Y-94762310D01*
X69444500Y-94755000D01*
X69487010Y-94755000D01*
X69487011Y-94754998D01*
X69479558Y-94698377D01*
X69479554Y-94698365D01*
X69471163Y-94678106D01*
X69463694Y-94608637D01*
X69471164Y-94583199D01*
X69471433Y-94582550D01*
X69480044Y-94561762D01*
X69495500Y-94444361D01*
X69495499Y-94165640D01*
X69480044Y-94048238D01*
X69480042Y-94048234D01*
X69471435Y-94027455D01*
X69463965Y-93957986D01*
X69471435Y-93932545D01*
X69480044Y-93911762D01*
X69495500Y-93794361D01*
X69495499Y-93515640D01*
X69480044Y-93398238D01*
X69480042Y-93398234D01*
X69471435Y-93377455D01*
X69463965Y-93307986D01*
X69471435Y-93282545D01*
X69480044Y-93261762D01*
X69495500Y-93144361D01*
X69495499Y-92865640D01*
X69480044Y-92748238D01*
X69480042Y-92748234D01*
X69471435Y-92727455D01*
X69463965Y-92657986D01*
X69471435Y-92632545D01*
X69480044Y-92611762D01*
X69495500Y-92494361D01*
X69495499Y-92215640D01*
X69480044Y-92098238D01*
X69480042Y-92098234D01*
X69471435Y-92077455D01*
X69463965Y-92007986D01*
X69471435Y-91982545D01*
X69480044Y-91961762D01*
X69495500Y-91844361D01*
X69495499Y-91565640D01*
X69480044Y-91448238D01*
X69480042Y-91448234D01*
X69471435Y-91427455D01*
X69463965Y-91357986D01*
X69471435Y-91332545D01*
X69480044Y-91311762D01*
X69495500Y-91194361D01*
X69495499Y-90915640D01*
X69495499Y-90915638D01*
X72744500Y-90915638D01*
X72744500Y-91194363D01*
X72759953Y-91311753D01*
X72759957Y-91311765D01*
X72768566Y-91332550D01*
X72776033Y-91402019D01*
X72768566Y-91427450D01*
X72759957Y-91448234D01*
X72759955Y-91448239D01*
X72744500Y-91565638D01*
X72744500Y-91844363D01*
X72759953Y-91961753D01*
X72759957Y-91961765D01*
X72768566Y-91982550D01*
X72776033Y-92052019D01*
X72768566Y-92077450D01*
X72759957Y-92098234D01*
X72759955Y-92098239D01*
X72744500Y-92215638D01*
X72744500Y-92494363D01*
X72759953Y-92611753D01*
X72759957Y-92611765D01*
X72768566Y-92632550D01*
X72776033Y-92702019D01*
X72768566Y-92727450D01*
X72759957Y-92748234D01*
X72759955Y-92748239D01*
X72744500Y-92865638D01*
X72744500Y-93144363D01*
X72759953Y-93261753D01*
X72759957Y-93261765D01*
X72768566Y-93282550D01*
X72776033Y-93352019D01*
X72768566Y-93377450D01*
X72759957Y-93398234D01*
X72759955Y-93398239D01*
X72744500Y-93515638D01*
X72744500Y-93794363D01*
X72759953Y-93911753D01*
X72759957Y-93911765D01*
X72768566Y-93932550D01*
X72776033Y-94002019D01*
X72768566Y-94027450D01*
X72759957Y-94048234D01*
X72759955Y-94048239D01*
X72744500Y-94165638D01*
X72744500Y-94444363D01*
X72759953Y-94561753D01*
X72759957Y-94561765D01*
X72768566Y-94582550D01*
X72776033Y-94652019D01*
X72768566Y-94677450D01*
X72759957Y-94698234D01*
X72759955Y-94698239D01*
X72744500Y-94815638D01*
X72744500Y-95094363D01*
X72759953Y-95211753D01*
X72759957Y-95211765D01*
X72768566Y-95232550D01*
X72776033Y-95302019D01*
X72768566Y-95327450D01*
X72759957Y-95348234D01*
X72759955Y-95348239D01*
X72744500Y-95465638D01*
X72744500Y-95744363D01*
X72759953Y-95861753D01*
X72759957Y-95861765D01*
X72768566Y-95882550D01*
X72776033Y-95952019D01*
X72768566Y-95977450D01*
X72759957Y-95998234D01*
X72759955Y-95998239D01*
X72744500Y-96115638D01*
X72744501Y-96394361D01*
X72759953Y-96511753D01*
X72759957Y-96511765D01*
X72768566Y-96532550D01*
X72776033Y-96602019D01*
X72768566Y-96627450D01*
X72759957Y-96648234D01*
X72759955Y-96648239D01*
X72744500Y-96765638D01*
X72744500Y-97044363D01*
X72759953Y-97161753D01*
X72759956Y-97161762D01*
X72790329Y-97235090D01*
X72820464Y-97307841D01*
X72916718Y-97433282D01*
X73042159Y-97529536D01*
X73188238Y-97590044D01*
X73249186Y-97598067D01*
X73313081Y-97626333D01*
X73351553Y-97684657D01*
X73357000Y-97721006D01*
X73357000Y-102041011D01*
X73381035Y-102161844D01*
X73381040Y-102161861D01*
X73428185Y-102275681D01*
X73428188Y-102275686D01*
X73450391Y-102308914D01*
X73450392Y-102308917D01*
X73450393Y-102308917D01*
X73496641Y-102378132D01*
X73496644Y-102378136D01*
X73588086Y-102469578D01*
X73588108Y-102469598D01*
X76924116Y-105805606D01*
X76924145Y-105805637D01*
X77014364Y-105895856D01*
X77014367Y-105895858D01*
X77065590Y-105930084D01*
X77116814Y-105964312D01*
X77147644Y-105977081D01*
X77185950Y-105992949D01*
X77185955Y-105992950D01*
X77185959Y-105992952D01*
X77230648Y-106011463D01*
X77291071Y-106023481D01*
X77351493Y-106035500D01*
X77351494Y-106035500D01*
X77370978Y-106035500D01*
X77438017Y-106055185D01*
X77471295Y-106086613D01*
X77500586Y-106126928D01*
X77623072Y-106249414D01*
X77763212Y-106351232D01*
X77917555Y-106429873D01*
X78082299Y-106483402D01*
X78253389Y-106510500D01*
X78253390Y-106510500D01*
X79226610Y-106510500D01*
X79226611Y-106510500D01*
X79397701Y-106483402D01*
X79562445Y-106429873D01*
X79716788Y-106351232D01*
X79856928Y-106249414D01*
X79979414Y-106126928D01*
X80081232Y-105986788D01*
X80159873Y-105832445D01*
X80213402Y-105667701D01*
X80240500Y-105496611D01*
X80240500Y-105323389D01*
X80213402Y-105152299D01*
X80159873Y-104987555D01*
X80081232Y-104833212D01*
X79979414Y-104693072D01*
X79856928Y-104570586D01*
X79716788Y-104468768D01*
X79562445Y-104390127D01*
X79397701Y-104336598D01*
X79397699Y-104336597D01*
X79397698Y-104336597D01*
X79266271Y-104315781D01*
X79226611Y-104309500D01*
X78253389Y-104309500D01*
X78213728Y-104315781D01*
X78082302Y-104336597D01*
X77917552Y-104390128D01*
X77763211Y-104468768D01*
X77623068Y-104570589D01*
X77621339Y-104572066D01*
X77620548Y-104572420D01*
X77619131Y-104573450D01*
X77618914Y-104573152D01*
X77557574Y-104600629D01*
X77488489Y-104590184D01*
X77453137Y-104565447D01*
X74644319Y-101756629D01*
X74610834Y-101695306D01*
X74608000Y-101668948D01*
X74608000Y-101248852D01*
X74627685Y-101181813D01*
X74680489Y-101136058D01*
X74749647Y-101126114D01*
X74813203Y-101155139D01*
X74819681Y-101161171D01*
X76924116Y-103265606D01*
X76924145Y-103265637D01*
X77014363Y-103355855D01*
X77014367Y-103355858D01*
X77116807Y-103424307D01*
X77116813Y-103424310D01*
X77116814Y-103424311D01*
X77230648Y-103471463D01*
X77291071Y-103483481D01*
X77351493Y-103495500D01*
X77351494Y-103495500D01*
X77370978Y-103495500D01*
X77438017Y-103515185D01*
X77471295Y-103546613D01*
X77500586Y-103586928D01*
X77623072Y-103709414D01*
X77763212Y-103811232D01*
X77917555Y-103889873D01*
X78082299Y-103943402D01*
X78253389Y-103970500D01*
X78253390Y-103970500D01*
X79226610Y-103970500D01*
X79226611Y-103970500D01*
X79397701Y-103943402D01*
X79562445Y-103889873D01*
X79716788Y-103811232D01*
X79856928Y-103709414D01*
X79979414Y-103586928D01*
X80081232Y-103446788D01*
X80159873Y-103292445D01*
X80213402Y-103127701D01*
X80240500Y-102956611D01*
X80240500Y-102783389D01*
X80213402Y-102612299D01*
X80159873Y-102447555D01*
X80081232Y-102293212D01*
X79979414Y-102153072D01*
X79856928Y-102030586D01*
X79716788Y-101928768D01*
X79562445Y-101850127D01*
X79397701Y-101796598D01*
X79397699Y-101796597D01*
X79397698Y-101796597D01*
X79266271Y-101775781D01*
X79226611Y-101769500D01*
X78253389Y-101769500D01*
X78213728Y-101775781D01*
X78082302Y-101796597D01*
X77917552Y-101850128D01*
X77763211Y-101928768D01*
X77623068Y-102030589D01*
X77621339Y-102032066D01*
X77620548Y-102032420D01*
X77619131Y-102033450D01*
X77618914Y-102033152D01*
X77557574Y-102060629D01*
X77488489Y-102050184D01*
X77453137Y-102025447D01*
X75726019Y-100298329D01*
X75692534Y-100237006D01*
X75689700Y-100210648D01*
X75689700Y-99790552D01*
X75709385Y-99723513D01*
X75762189Y-99677758D01*
X75831347Y-99667814D01*
X75894903Y-99696839D01*
X75901381Y-99702871D01*
X77014363Y-100815855D01*
X77014367Y-100815858D01*
X77116810Y-100884309D01*
X77116811Y-100884309D01*
X77116815Y-100884312D01*
X77171078Y-100906788D01*
X77230648Y-100931463D01*
X77250697Y-100935451D01*
X77284296Y-100942134D01*
X77351492Y-100955501D01*
X77351494Y-100955501D01*
X77370979Y-100955501D01*
X77438018Y-100975186D01*
X77471296Y-101006615D01*
X77471547Y-101006960D01*
X77500586Y-101046928D01*
X77623072Y-101169414D01*
X77763212Y-101271232D01*
X77917555Y-101349873D01*
X78082299Y-101403402D01*
X78253389Y-101430500D01*
X78253390Y-101430500D01*
X79226610Y-101430500D01*
X79226611Y-101430500D01*
X79397701Y-101403402D01*
X79562445Y-101349873D01*
X79716788Y-101271232D01*
X79856928Y-101169414D01*
X79979414Y-101046928D01*
X80081232Y-100906788D01*
X80159873Y-100752445D01*
X80213402Y-100587701D01*
X80240500Y-100416611D01*
X80240500Y-100243389D01*
X80213402Y-100072299D01*
X80159873Y-99907555D01*
X80081232Y-99753212D01*
X79979414Y-99613072D01*
X79856928Y-99490586D01*
X79716788Y-99388768D01*
X79595215Y-99326824D01*
X79562447Y-99310128D01*
X79562446Y-99310127D01*
X79562445Y-99310127D01*
X79397701Y-99256598D01*
X79397699Y-99256597D01*
X79397698Y-99256597D01*
X79266271Y-99235781D01*
X79226611Y-99229500D01*
X78253389Y-99229500D01*
X78213728Y-99235781D01*
X78082302Y-99256597D01*
X77917552Y-99310128D01*
X77763211Y-99388768D01*
X77678042Y-99450647D01*
X77623072Y-99490586D01*
X77623070Y-99490587D01*
X77623052Y-99490601D01*
X77621328Y-99492073D01*
X77620541Y-99492425D01*
X77619131Y-99493450D01*
X77618915Y-99493153D01*
X77557561Y-99520629D01*
X77488477Y-99510177D01*
X77453137Y-99485446D01*
X76178019Y-98210328D01*
X76144534Y-98149005D01*
X76141700Y-98122647D01*
X76141700Y-97534452D01*
X76161385Y-97467413D01*
X76214189Y-97421658D01*
X76283347Y-97411714D01*
X76346903Y-97440739D01*
X76353381Y-97446771D01*
X76768297Y-97861687D01*
X76801782Y-97923010D01*
X76802233Y-97925177D01*
X76811635Y-97972444D01*
X76811637Y-97972452D01*
X76858787Y-98086283D01*
X76858792Y-98086292D01*
X76927241Y-98188732D01*
X76927244Y-98188736D01*
X77014363Y-98275855D01*
X77014367Y-98275858D01*
X77116807Y-98344307D01*
X77116813Y-98344310D01*
X77116814Y-98344311D01*
X77230648Y-98391463D01*
X77351484Y-98415498D01*
X77351489Y-98415499D01*
X77351493Y-98415500D01*
X77351494Y-98415500D01*
X77370978Y-98415500D01*
X77438017Y-98435185D01*
X77471295Y-98466613D01*
X77500586Y-98506928D01*
X77623072Y-98629414D01*
X77763212Y-98731232D01*
X77917555Y-98809873D01*
X78082299Y-98863402D01*
X78253389Y-98890500D01*
X78253390Y-98890500D01*
X79226610Y-98890500D01*
X79226611Y-98890500D01*
X79397701Y-98863402D01*
X79562445Y-98809873D01*
X79716788Y-98731232D01*
X79856928Y-98629414D01*
X79979414Y-98506928D01*
X80081232Y-98366788D01*
X80159873Y-98212445D01*
X80213402Y-98047701D01*
X80240500Y-97876611D01*
X80240500Y-97703389D01*
X80213402Y-97532299D01*
X80159873Y-97367555D01*
X80081232Y-97213212D01*
X79979414Y-97073072D01*
X79856928Y-96950586D01*
X79716788Y-96848768D01*
X79562445Y-96770127D01*
X79397701Y-96716598D01*
X79397699Y-96716597D01*
X79397698Y-96716597D01*
X79266271Y-96695781D01*
X79226611Y-96689500D01*
X78253389Y-96689500D01*
X78213728Y-96695781D01*
X78082302Y-96716597D01*
X77917552Y-96770128D01*
X77763209Y-96848769D01*
X77710663Y-96886946D01*
X77644856Y-96910425D01*
X77576802Y-96894599D01*
X77550098Y-96874308D01*
X75817971Y-95142181D01*
X75784486Y-95080858D01*
X75789470Y-95011166D01*
X75831342Y-94955233D01*
X75896806Y-94930816D01*
X75905652Y-94930500D01*
X76157648Y-94930500D01*
X76224687Y-94950185D01*
X76245329Y-94966819D01*
X76924116Y-95645606D01*
X76924145Y-95645637D01*
X77014364Y-95735856D01*
X77014367Y-95735858D01*
X77075316Y-95776582D01*
X77075317Y-95776584D01*
X77091938Y-95787690D01*
X77116815Y-95804312D01*
X77171078Y-95826788D01*
X77230648Y-95851463D01*
X77291071Y-95863481D01*
X77351493Y-95875500D01*
X77351494Y-95875500D01*
X77370978Y-95875500D01*
X77438017Y-95895185D01*
X77471295Y-95926613D01*
X77500586Y-95966928D01*
X77623072Y-96089414D01*
X77763212Y-96191232D01*
X77917555Y-96269873D01*
X78082299Y-96323402D01*
X78253389Y-96350500D01*
X78253390Y-96350500D01*
X79226610Y-96350500D01*
X79226611Y-96350500D01*
X79397701Y-96323402D01*
X79562445Y-96269873D01*
X79716788Y-96191232D01*
X79856928Y-96089414D01*
X79979414Y-95966928D01*
X80081232Y-95826788D01*
X80159873Y-95672445D01*
X80213402Y-95507701D01*
X80240500Y-95336611D01*
X80240500Y-95163389D01*
X80213402Y-94992299D01*
X80159873Y-94827555D01*
X80081232Y-94673212D01*
X79979414Y-94533072D01*
X79856928Y-94410586D01*
X79716788Y-94308768D01*
X79562445Y-94230127D01*
X79397701Y-94176598D01*
X79397699Y-94176597D01*
X79397698Y-94176597D01*
X79266271Y-94155781D01*
X79226611Y-94149500D01*
X78253389Y-94149500D01*
X78213728Y-94155781D01*
X78082302Y-94176597D01*
X77917552Y-94230128D01*
X77763211Y-94308768D01*
X77623068Y-94410589D01*
X77621339Y-94412066D01*
X77620548Y-94412420D01*
X77619131Y-94413450D01*
X77618914Y-94413152D01*
X77557574Y-94440629D01*
X77488489Y-94430184D01*
X77453137Y-94405447D01*
X77115371Y-94067681D01*
X77081886Y-94006358D01*
X77086870Y-93936666D01*
X77115371Y-93892319D01*
X77277819Y-93729871D01*
X77453139Y-93554550D01*
X77514460Y-93521067D01*
X77584151Y-93526051D01*
X77619086Y-93546610D01*
X77619131Y-93546550D01*
X77619759Y-93547006D01*
X77621349Y-93547942D01*
X77623069Y-93549411D01*
X77623072Y-93549414D01*
X77763212Y-93651232D01*
X77917555Y-93729873D01*
X78082299Y-93783402D01*
X78253389Y-93810500D01*
X78253390Y-93810500D01*
X79226610Y-93810500D01*
X79226611Y-93810500D01*
X79397701Y-93783402D01*
X79562445Y-93729873D01*
X79716788Y-93651232D01*
X79856928Y-93549414D01*
X79979414Y-93426928D01*
X80081232Y-93286788D01*
X80159873Y-93132445D01*
X80213402Y-92967701D01*
X80240500Y-92796611D01*
X80240500Y-92623389D01*
X80213402Y-92452299D01*
X80159873Y-92287555D01*
X80081232Y-92133212D01*
X79979414Y-91993072D01*
X79856928Y-91870586D01*
X79716788Y-91768768D01*
X79562445Y-91690127D01*
X79397701Y-91636598D01*
X79397699Y-91636597D01*
X79397698Y-91636597D01*
X79266271Y-91615781D01*
X79226611Y-91609500D01*
X78484453Y-91609500D01*
X78417414Y-91589815D01*
X78371659Y-91537011D01*
X78361715Y-91467853D01*
X78390740Y-91404297D01*
X78396772Y-91397819D01*
X78487772Y-91306819D01*
X78549095Y-91273334D01*
X78575453Y-91270500D01*
X79226610Y-91270500D01*
X79226611Y-91270500D01*
X79397701Y-91243402D01*
X79562445Y-91189873D01*
X79716788Y-91111232D01*
X79856928Y-91009414D01*
X79979414Y-90886928D01*
X80081232Y-90746788D01*
X80159873Y-90592445D01*
X80213402Y-90427701D01*
X80240500Y-90256611D01*
X80240500Y-90083389D01*
X80213402Y-89912299D01*
X80159873Y-89747555D01*
X80081232Y-89593212D01*
X79979414Y-89453072D01*
X79856928Y-89330586D01*
X79716788Y-89228768D01*
X79562445Y-89150127D01*
X79397701Y-89096598D01*
X79397699Y-89096597D01*
X79397698Y-89096597D01*
X79266271Y-89075781D01*
X79226611Y-89069500D01*
X79226610Y-89069500D01*
X79222553Y-89069500D01*
X79155514Y-89049815D01*
X79109759Y-88997011D01*
X79099815Y-88927853D01*
X79128840Y-88864297D01*
X79134872Y-88857818D01*
X79138730Y-88853959D01*
X79138733Y-88853958D01*
X79225858Y-88766833D01*
X79225864Y-88766823D01*
X79229722Y-88762125D01*
X79231859Y-88763878D01*
X79276279Y-88726677D01*
X79306490Y-88717848D01*
X79337786Y-88712891D01*
X79397696Y-88703403D01*
X79397696Y-88703402D01*
X79397701Y-88703402D01*
X79562445Y-88649873D01*
X79716788Y-88571232D01*
X79856928Y-88469414D01*
X79856939Y-88469402D01*
X79858642Y-88467949D01*
X79859428Y-88467596D01*
X79860869Y-88466550D01*
X79861088Y-88466852D01*
X79922401Y-88439374D01*
X79991487Y-88449805D01*
X80026862Y-88474552D01*
X81088816Y-89536506D01*
X81088845Y-89536537D01*
X81179063Y-89626755D01*
X81179067Y-89626758D01*
X81281507Y-89695207D01*
X81281513Y-89695210D01*
X81281514Y-89695211D01*
X81395348Y-89742363D01*
X81421451Y-89747555D01*
X81516191Y-89766399D01*
X81516192Y-89766400D01*
X81516193Y-89766400D01*
X81516194Y-89766400D01*
X88057400Y-89766400D01*
X88124439Y-89786085D01*
X88170194Y-89838889D01*
X88181400Y-89890400D01*
X88181400Y-111618006D01*
X88161715Y-111685045D01*
X88108911Y-111730800D01*
X88039753Y-111740744D01*
X88025307Y-111737781D01*
X87865413Y-111694938D01*
X87865403Y-111694936D01*
X87630001Y-111674341D01*
X87629999Y-111674341D01*
X87394596Y-111694936D01*
X87394586Y-111694938D01*
X87166344Y-111756094D01*
X87166335Y-111756098D01*
X86952171Y-111855964D01*
X86952169Y-111855965D01*
X86758597Y-111991505D01*
X86591505Y-112158597D01*
X86455965Y-112352169D01*
X86455964Y-112352171D01*
X86356098Y-112566335D01*
X86356094Y-112566344D01*
X86294938Y-112794586D01*
X86294936Y-112794596D01*
X86274341Y-113029999D01*
X86274341Y-113030000D01*
X86294936Y-113265403D01*
X86294938Y-113265413D01*
X86356094Y-113493655D01*
X86356096Y-113493659D01*
X86356097Y-113493663D01*
X86455965Y-113707830D01*
X86455967Y-113707834D01*
X86591501Y-113901395D01*
X86591506Y-113901402D01*
X86758597Y-114068493D01*
X86758603Y-114068498D01*
X86944594Y-114198730D01*
X86988219Y-114253307D01*
X86995413Y-114322805D01*
X86963890Y-114385160D01*
X86944595Y-114401880D01*
X86758922Y-114531890D01*
X86758920Y-114531891D01*
X86591891Y-114698920D01*
X86591886Y-114698926D01*
X86456400Y-114892420D01*
X86456399Y-114892422D01*
X86356570Y-115106507D01*
X86356567Y-115106513D01*
X86299364Y-115319999D01*
X86299364Y-115320000D01*
X87196988Y-115320000D01*
X87164075Y-115377007D01*
X87130000Y-115504174D01*
X87130000Y-115635826D01*
X87164075Y-115762993D01*
X87196988Y-115820000D01*
X86299364Y-115820000D01*
X86356567Y-116033486D01*
X86356570Y-116033492D01*
X86456399Y-116247578D01*
X86591894Y-116441082D01*
X86758917Y-116608105D01*
X86944595Y-116738119D01*
X86988219Y-116792696D01*
X86995412Y-116862195D01*
X86963890Y-116924549D01*
X86944595Y-116941269D01*
X86758594Y-117071508D01*
X86591505Y-117238597D01*
X86455965Y-117432169D01*
X86455964Y-117432171D01*
X86356098Y-117646335D01*
X86356094Y-117646344D01*
X86294938Y-117874586D01*
X86294936Y-117874596D01*
X86274341Y-118109999D01*
X86274341Y-118110000D01*
X86294936Y-118345403D01*
X86294938Y-118345413D01*
X86356094Y-118573655D01*
X86356096Y-118573659D01*
X86356097Y-118573663D01*
X86455965Y-118787830D01*
X86455967Y-118787834D01*
X86564281Y-118942521D01*
X86591501Y-118981396D01*
X86591506Y-118981402D01*
X86713430Y-119103326D01*
X86746915Y-119164649D01*
X86741931Y-119234341D01*
X86700059Y-119290274D01*
X86669083Y-119307189D01*
X86537669Y-119356203D01*
X86537664Y-119356206D01*
X86422455Y-119442452D01*
X86422452Y-119442455D01*
X86336206Y-119557664D01*
X86336202Y-119557671D01*
X86285908Y-119692517D01*
X86279501Y-119752116D01*
X86279501Y-119752123D01*
X86279500Y-119752135D01*
X86279500Y-121547870D01*
X86279501Y-121547876D01*
X86285908Y-121607483D01*
X86336202Y-121742328D01*
X86336206Y-121742335D01*
X86422452Y-121857544D01*
X86422455Y-121857547D01*
X86537664Y-121943793D01*
X86537671Y-121943797D01*
X86672517Y-121994091D01*
X86672516Y-121994091D01*
X86679444Y-121994835D01*
X86732127Y-122000500D01*
X88527872Y-122000499D01*
X88587483Y-121994091D01*
X88722331Y-121943796D01*
X88754118Y-121920000D01*
X92514675Y-121920000D01*
X92533962Y-122312591D01*
X92533962Y-122312597D01*
X92533963Y-122312599D01*
X92591637Y-122701406D01*
X92687143Y-123082684D01*
X92819561Y-123452770D01*
X92819562Y-123452772D01*
X92987620Y-123808100D01*
X93189692Y-124145236D01*
X93189694Y-124145239D01*
X93283327Y-124271489D01*
X93423846Y-124460956D01*
X93687807Y-124752192D01*
X93971759Y-125009551D01*
X93979049Y-125016158D01*
X94294761Y-125250306D01*
X94294763Y-125250307D01*
X94631899Y-125452379D01*
X94631902Y-125452380D01*
X94631903Y-125452381D01*
X94987228Y-125620438D01*
X95357316Y-125752857D01*
X95738600Y-125848364D01*
X96127409Y-125906038D01*
X96520000Y-125925325D01*
X96912591Y-125906038D01*
X97301400Y-125848364D01*
X97682684Y-125752857D01*
X98052772Y-125620438D01*
X98408097Y-125452381D01*
X98745239Y-125250306D01*
X99060951Y-125016158D01*
X99352192Y-124752192D01*
X99616158Y-124460951D01*
X99850306Y-124145239D01*
X100052381Y-123808097D01*
X100220438Y-123452772D01*
X100352857Y-123082684D01*
X100448364Y-122701400D01*
X100506038Y-122312591D01*
X100525325Y-121920000D01*
X100506038Y-121527409D01*
X100448364Y-121138600D01*
X100352857Y-120757316D01*
X100220438Y-120387228D01*
X100052381Y-120031903D01*
X99993478Y-119933630D01*
X99850307Y-119694763D01*
X99850306Y-119694761D01*
X99616158Y-119379049D01*
X99616153Y-119379043D01*
X99352192Y-119087807D01*
X99060956Y-118823846D01*
X99012399Y-118787834D01*
X98745239Y-118589694D01*
X98718480Y-118573655D01*
X98408100Y-118387620D01*
X98052772Y-118219562D01*
X98052770Y-118219561D01*
X97682684Y-118087143D01*
X97301406Y-117991637D01*
X97301401Y-117991636D01*
X97301400Y-117991636D01*
X97157256Y-117970254D01*
X96912599Y-117933963D01*
X96912597Y-117933962D01*
X96912591Y-117933962D01*
X96520000Y-117914675D01*
X96127409Y-117933962D01*
X96127403Y-117933962D01*
X96127400Y-117933963D01*
X95738593Y-117991637D01*
X95357315Y-118087143D01*
X94987229Y-118219561D01*
X94987227Y-118219562D01*
X94631899Y-118387620D01*
X94294763Y-118589692D01*
X93979043Y-118823846D01*
X93687807Y-119087807D01*
X93423846Y-119379043D01*
X93189692Y-119694763D01*
X92987620Y-120031899D01*
X92819562Y-120387227D01*
X92819561Y-120387229D01*
X92687143Y-120757315D01*
X92591637Y-121138593D01*
X92535079Y-121519882D01*
X92533962Y-121527409D01*
X92514675Y-121920000D01*
X88754118Y-121920000D01*
X88837546Y-121857546D01*
X88923796Y-121742331D01*
X88974091Y-121607483D01*
X88980500Y-121547873D01*
X88980499Y-119752128D01*
X88975299Y-119703757D01*
X88974091Y-119692516D01*
X88923797Y-119557671D01*
X88923793Y-119557664D01*
X88837547Y-119442455D01*
X88837544Y-119442452D01*
X88722335Y-119356206D01*
X88722328Y-119356202D01*
X88590917Y-119307189D01*
X88534983Y-119265318D01*
X88510566Y-119199853D01*
X88525418Y-119131580D01*
X88546563Y-119103332D01*
X88668495Y-118981401D01*
X88804035Y-118787830D01*
X88903903Y-118573663D01*
X88965063Y-118345408D01*
X88985659Y-118110000D01*
X88965063Y-117874592D01*
X88918626Y-117701285D01*
X88903905Y-117646344D01*
X88903904Y-117646343D01*
X88903903Y-117646337D01*
X88804035Y-117432171D01*
X88788843Y-117410475D01*
X88690489Y-117270010D01*
X88668162Y-117203804D01*
X88685172Y-117136037D01*
X88704380Y-117111209D01*
X89205629Y-116609960D01*
X89205633Y-116609958D01*
X89292758Y-116522833D01*
X89361211Y-116420386D01*
X89361212Y-116420385D01*
X89361213Y-116420382D01*
X89361215Y-116420379D01*
X89397970Y-116331641D01*
X89397972Y-116331637D01*
X89408363Y-116306552D01*
X89432400Y-116185706D01*
X89432400Y-89561400D01*
X89452085Y-89494361D01*
X89504889Y-89448606D01*
X89556400Y-89437400D01*
X90099195Y-89437400D01*
X90166234Y-89457085D01*
X90211989Y-89509889D01*
X90221933Y-89579047D01*
X90211577Y-89613805D01*
X90205537Y-89626758D01*
X90168430Y-89706335D01*
X90166098Y-89711335D01*
X90166094Y-89711344D01*
X90104938Y-89939586D01*
X90104936Y-89939596D01*
X90084341Y-90174999D01*
X90084341Y-90175000D01*
X90104936Y-90410403D01*
X90104938Y-90410413D01*
X90166094Y-90638655D01*
X90166096Y-90638659D01*
X90166097Y-90638663D01*
X90251507Y-90821825D01*
X90265965Y-90852830D01*
X90265967Y-90852834D01*
X90401501Y-91046395D01*
X90401506Y-91046402D01*
X90568597Y-91213493D01*
X90568603Y-91213498D01*
X90754158Y-91343425D01*
X90797783Y-91398002D01*
X90804977Y-91467500D01*
X90773454Y-91529855D01*
X90754158Y-91546575D01*
X90568597Y-91676505D01*
X90401505Y-91843597D01*
X90265965Y-92037169D01*
X90265964Y-92037171D01*
X90202836Y-92172550D01*
X90168430Y-92246335D01*
X90166098Y-92251335D01*
X90166094Y-92251344D01*
X90104938Y-92479586D01*
X90104936Y-92479596D01*
X90084341Y-92714999D01*
X90084341Y-92715000D01*
X90104936Y-92950403D01*
X90104938Y-92950413D01*
X90166094Y-93178655D01*
X90166096Y-93178659D01*
X90166097Y-93178663D01*
X90261219Y-93382652D01*
X90265965Y-93392830D01*
X90265967Y-93392834D01*
X90401501Y-93586395D01*
X90401506Y-93586402D01*
X90568597Y-93753493D01*
X90568603Y-93753498D01*
X90754158Y-93883425D01*
X90797783Y-93938002D01*
X90804977Y-94007500D01*
X90773454Y-94069855D01*
X90754158Y-94086575D01*
X90568597Y-94216505D01*
X90401505Y-94383597D01*
X90265965Y-94577169D01*
X90265964Y-94577171D01*
X90209445Y-94698377D01*
X90168430Y-94786335D01*
X90166098Y-94791335D01*
X90166094Y-94791344D01*
X90104938Y-95019586D01*
X90104936Y-95019596D01*
X90084341Y-95254999D01*
X90084341Y-95255000D01*
X90104936Y-95490403D01*
X90104938Y-95490413D01*
X90166094Y-95718655D01*
X90166096Y-95718659D01*
X90166097Y-95718663D01*
X90243171Y-95883948D01*
X90265965Y-95932830D01*
X90265967Y-95932834D01*
X90355896Y-96061265D01*
X90393969Y-96115639D01*
X90401501Y-96126395D01*
X90401506Y-96126402D01*
X90568597Y-96293493D01*
X90568603Y-96293498D01*
X90754158Y-96423425D01*
X90797783Y-96478002D01*
X90804977Y-96547500D01*
X90773454Y-96609855D01*
X90754158Y-96626575D01*
X90568597Y-96756505D01*
X90401505Y-96923597D01*
X90265965Y-97117169D01*
X90265964Y-97117171D01*
X90221057Y-97213475D01*
X90168347Y-97326513D01*
X90166098Y-97331335D01*
X90166094Y-97331344D01*
X90104938Y-97559586D01*
X90104936Y-97559596D01*
X90084341Y-97794999D01*
X90084341Y-97795000D01*
X90104936Y-98030403D01*
X90104938Y-98030413D01*
X90166094Y-98258655D01*
X90166096Y-98258659D01*
X90166097Y-98258663D01*
X90233400Y-98402995D01*
X90265965Y-98472830D01*
X90265967Y-98472834D01*
X90401501Y-98666395D01*
X90401506Y-98666402D01*
X90568597Y-98833493D01*
X90568603Y-98833498D01*
X90754158Y-98963425D01*
X90797783Y-99018002D01*
X90804977Y-99087500D01*
X90773454Y-99149855D01*
X90754158Y-99166575D01*
X90568597Y-99296505D01*
X90401505Y-99463597D01*
X90265965Y-99657169D01*
X90265964Y-99657171D01*
X90172401Y-99857816D01*
X90168430Y-99866335D01*
X90166098Y-99871335D01*
X90166094Y-99871344D01*
X90104938Y-100099586D01*
X90104936Y-100099596D01*
X90084341Y-100334999D01*
X90084341Y-100335000D01*
X90104936Y-100570403D01*
X90104938Y-100570413D01*
X90166094Y-100798655D01*
X90166096Y-100798659D01*
X90166097Y-100798663D01*
X90239232Y-100955500D01*
X90265965Y-101012830D01*
X90265967Y-101012834D01*
X90401501Y-101206395D01*
X90401506Y-101206402D01*
X90568597Y-101373493D01*
X90568603Y-101373498D01*
X90754158Y-101503425D01*
X90797783Y-101558002D01*
X90804977Y-101627500D01*
X90773454Y-101689855D01*
X90754158Y-101706575D01*
X90568597Y-101836505D01*
X90401505Y-102003597D01*
X90265965Y-102197169D01*
X90265964Y-102197171D01*
X90172401Y-102397816D01*
X90168430Y-102406335D01*
X90166098Y-102411335D01*
X90166094Y-102411344D01*
X90104938Y-102639586D01*
X90104936Y-102639596D01*
X90084341Y-102874999D01*
X90084341Y-102875000D01*
X90104936Y-103110403D01*
X90104938Y-103110413D01*
X90166094Y-103338655D01*
X90166096Y-103338659D01*
X90166097Y-103338663D01*
X90228023Y-103471463D01*
X90265965Y-103552830D01*
X90265967Y-103552834D01*
X90401501Y-103746395D01*
X90401506Y-103746402D01*
X90568597Y-103913493D01*
X90568603Y-103913498D01*
X90754158Y-104043425D01*
X90797783Y-104098002D01*
X90804977Y-104167500D01*
X90773454Y-104229855D01*
X90754158Y-104246575D01*
X90568597Y-104376505D01*
X90401505Y-104543597D01*
X90265965Y-104737169D01*
X90265964Y-104737171D01*
X90172401Y-104937816D01*
X90168430Y-104946335D01*
X90166098Y-104951335D01*
X90166094Y-104951344D01*
X90104938Y-105179586D01*
X90104936Y-105179596D01*
X90084341Y-105414999D01*
X90084341Y-105415000D01*
X90104936Y-105650403D01*
X90104938Y-105650413D01*
X90166094Y-105878655D01*
X90166096Y-105878659D01*
X90166097Y-105878663D01*
X90239232Y-106035500D01*
X90265965Y-106092830D01*
X90265967Y-106092834D01*
X90343890Y-106204119D01*
X90401505Y-106286401D01*
X90568599Y-106453495D01*
X90611311Y-106483402D01*
X90762165Y-106589032D01*
X90762167Y-106589033D01*
X90762170Y-106589035D01*
X90976337Y-106688903D01*
X91204592Y-106750063D01*
X91382851Y-106765659D01*
X91439999Y-106770659D01*
X91440000Y-106770659D01*
X91440001Y-106770659D01*
X91497149Y-106765659D01*
X91675408Y-106750063D01*
X91903663Y-106688903D01*
X92117830Y-106589035D01*
X92311401Y-106453495D01*
X92478495Y-106286401D01*
X92614035Y-106092830D01*
X92713903Y-105878663D01*
X92775063Y-105650408D01*
X92795659Y-105415000D01*
X92795221Y-105409999D01*
X92775063Y-105179596D01*
X92775063Y-105179592D01*
X92728626Y-105006285D01*
X92713905Y-104951344D01*
X92713904Y-104951343D01*
X92713903Y-104951337D01*
X92614035Y-104737171D01*
X92499623Y-104573773D01*
X92477297Y-104507569D01*
X92494307Y-104439802D01*
X92513514Y-104414975D01*
X92900819Y-104027671D01*
X92962142Y-103994186D01*
X93031834Y-103999170D01*
X93076181Y-104027671D01*
X94854116Y-105805606D01*
X94854145Y-105805637D01*
X94944363Y-105895855D01*
X94944367Y-105895858D01*
X95046807Y-105964307D01*
X95046813Y-105964310D01*
X95046814Y-105964311D01*
X95160648Y-106011463D01*
X95221071Y-106023481D01*
X95265095Y-106032238D01*
X95327005Y-106064625D01*
X95342102Y-106083926D01*
X95342860Y-106083396D01*
X95345965Y-106087830D01*
X95481505Y-106281401D01*
X95648599Y-106448495D01*
X95737151Y-106510500D01*
X95842165Y-106584032D01*
X95842167Y-106584033D01*
X95842170Y-106584035D01*
X96056337Y-106683903D01*
X96284592Y-106745063D01*
X96472918Y-106761539D01*
X96519999Y-106765659D01*
X96520000Y-106765659D01*
X96520001Y-106765659D01*
X96559234Y-106762226D01*
X96755408Y-106745063D01*
X96983663Y-106683903D01*
X97197830Y-106584035D01*
X97391401Y-106448495D01*
X97558495Y-106281401D01*
X97694035Y-106087830D01*
X97793903Y-105873663D01*
X97855063Y-105645408D01*
X97875659Y-105410000D01*
X97855063Y-105174592D01*
X97793903Y-104946337D01*
X97694035Y-104732171D01*
X97666657Y-104693070D01*
X97558494Y-104538597D01*
X97391402Y-104371506D01*
X97391396Y-104371501D01*
X97205842Y-104241575D01*
X97162217Y-104186998D01*
X97155023Y-104117500D01*
X97186546Y-104055145D01*
X97205842Y-104038425D01*
X97269022Y-103994186D01*
X97391401Y-103908495D01*
X97558495Y-103741401D01*
X97694035Y-103547830D01*
X97793903Y-103333663D01*
X97855063Y-103105408D01*
X97875659Y-102870000D01*
X97855063Y-102634592D01*
X97793903Y-102406337D01*
X97694035Y-102192171D01*
X97672267Y-102161082D01*
X97558494Y-101998597D01*
X97391402Y-101831506D01*
X97391396Y-101831501D01*
X97205842Y-101701575D01*
X97162217Y-101646998D01*
X97155023Y-101577500D01*
X97186546Y-101515145D01*
X97205842Y-101498425D01*
X97259100Y-101461133D01*
X97391401Y-101368495D01*
X97558495Y-101201401D01*
X97694035Y-101007830D01*
X97793903Y-100793663D01*
X97855063Y-100565408D01*
X97875659Y-100330000D01*
X97855063Y-100094592D01*
X97793903Y-99866337D01*
X97694035Y-99652171D01*
X97685083Y-99639385D01*
X97558494Y-99458597D01*
X97391402Y-99291506D01*
X97391396Y-99291501D01*
X97205842Y-99161575D01*
X97162217Y-99106998D01*
X97155023Y-99037500D01*
X97186546Y-98975145D01*
X97205842Y-98958425D01*
X97228026Y-98942891D01*
X97391401Y-98828495D01*
X97558495Y-98661401D01*
X97694035Y-98467830D01*
X97793903Y-98253663D01*
X97855063Y-98025408D01*
X97875659Y-97790000D01*
X97855063Y-97554592D01*
X97793903Y-97326337D01*
X97694035Y-97112171D01*
X97666886Y-97073397D01*
X97558494Y-96918597D01*
X97391402Y-96751506D01*
X97391396Y-96751501D01*
X97205842Y-96621575D01*
X97162217Y-96566998D01*
X97155023Y-96497500D01*
X97186546Y-96435145D01*
X97205842Y-96418425D01*
X97259100Y-96381133D01*
X97391401Y-96288495D01*
X97558495Y-96121401D01*
X97694035Y-95927830D01*
X97793903Y-95713663D01*
X97855063Y-95485408D01*
X97875659Y-95250000D01*
X97855063Y-95014592D01*
X97793903Y-94786337D01*
X97694035Y-94572171D01*
X97686741Y-94561753D01*
X97558494Y-94378597D01*
X97391402Y-94211506D01*
X97391396Y-94211501D01*
X97205842Y-94081575D01*
X97162217Y-94026998D01*
X97155023Y-93957500D01*
X97186546Y-93895145D01*
X97205842Y-93878425D01*
X97259100Y-93841133D01*
X97391401Y-93748495D01*
X97558495Y-93581401D01*
X97694035Y-93387830D01*
X97793903Y-93173663D01*
X97855063Y-92945408D01*
X97875659Y-92710000D01*
X97855063Y-92474592D01*
X97793903Y-92246337D01*
X97694035Y-92032171D01*
X97666657Y-91993070D01*
X97558494Y-91838597D01*
X97391402Y-91671506D01*
X97391396Y-91671501D01*
X97205842Y-91541575D01*
X97162217Y-91486998D01*
X97155023Y-91417500D01*
X97186546Y-91355145D01*
X97205842Y-91338425D01*
X97298801Y-91273334D01*
X97391401Y-91208495D01*
X97558495Y-91041401D01*
X97694035Y-90847830D01*
X97793903Y-90633663D01*
X97855063Y-90405408D01*
X97875659Y-90170000D01*
X97855063Y-89934592D01*
X97803556Y-89742363D01*
X97793905Y-89706344D01*
X97793904Y-89706343D01*
X97793903Y-89706337D01*
X97694035Y-89492171D01*
X97666657Y-89453070D01*
X97558494Y-89298597D01*
X97391402Y-89131506D01*
X97391396Y-89131501D01*
X97205842Y-89001575D01*
X97162217Y-88946998D01*
X97155023Y-88877500D01*
X97186546Y-88815145D01*
X97205842Y-88798425D01*
X97255180Y-88763878D01*
X97391401Y-88668495D01*
X97558495Y-88501401D01*
X97694035Y-88307830D01*
X97793903Y-88093663D01*
X97855063Y-87865408D01*
X97875659Y-87630000D01*
X97855063Y-87394592D01*
X97793903Y-87166337D01*
X97694035Y-86952171D01*
X97688624Y-86944442D01*
X97558494Y-86758597D01*
X97391402Y-86591506D01*
X97391396Y-86591501D01*
X97205842Y-86461575D01*
X97162217Y-86406998D01*
X97155023Y-86337500D01*
X97186546Y-86275145D01*
X97205842Y-86258425D01*
X97284467Y-86203371D01*
X97391401Y-86128495D01*
X97558495Y-85961401D01*
X97694035Y-85767830D01*
X97793903Y-85553663D01*
X97855063Y-85325408D01*
X97875659Y-85090000D01*
X97855063Y-84854592D01*
X97793903Y-84626337D01*
X97694035Y-84412171D01*
X97666656Y-84373070D01*
X97558496Y-84218600D01*
X97558495Y-84218599D01*
X97436567Y-84096671D01*
X97403084Y-84035351D01*
X97408068Y-83965659D01*
X97449939Y-83909725D01*
X97480915Y-83892810D01*
X97612331Y-83843796D01*
X97727546Y-83757546D01*
X97813796Y-83642331D01*
X97864091Y-83507483D01*
X97870500Y-83447873D01*
X97870499Y-81652128D01*
X97865299Y-81603757D01*
X97864091Y-81592516D01*
X97813797Y-81457671D01*
X97813793Y-81457664D01*
X97727547Y-81342455D01*
X97727544Y-81342452D01*
X97612335Y-81256206D01*
X97612328Y-81256202D01*
X97477482Y-81205908D01*
X97477483Y-81205908D01*
X97417883Y-81199501D01*
X97417881Y-81199500D01*
X97417873Y-81199500D01*
X97417864Y-81199500D01*
X95622129Y-81199500D01*
X95622123Y-81199501D01*
X95562516Y-81205908D01*
X95427671Y-81256202D01*
X95427664Y-81256206D01*
X95312455Y-81342452D01*
X95312452Y-81342455D01*
X95226206Y-81457664D01*
X95226202Y-81457671D01*
X95175908Y-81592517D01*
X95169501Y-81652116D01*
X95169501Y-81652123D01*
X95169500Y-81652135D01*
X95169500Y-83447870D01*
X95169501Y-83447876D01*
X95175908Y-83507483D01*
X95226202Y-83642328D01*
X95226206Y-83642335D01*
X95312452Y-83757544D01*
X95312455Y-83757547D01*
X95427664Y-83843793D01*
X95427671Y-83843797D01*
X95559081Y-83892810D01*
X95615015Y-83934681D01*
X95639432Y-84000145D01*
X95624580Y-84068418D01*
X95603430Y-84096673D01*
X95481503Y-84218600D01*
X95345965Y-84412169D01*
X95345964Y-84412171D01*
X95246098Y-84626335D01*
X95246094Y-84626344D01*
X95184938Y-84854586D01*
X95184936Y-84854596D01*
X95164341Y-85089999D01*
X95164341Y-85090000D01*
X95184936Y-85325403D01*
X95184938Y-85325413D01*
X95246094Y-85553655D01*
X95246096Y-85553659D01*
X95246097Y-85553663D01*
X95283134Y-85633088D01*
X95345965Y-85767830D01*
X95345967Y-85767834D01*
X95481501Y-85961395D01*
X95481506Y-85961402D01*
X95648597Y-86128493D01*
X95648603Y-86128498D01*
X95834158Y-86258425D01*
X95877783Y-86313002D01*
X95884977Y-86382500D01*
X95853454Y-86444855D01*
X95834158Y-86461575D01*
X95648597Y-86591505D01*
X95481505Y-86758597D01*
X95345965Y-86952169D01*
X95345964Y-86952171D01*
X95246098Y-87166335D01*
X95246094Y-87166344D01*
X95184938Y-87394586D01*
X95184936Y-87394596D01*
X95164341Y-87629999D01*
X95164341Y-87630000D01*
X95184936Y-87865403D01*
X95184938Y-87865413D01*
X95246094Y-88093655D01*
X95246096Y-88093659D01*
X95246097Y-88093663D01*
X95320304Y-88252800D01*
X95345965Y-88307830D01*
X95345967Y-88307834D01*
X95481501Y-88501395D01*
X95481506Y-88501402D01*
X95648597Y-88668493D01*
X95648603Y-88668498D01*
X95834158Y-88798425D01*
X95877783Y-88853002D01*
X95884977Y-88922500D01*
X95853454Y-88984855D01*
X95834158Y-89001575D01*
X95648597Y-89131505D01*
X95481505Y-89298597D01*
X95345965Y-89492169D01*
X95345964Y-89492171D01*
X95246098Y-89706335D01*
X95246094Y-89706344D01*
X95184938Y-89934586D01*
X95184936Y-89934596D01*
X95164341Y-90169999D01*
X95164341Y-90170000D01*
X95184936Y-90405403D01*
X95184938Y-90405413D01*
X95246094Y-90633655D01*
X95246096Y-90633659D01*
X95246097Y-90633663D01*
X95298848Y-90746788D01*
X95345965Y-90847830D01*
X95345967Y-90847834D01*
X95481501Y-91041395D01*
X95481506Y-91041402D01*
X95648597Y-91208493D01*
X95648603Y-91208498D01*
X95834158Y-91338425D01*
X95877783Y-91393002D01*
X95884977Y-91462500D01*
X95853454Y-91524855D01*
X95834158Y-91541575D01*
X95648597Y-91671505D01*
X95481505Y-91838597D01*
X95345965Y-92032169D01*
X95345964Y-92032171D01*
X95246098Y-92246335D01*
X95246094Y-92246344D01*
X95184938Y-92474586D01*
X95184936Y-92474596D01*
X95164341Y-92709999D01*
X95164341Y-92710000D01*
X95184936Y-92945403D01*
X95184938Y-92945413D01*
X95246094Y-93173655D01*
X95246096Y-93173659D01*
X95246097Y-93173663D01*
X95287180Y-93261765D01*
X95345965Y-93387830D01*
X95345967Y-93387834D01*
X95481501Y-93581395D01*
X95481506Y-93581402D01*
X95648597Y-93748493D01*
X95648603Y-93748498D01*
X95834158Y-93878425D01*
X95877783Y-93933002D01*
X95884977Y-94002500D01*
X95853454Y-94064855D01*
X95834158Y-94081575D01*
X95648597Y-94211505D01*
X95481505Y-94378597D01*
X95345965Y-94572169D01*
X95345964Y-94572171D01*
X95246098Y-94786335D01*
X95246094Y-94786344D01*
X95184938Y-95014586D01*
X95184936Y-95014596D01*
X95164341Y-95249999D01*
X95164341Y-95250000D01*
X95184936Y-95485403D01*
X95184938Y-95485413D01*
X95246094Y-95713655D01*
X95246096Y-95713659D01*
X95246097Y-95713663D01*
X95330742Y-95895185D01*
X95345965Y-95927830D01*
X95345967Y-95927834D01*
X95395262Y-95998234D01*
X95477470Y-96115639D01*
X95481501Y-96121395D01*
X95481506Y-96121402D01*
X95648597Y-96288493D01*
X95648603Y-96288498D01*
X95834158Y-96418425D01*
X95877783Y-96473002D01*
X95884977Y-96542500D01*
X95853454Y-96604855D01*
X95834158Y-96621575D01*
X95648597Y-96751505D01*
X95481505Y-96918597D01*
X95345965Y-97112169D01*
X95345964Y-97112171D01*
X95246098Y-97326335D01*
X95246094Y-97326344D01*
X95184938Y-97554586D01*
X95184936Y-97554596D01*
X95164341Y-97789999D01*
X95164341Y-97790000D01*
X95184936Y-98025403D01*
X95184938Y-98025413D01*
X95246094Y-98253655D01*
X95246096Y-98253659D01*
X95246097Y-98253663D01*
X95330742Y-98435185D01*
X95345965Y-98467830D01*
X95345967Y-98467834D01*
X95481501Y-98661395D01*
X95481506Y-98661402D01*
X95648597Y-98828493D01*
X95648603Y-98828498D01*
X95834158Y-98958425D01*
X95877783Y-99013002D01*
X95884977Y-99082500D01*
X95853454Y-99144855D01*
X95834158Y-99161575D01*
X95648597Y-99291505D01*
X95481505Y-99458597D01*
X95345965Y-99652169D01*
X95345964Y-99652171D01*
X95246098Y-99866335D01*
X95246094Y-99866344D01*
X95184938Y-100094586D01*
X95184936Y-100094596D01*
X95164341Y-100329999D01*
X95164341Y-100330000D01*
X95184936Y-100565403D01*
X95184938Y-100565413D01*
X95246094Y-100793655D01*
X95246096Y-100793659D01*
X95246097Y-100793663D01*
X95312214Y-100935450D01*
X95345965Y-101007830D01*
X95345967Y-101007834D01*
X95481501Y-101201395D01*
X95481506Y-101201402D01*
X95648597Y-101368493D01*
X95648603Y-101368498D01*
X95834158Y-101498425D01*
X95877783Y-101553002D01*
X95884977Y-101622500D01*
X95853454Y-101684855D01*
X95834158Y-101701575D01*
X95648597Y-101831505D01*
X95481505Y-101998597D01*
X95345965Y-102192169D01*
X95345964Y-102192171D01*
X95246098Y-102406335D01*
X95246094Y-102406344D01*
X95184938Y-102634586D01*
X95184936Y-102634596D01*
X95164341Y-102869999D01*
X95164341Y-102870000D01*
X95184936Y-103105403D01*
X95184938Y-103105413D01*
X95246094Y-103333655D01*
X95246096Y-103333659D01*
X95246097Y-103333663D01*
X95321563Y-103495500D01*
X95345965Y-103547830D01*
X95345967Y-103547834D01*
X95481501Y-103741395D01*
X95481506Y-103741402D01*
X95648597Y-103908493D01*
X95648603Y-103908498D01*
X95834158Y-104038425D01*
X95877783Y-104093002D01*
X95884977Y-104162500D01*
X95853454Y-104224855D01*
X95834158Y-104241575D01*
X95648600Y-104371503D01*
X95506577Y-104513526D01*
X95445254Y-104547010D01*
X95375562Y-104542026D01*
X95331215Y-104513525D01*
X93960770Y-103143080D01*
X93927285Y-103081757D01*
X93932269Y-103012065D01*
X93960766Y-102967723D01*
X94378729Y-102549760D01*
X94378733Y-102549758D01*
X94465858Y-102462633D01*
X94534311Y-102360186D01*
X94534312Y-102360185D01*
X94534313Y-102360182D01*
X94534315Y-102360179D01*
X94555545Y-102308923D01*
X94569312Y-102275686D01*
X94581463Y-102246352D01*
X94605500Y-102125506D01*
X94605500Y-72644499D01*
X94625185Y-72577460D01*
X94677989Y-72531705D01*
X94729500Y-72520499D01*
X94927871Y-72520499D01*
X94927872Y-72520499D01*
X94987483Y-72514091D01*
X95122331Y-72463796D01*
X95237546Y-72377546D01*
X95323796Y-72262331D01*
X95374091Y-72127483D01*
X95380500Y-72067873D01*
X95380499Y-70172128D01*
X95374091Y-70112517D01*
X95373863Y-70111907D01*
X95323797Y-69977671D01*
X95323793Y-69977664D01*
X95237547Y-69862455D01*
X95237544Y-69862452D01*
X95122335Y-69776206D01*
X95122328Y-69776202D01*
X94987482Y-69725908D01*
X94987483Y-69725908D01*
X94927883Y-69719501D01*
X94927881Y-69719500D01*
X94927873Y-69719500D01*
X94927864Y-69719500D01*
X93032129Y-69719500D01*
X93032123Y-69719501D01*
X92972516Y-69725908D01*
X92837671Y-69776202D01*
X92837664Y-69776206D01*
X92722455Y-69862452D01*
X92722452Y-69862455D01*
X92636206Y-69977664D01*
X92636203Y-69977670D01*
X92607544Y-70054508D01*
X92565672Y-70110441D01*
X92500208Y-70134858D01*
X92431935Y-70120006D01*
X92400135Y-70095158D01*
X92391784Y-70086087D01*
X92391778Y-70086082D01*
X92391777Y-70086081D01*
X92208634Y-69943535D01*
X92208628Y-69943531D01*
X92004504Y-69833064D01*
X92004495Y-69833061D01*
X91784984Y-69757702D01*
X91594450Y-69725908D01*
X91556049Y-69719500D01*
X91323951Y-69719500D01*
X91285550Y-69725908D01*
X91095015Y-69757702D01*
X90875504Y-69833061D01*
X90875495Y-69833064D01*
X90671371Y-69943531D01*
X90671365Y-69943535D01*
X90488222Y-70086081D01*
X90488219Y-70086084D01*
X90488216Y-70086086D01*
X90488216Y-70086087D01*
X90448252Y-70129500D01*
X90331016Y-70256852D01*
X90204075Y-70451151D01*
X90110842Y-70663699D01*
X90053866Y-70888691D01*
X90053864Y-70888702D01*
X90034700Y-71119993D01*
X90034700Y-71120006D01*
X90053864Y-71351297D01*
X90053866Y-71351308D01*
X90110842Y-71576300D01*
X90204075Y-71788848D01*
X90331016Y-71983147D01*
X90331019Y-71983151D01*
X90331021Y-71983153D01*
X90488216Y-72153913D01*
X90488219Y-72153915D01*
X90488222Y-72153918D01*
X90671365Y-72296464D01*
X90671371Y-72296468D01*
X90671374Y-72296470D01*
X90875497Y-72406936D01*
X90929479Y-72425468D01*
X91095015Y-72482297D01*
X91095017Y-72482297D01*
X91095019Y-72482298D01*
X91323951Y-72520500D01*
X91323952Y-72520500D01*
X91556048Y-72520500D01*
X91556049Y-72520500D01*
X91784981Y-72482298D01*
X92004503Y-72406936D01*
X92208626Y-72296470D01*
X92211759Y-72294032D01*
X92316732Y-72212328D01*
X92391784Y-72153913D01*
X92400130Y-72144846D01*
X92460010Y-72108854D01*
X92529849Y-72110949D01*
X92587468Y-72150469D01*
X92607544Y-72185491D01*
X92636203Y-72262330D01*
X92636206Y-72262335D01*
X92722452Y-72377544D01*
X92722455Y-72377547D01*
X92837664Y-72463793D01*
X92837671Y-72463797D01*
X92855643Y-72470500D01*
X92972517Y-72514091D01*
X93032127Y-72520500D01*
X93230500Y-72520499D01*
X93297539Y-72540183D01*
X93343294Y-72592987D01*
X93354500Y-72644499D01*
X93354500Y-101753447D01*
X93334815Y-101820486D01*
X93318181Y-101841128D01*
X92849958Y-102309350D01*
X92788635Y-102342835D01*
X92718943Y-102337851D01*
X92663010Y-102295979D01*
X92649895Y-102274073D01*
X92636969Y-102246354D01*
X92614035Y-102197171D01*
X92588766Y-102161082D01*
X92478494Y-102003597D01*
X92311402Y-101836506D01*
X92311396Y-101836501D01*
X92125842Y-101706575D01*
X92082217Y-101651998D01*
X92075023Y-101582500D01*
X92106546Y-101520145D01*
X92125842Y-101503425D01*
X92268689Y-101403402D01*
X92311401Y-101373495D01*
X92478495Y-101206401D01*
X92614035Y-101012830D01*
X92713903Y-100798663D01*
X92775063Y-100570408D01*
X92795659Y-100335000D01*
X92795221Y-100329999D01*
X92791349Y-100285734D01*
X92775063Y-100099592D01*
X92728626Y-99926285D01*
X92713905Y-99871344D01*
X92713904Y-99871343D01*
X92713903Y-99871337D01*
X92614035Y-99657171D01*
X92601582Y-99639385D01*
X92478494Y-99463597D01*
X92311402Y-99296506D01*
X92311396Y-99296501D01*
X92125842Y-99166575D01*
X92082217Y-99111998D01*
X92075023Y-99042500D01*
X92106546Y-98980145D01*
X92125842Y-98963425D01*
X92268689Y-98863402D01*
X92311401Y-98833495D01*
X92478495Y-98666401D01*
X92614035Y-98472830D01*
X92713903Y-98258663D01*
X92775063Y-98030408D01*
X92795659Y-97795000D01*
X92795221Y-97789999D01*
X92782970Y-97649968D01*
X92775063Y-97559592D01*
X92723658Y-97367742D01*
X92713905Y-97331344D01*
X92713904Y-97331343D01*
X92713903Y-97331337D01*
X92614035Y-97117171D01*
X92610709Y-97112420D01*
X92478494Y-96923597D01*
X92311402Y-96756506D01*
X92311396Y-96756501D01*
X92125842Y-96626575D01*
X92082217Y-96571998D01*
X92075023Y-96502500D01*
X92106546Y-96440145D01*
X92125842Y-96423425D01*
X92148026Y-96407891D01*
X92311401Y-96293495D01*
X92478495Y-96126401D01*
X92614035Y-95932830D01*
X92713903Y-95718663D01*
X92775063Y-95490408D01*
X92795659Y-95255000D01*
X92795221Y-95249999D01*
X92781605Y-95094363D01*
X92775063Y-95019592D01*
X92725142Y-94833281D01*
X92713905Y-94791344D01*
X92713904Y-94791343D01*
X92713903Y-94791337D01*
X92614035Y-94577171D01*
X92603240Y-94561753D01*
X92478494Y-94383597D01*
X92311402Y-94216506D01*
X92311396Y-94216501D01*
X92125842Y-94086575D01*
X92082217Y-94031998D01*
X92075023Y-93962500D01*
X92106546Y-93900145D01*
X92125842Y-93883425D01*
X92229989Y-93810500D01*
X92311401Y-93753495D01*
X92478495Y-93586401D01*
X92614035Y-93392830D01*
X92713903Y-93178663D01*
X92775063Y-92950408D01*
X92795659Y-92715000D01*
X92795221Y-92709999D01*
X92775063Y-92479596D01*
X92775063Y-92479592D01*
X92728626Y-92306285D01*
X92713905Y-92251344D01*
X92713904Y-92251343D01*
X92713903Y-92251337D01*
X92614035Y-92037171D01*
X92611386Y-92033387D01*
X92478494Y-91843597D01*
X92311402Y-91676506D01*
X92311396Y-91676501D01*
X92125842Y-91546575D01*
X92082217Y-91491998D01*
X92075023Y-91422500D01*
X92106546Y-91360145D01*
X92125842Y-91343425D01*
X92268689Y-91243402D01*
X92311401Y-91213495D01*
X92478495Y-91046401D01*
X92614035Y-90852830D01*
X92713903Y-90638663D01*
X92775063Y-90410408D01*
X92795659Y-90175000D01*
X92795221Y-90169999D01*
X92787644Y-90083389D01*
X92775063Y-89939592D01*
X92728626Y-89766285D01*
X92713905Y-89711344D01*
X92713904Y-89711343D01*
X92713903Y-89711337D01*
X92614035Y-89497171D01*
X92612068Y-89494361D01*
X92478494Y-89303597D01*
X92311402Y-89136506D01*
X92311401Y-89136505D01*
X92254408Y-89096598D01*
X92125839Y-89006573D01*
X92082216Y-88951997D01*
X92075023Y-88882498D01*
X92106545Y-88820144D01*
X92125831Y-88803432D01*
X92311401Y-88673495D01*
X92478495Y-88506401D01*
X92614035Y-88312830D01*
X92713903Y-88098663D01*
X92775063Y-87870408D01*
X92795659Y-87635000D01*
X92795221Y-87629999D01*
X92775063Y-87399596D01*
X92775063Y-87399592D01*
X92728626Y-87226285D01*
X92713905Y-87171344D01*
X92713904Y-87171343D01*
X92713903Y-87171337D01*
X92614035Y-86957171D01*
X92611386Y-86953387D01*
X92478494Y-86763597D01*
X92311402Y-86596506D01*
X92311396Y-86596501D01*
X92125842Y-86466575D01*
X92082217Y-86411998D01*
X92075023Y-86342500D01*
X92106546Y-86280145D01*
X92125842Y-86263425D01*
X92268689Y-86163402D01*
X92311401Y-86133495D01*
X92478495Y-85966401D01*
X92614035Y-85772830D01*
X92713903Y-85558663D01*
X92775063Y-85330408D01*
X92795659Y-85095000D01*
X92795221Y-85089999D01*
X92779259Y-84907555D01*
X92775063Y-84859592D01*
X92728626Y-84686285D01*
X92713905Y-84631344D01*
X92713904Y-84631343D01*
X92713903Y-84631337D01*
X92614035Y-84417171D01*
X92611385Y-84413387D01*
X92478496Y-84223600D01*
X92473495Y-84218599D01*
X92356567Y-84101671D01*
X92323084Y-84040351D01*
X92328068Y-83970659D01*
X92369939Y-83914725D01*
X92400915Y-83897810D01*
X92532331Y-83848796D01*
X92647546Y-83762546D01*
X92733796Y-83647331D01*
X92784091Y-83512483D01*
X92790500Y-83452873D01*
X92790499Y-81657128D01*
X92784091Y-81597517D01*
X92733796Y-81462669D01*
X92733795Y-81462668D01*
X92733793Y-81462664D01*
X92647547Y-81347455D01*
X92647544Y-81347452D01*
X92532335Y-81261206D01*
X92532328Y-81261202D01*
X92397482Y-81210908D01*
X92397483Y-81210908D01*
X92337883Y-81204501D01*
X92337881Y-81204500D01*
X92337873Y-81204500D01*
X92337864Y-81204500D01*
X90542129Y-81204500D01*
X90542123Y-81204501D01*
X90482516Y-81210908D01*
X90347671Y-81261202D01*
X90347664Y-81261206D01*
X90232455Y-81347452D01*
X90232452Y-81347455D01*
X90146206Y-81462664D01*
X90146202Y-81462671D01*
X90095908Y-81597517D01*
X90089501Y-81657116D01*
X90089501Y-81657123D01*
X90089500Y-81657135D01*
X90089500Y-83452870D01*
X90089501Y-83452876D01*
X90095908Y-83512483D01*
X90146202Y-83647328D01*
X90146206Y-83647335D01*
X90232452Y-83762544D01*
X90232455Y-83762547D01*
X90347664Y-83848793D01*
X90347671Y-83848797D01*
X90479081Y-83897810D01*
X90535015Y-83939681D01*
X90559432Y-84005145D01*
X90544580Y-84073418D01*
X90523430Y-84101673D01*
X90401503Y-84223600D01*
X90265965Y-84417169D01*
X90265964Y-84417171D01*
X90210697Y-84535692D01*
X90168430Y-84626335D01*
X90166098Y-84631335D01*
X90166094Y-84631344D01*
X90104938Y-84859586D01*
X90104936Y-84859596D01*
X90084341Y-85094999D01*
X90084341Y-85095000D01*
X90104936Y-85330403D01*
X90104938Y-85330413D01*
X90166094Y-85558655D01*
X90166096Y-85558659D01*
X90166097Y-85558663D01*
X90251507Y-85741825D01*
X90265965Y-85772830D01*
X90265967Y-85772834D01*
X90401501Y-85966395D01*
X90401506Y-85966402D01*
X90568597Y-86133493D01*
X90568603Y-86133498D01*
X90754158Y-86263425D01*
X90797783Y-86318002D01*
X90804977Y-86387500D01*
X90773454Y-86449855D01*
X90754158Y-86466575D01*
X90568597Y-86596505D01*
X90401505Y-86763597D01*
X90265965Y-86957169D01*
X90265964Y-86957171D01*
X90194739Y-87109915D01*
X90168430Y-87166335D01*
X90166098Y-87171335D01*
X90166094Y-87171344D01*
X90104938Y-87399586D01*
X90104936Y-87399596D01*
X90084341Y-87634999D01*
X90084341Y-87635000D01*
X90104936Y-87870403D01*
X90104938Y-87870413D01*
X90147781Y-88030307D01*
X90146118Y-88100157D01*
X90106955Y-88158019D01*
X90042727Y-88185523D01*
X90028006Y-88186400D01*
X89074289Y-88186400D01*
X89013871Y-88198418D01*
X88971793Y-88206788D01*
X88953446Y-88210437D01*
X88839616Y-88257587D01*
X88839607Y-88257592D01*
X88737168Y-88326040D01*
X88693605Y-88369603D01*
X88650042Y-88413167D01*
X88584128Y-88479081D01*
X88522805Y-88512566D01*
X88496447Y-88515400D01*
X81888252Y-88515400D01*
X81821213Y-88495715D01*
X81800571Y-88479081D01*
X80557098Y-87235608D01*
X80557078Y-87235586D01*
X80465633Y-87144141D01*
X80414409Y-87109915D01*
X80363187Y-87075689D01*
X80363186Y-87075688D01*
X80363183Y-87075686D01*
X80363180Y-87075685D01*
X80282692Y-87042347D01*
X80249353Y-87028537D01*
X80239327Y-87026543D01*
X80188929Y-87016518D01*
X80128510Y-87004500D01*
X80128507Y-87004500D01*
X80128506Y-87004500D01*
X80109022Y-87004500D01*
X80041983Y-86984815D01*
X80008705Y-86953387D01*
X79979414Y-86913072D01*
X79856930Y-86790588D01*
X79856928Y-86790586D01*
X79716788Y-86688768D01*
X79562445Y-86610127D01*
X79397701Y-86556598D01*
X79397699Y-86556597D01*
X79397698Y-86556597D01*
X79266271Y-86535781D01*
X79226611Y-86529500D01*
X78253389Y-86529500D01*
X78181997Y-86540807D01*
X78112704Y-86531852D01*
X78059252Y-86486856D01*
X78038613Y-86420104D01*
X78038600Y-86418334D01*
X78038600Y-86301665D01*
X78058285Y-86234626D01*
X78111089Y-86188871D01*
X78180247Y-86178927D01*
X78181868Y-86179172D01*
X78253389Y-86190500D01*
X78253391Y-86190500D01*
X79226610Y-86190500D01*
X79226611Y-86190500D01*
X79397701Y-86163402D01*
X79562445Y-86109873D01*
X79716788Y-86031232D01*
X79856928Y-85929414D01*
X79979414Y-85806928D01*
X80081232Y-85666788D01*
X80159873Y-85512445D01*
X80213402Y-85347701D01*
X80240500Y-85176611D01*
X80240500Y-85003389D01*
X80213402Y-84832299D01*
X80159873Y-84667555D01*
X80081232Y-84513212D01*
X79979414Y-84373072D01*
X79856928Y-84250586D01*
X79716788Y-84148768D01*
X79562445Y-84070127D01*
X79397701Y-84016598D01*
X79397699Y-84016597D01*
X79397698Y-84016597D01*
X79266271Y-83995781D01*
X79226611Y-83989500D01*
X78253389Y-83989500D01*
X78213728Y-83995781D01*
X78082302Y-84016597D01*
X77917552Y-84070128D01*
X77763211Y-84148768D01*
X77683256Y-84206859D01*
X77623072Y-84250586D01*
X77623070Y-84250588D01*
X77623069Y-84250588D01*
X77500585Y-84373072D01*
X77471295Y-84413387D01*
X77415965Y-84456052D01*
X77370978Y-84464500D01*
X77351489Y-84464500D01*
X77230655Y-84488535D01*
X77230645Y-84488538D01*
X77116816Y-84535687D01*
X77116807Y-84535692D01*
X77014367Y-84604141D01*
X77014363Y-84604144D01*
X76927244Y-84691263D01*
X76927241Y-84691267D01*
X76858792Y-84793707D01*
X76858787Y-84793716D01*
X76811638Y-84907545D01*
X76811635Y-84907555D01*
X76787600Y-85028389D01*
X76787600Y-88655747D01*
X76767915Y-88722786D01*
X76751281Y-88743428D01*
X75079745Y-90414963D01*
X75018422Y-90448448D01*
X74948730Y-90443464D01*
X74930530Y-90433392D01*
X74929876Y-90434526D01*
X74922836Y-90430461D01*
X74776765Y-90369957D01*
X74776763Y-90369956D01*
X74776762Y-90369956D01*
X74744043Y-90365648D01*
X74715814Y-90361932D01*
X74651918Y-90333665D01*
X74613447Y-90275341D01*
X74608000Y-90238993D01*
X74608000Y-86291052D01*
X74627685Y-86224013D01*
X74644319Y-86203371D01*
X76015391Y-84832299D01*
X77453139Y-83394550D01*
X77514460Y-83361067D01*
X77584152Y-83366051D01*
X77619086Y-83386610D01*
X77619131Y-83386550D01*
X77619758Y-83387006D01*
X77621349Y-83387942D01*
X77623069Y-83389411D01*
X77623072Y-83389414D01*
X77763212Y-83491232D01*
X77917555Y-83569873D01*
X78082299Y-83623402D01*
X78253389Y-83650500D01*
X78253390Y-83650500D01*
X79226610Y-83650500D01*
X79226611Y-83650500D01*
X79397701Y-83623402D01*
X79562445Y-83569873D01*
X79716788Y-83491232D01*
X79856928Y-83389414D01*
X79979414Y-83266928D01*
X80081232Y-83126788D01*
X80159873Y-82972445D01*
X80213402Y-82807701D01*
X80240500Y-82636611D01*
X80240500Y-82463389D01*
X80213402Y-82292299D01*
X80159873Y-82127555D01*
X80081232Y-81973212D01*
X79979414Y-81833072D01*
X79856928Y-81710586D01*
X79716788Y-81608768D01*
X79562445Y-81530127D01*
X79397701Y-81476598D01*
X79397699Y-81476597D01*
X79397698Y-81476597D01*
X79266271Y-81455781D01*
X79226611Y-81449500D01*
X78253389Y-81449500D01*
X78213728Y-81455781D01*
X78082302Y-81476597D01*
X77917552Y-81530128D01*
X77763211Y-81608768D01*
X77696667Y-81657116D01*
X77623072Y-81710586D01*
X77623070Y-81710588D01*
X77623069Y-81710588D01*
X77500585Y-81833072D01*
X77471295Y-81873387D01*
X77415965Y-81916052D01*
X77370978Y-81924500D01*
X77351489Y-81924500D01*
X77291071Y-81936518D01*
X77253359Y-81944019D01*
X77230650Y-81948536D01*
X77230648Y-81948537D01*
X77197307Y-81962347D01*
X77116819Y-81995684D01*
X77116805Y-81995692D01*
X77014372Y-82064138D01*
X77014364Y-82064144D01*
X73496644Y-85581864D01*
X73496638Y-85581872D01*
X73428192Y-85684305D01*
X73428184Y-85684319D01*
X73404366Y-85741825D01*
X73394847Y-85764807D01*
X73389323Y-85778143D01*
X73381037Y-85798145D01*
X73381035Y-85798153D01*
X73357000Y-85918989D01*
X73357000Y-90238993D01*
X73337315Y-90306032D01*
X73284511Y-90351787D01*
X73249184Y-90361932D01*
X73188246Y-90369954D01*
X73188237Y-90369956D01*
X73042160Y-90430463D01*
X72916718Y-90526718D01*
X72820463Y-90652160D01*
X72759956Y-90798237D01*
X72759955Y-90798239D01*
X72744500Y-90915638D01*
X69495499Y-90915638D01*
X69495499Y-90915636D01*
X69480046Y-90798246D01*
X69480044Y-90798239D01*
X69480044Y-90798238D01*
X69419536Y-90652159D01*
X69323282Y-90526718D01*
X69197841Y-90430464D01*
X69051762Y-90369956D01*
X69019043Y-90365648D01*
X68990814Y-90361932D01*
X68926918Y-90333665D01*
X68888447Y-90275341D01*
X68883000Y-90238993D01*
X68883000Y-85918996D01*
X68879097Y-85899374D01*
X68858963Y-85798148D01*
X68848477Y-85772834D01*
X68845154Y-85764811D01*
X68845153Y-85764808D01*
X68811813Y-85684316D01*
X68811812Y-85684314D01*
X68800101Y-85666788D01*
X68777584Y-85633090D01*
X68743358Y-85581867D01*
X68743356Y-85581864D01*
X68653137Y-85491645D01*
X68653106Y-85491616D01*
X65317098Y-82155608D01*
X65317078Y-82155586D01*
X65225633Y-82064141D01*
X65174409Y-82029915D01*
X65123186Y-81995688D01*
X65123183Y-81995686D01*
X65123180Y-81995685D01*
X65042692Y-81962347D01*
X65009353Y-81948537D01*
X64999327Y-81946543D01*
X64948929Y-81936518D01*
X64888510Y-81924500D01*
X64888507Y-81924500D01*
X64888506Y-81924500D01*
X64869022Y-81924500D01*
X64801983Y-81904815D01*
X64768705Y-81873387D01*
X64739414Y-81833072D01*
X64616930Y-81710588D01*
X64616928Y-81710586D01*
X64476788Y-81608768D01*
X64322445Y-81530127D01*
X64157701Y-81476598D01*
X64157699Y-81476597D01*
X64157698Y-81476597D01*
X64026271Y-81455781D01*
X63986611Y-81449500D01*
X63013389Y-81449500D01*
X62973728Y-81455781D01*
X62842302Y-81476597D01*
X62677552Y-81530128D01*
X62523211Y-81608768D01*
X62456667Y-81657116D01*
X62383072Y-81710586D01*
X62383070Y-81710588D01*
X62383069Y-81710588D01*
X62260585Y-81833072D01*
X62228417Y-81877348D01*
X62173087Y-81920013D01*
X62103473Y-81925991D01*
X62041679Y-81893384D01*
X62007322Y-81832545D01*
X62004100Y-81804461D01*
X62004100Y-76724986D01*
X62645001Y-76724986D01*
X62655494Y-76827697D01*
X62710641Y-76994119D01*
X62710643Y-76994124D01*
X62802684Y-77143345D01*
X62926654Y-77267315D01*
X63075875Y-77359356D01*
X63075880Y-77359358D01*
X63242302Y-77414505D01*
X63242309Y-77414506D01*
X63345019Y-77424999D01*
X63482499Y-77424999D01*
X63482500Y-77424998D01*
X63482500Y-76450000D01*
X62645001Y-76450000D01*
X62645001Y-76724986D01*
X62004100Y-76724986D01*
X62004100Y-75675013D01*
X62645000Y-75675013D01*
X62645000Y-75950000D01*
X63482500Y-75950000D01*
X63482500Y-74975000D01*
X63982500Y-74975000D01*
X63982500Y-77424999D01*
X64119972Y-77424999D01*
X64119986Y-77424998D01*
X64222697Y-77414505D01*
X64389119Y-77359358D01*
X64389124Y-77359356D01*
X64538345Y-77267315D01*
X64662318Y-77143342D01*
X64664165Y-77140348D01*
X64665969Y-77138724D01*
X64666798Y-77137677D01*
X64666976Y-77137818D01*
X64716110Y-77093621D01*
X64785073Y-77082396D01*
X64849156Y-77110236D01*
X64875243Y-77140341D01*
X64877288Y-77143656D01*
X65001344Y-77267712D01*
X65150666Y-77359814D01*
X65317203Y-77414999D01*
X65419991Y-77425500D01*
X66195008Y-77425499D01*
X66195016Y-77425498D01*
X66195019Y-77425498D01*
X66251302Y-77419748D01*
X66297797Y-77414999D01*
X66464334Y-77359814D01*
X66613656Y-77267712D01*
X66737712Y-77143656D01*
X66829814Y-76994334D01*
X66857595Y-76910495D01*
X66897368Y-76853051D01*
X66961884Y-76826228D01*
X66975301Y-76825500D01*
X74985812Y-76825500D01*
X75052851Y-76845185D01*
X75087387Y-76878377D01*
X75199954Y-77039141D01*
X75360858Y-77200045D01*
X75360861Y-77200047D01*
X75547266Y-77330568D01*
X75753504Y-77426739D01*
X75973308Y-77485635D01*
X76135230Y-77499801D01*
X76199998Y-77505468D01*
X76200000Y-77505468D01*
X76200002Y-77505468D01*
X76256673Y-77500509D01*
X76426692Y-77485635D01*
X76646496Y-77426739D01*
X76852734Y-77330568D01*
X77039139Y-77200047D01*
X77200047Y-77039139D01*
X77330568Y-76852734D01*
X77426739Y-76646496D01*
X77485635Y-76426692D01*
X77505468Y-76200000D01*
X77485635Y-75973308D01*
X77426739Y-75753504D01*
X77330568Y-75547266D01*
X77200047Y-75360861D01*
X77200045Y-75360858D01*
X77039141Y-75199954D01*
X76852734Y-75069432D01*
X76852732Y-75069431D01*
X76646497Y-74973261D01*
X76646488Y-74973258D01*
X76426697Y-74914366D01*
X76426693Y-74914365D01*
X76426692Y-74914365D01*
X76426691Y-74914364D01*
X76426686Y-74914364D01*
X76200002Y-74894532D01*
X76199998Y-74894532D01*
X75973313Y-74914364D01*
X75973302Y-74914366D01*
X75753511Y-74973258D01*
X75753502Y-74973261D01*
X75547267Y-75069431D01*
X75547265Y-75069432D01*
X75360858Y-75199954D01*
X75199954Y-75360858D01*
X75087387Y-75521623D01*
X75032811Y-75565248D01*
X74985812Y-75574500D01*
X66975301Y-75574500D01*
X66908262Y-75554815D01*
X66862507Y-75502011D01*
X66857595Y-75489504D01*
X66832304Y-75413181D01*
X66829814Y-75405666D01*
X66737712Y-75256344D01*
X66613656Y-75132288D01*
X66464334Y-75040186D01*
X66297797Y-74985001D01*
X66297795Y-74985000D01*
X66195010Y-74974500D01*
X65419998Y-74974500D01*
X65419980Y-74974501D01*
X65317203Y-74985000D01*
X65317200Y-74985001D01*
X65150668Y-75040185D01*
X65150663Y-75040187D01*
X65001342Y-75132289D01*
X64877288Y-75256343D01*
X64877283Y-75256349D01*
X64875241Y-75259661D01*
X64873247Y-75261453D01*
X64872807Y-75262011D01*
X64872711Y-75261935D01*
X64823291Y-75306383D01*
X64754328Y-75317602D01*
X64690247Y-75289755D01*
X64664168Y-75259656D01*
X64662319Y-75256659D01*
X64662316Y-75256655D01*
X64538345Y-75132684D01*
X64389124Y-75040643D01*
X64389119Y-75040641D01*
X64222697Y-74985494D01*
X64222690Y-74985493D01*
X64119986Y-74975000D01*
X63982500Y-74975000D01*
X63482500Y-74975000D01*
X63345027Y-74975000D01*
X63345012Y-74975001D01*
X63242302Y-74985494D01*
X63075880Y-75040641D01*
X63075875Y-75040643D01*
X62926654Y-75132684D01*
X62802684Y-75256654D01*
X62710643Y-75405875D01*
X62710641Y-75405880D01*
X62655494Y-75572302D01*
X62655493Y-75572309D01*
X62645000Y-75675013D01*
X62004100Y-75675013D01*
X62004100Y-71088995D01*
X62023785Y-71021956D01*
X62076589Y-70976201D01*
X62145747Y-70966257D01*
X62162205Y-70969778D01*
X62162582Y-70969886D01*
X62281963Y-70980500D01*
X63398036Y-70980499D01*
X63517418Y-70969886D01*
X63713049Y-70913909D01*
X63893407Y-70819698D01*
X64051109Y-70691109D01*
X64179698Y-70533407D01*
X64273909Y-70353049D01*
X64329886Y-70157418D01*
X64340500Y-70038037D01*
X64340500Y-69543129D01*
X64360185Y-69476090D01*
X64412989Y-69430335D01*
X64482147Y-69420391D01*
X64545703Y-69449416D01*
X64552167Y-69455435D01*
X66695148Y-71598415D01*
X66695149Y-71598416D01*
X66773937Y-71677204D01*
X66799685Y-71702952D01*
X66922598Y-71785080D01*
X66922611Y-71785087D01*
X67059182Y-71841656D01*
X67059187Y-71841658D01*
X67059191Y-71841658D01*
X67059192Y-71841659D01*
X67204179Y-71870500D01*
X67204182Y-71870500D01*
X67392299Y-71870500D01*
X67459338Y-71890185D01*
X67493873Y-71923376D01*
X67523663Y-71965920D01*
X67541505Y-71991401D01*
X67708599Y-72158495D01*
X67805384Y-72226265D01*
X67902165Y-72294032D01*
X67902167Y-72294033D01*
X67902170Y-72294035D01*
X68116337Y-72393903D01*
X68344592Y-72455063D01*
X68521034Y-72470500D01*
X68579999Y-72475659D01*
X68580000Y-72475659D01*
X68580001Y-72475659D01*
X68638966Y-72470500D01*
X68815408Y-72455063D01*
X69043663Y-72393903D01*
X69257830Y-72294035D01*
X69451401Y-72158495D01*
X69573329Y-72036566D01*
X69634648Y-72003084D01*
X69704340Y-72008068D01*
X69760274Y-72049939D01*
X69777189Y-72080917D01*
X69826202Y-72212328D01*
X69826206Y-72212335D01*
X69912452Y-72327544D01*
X69912455Y-72327547D01*
X70027664Y-72413793D01*
X70027671Y-72413797D01*
X70162517Y-72464091D01*
X70162516Y-72464091D01*
X70169444Y-72464835D01*
X70222127Y-72470500D01*
X72017872Y-72470499D01*
X72077483Y-72464091D01*
X72212331Y-72413796D01*
X72327546Y-72327546D01*
X72413796Y-72212331D01*
X72464091Y-72077483D01*
X72470500Y-72017873D01*
X72470499Y-70222128D01*
X72464091Y-70162517D01*
X72462810Y-70159083D01*
X72413797Y-70027671D01*
X72413793Y-70027664D01*
X72327547Y-69912455D01*
X72327544Y-69912452D01*
X72212335Y-69826206D01*
X72212328Y-69826202D01*
X72077482Y-69775908D01*
X72077483Y-69775908D01*
X72017883Y-69769501D01*
X72017881Y-69769500D01*
X72017873Y-69769500D01*
X72017864Y-69769500D01*
X70222129Y-69769500D01*
X70222123Y-69769501D01*
X70162516Y-69775908D01*
X70027671Y-69826202D01*
X70027664Y-69826206D01*
X69912455Y-69912452D01*
X69912452Y-69912455D01*
X69826206Y-70027664D01*
X69826203Y-70027669D01*
X69777189Y-70159083D01*
X69735317Y-70215016D01*
X69669853Y-70239433D01*
X69601580Y-70224581D01*
X69573326Y-70203430D01*
X69451402Y-70081506D01*
X69451395Y-70081501D01*
X69257834Y-69945967D01*
X69257830Y-69945965D01*
X69252608Y-69943530D01*
X69043663Y-69846097D01*
X69043659Y-69846096D01*
X69043655Y-69846094D01*
X68815413Y-69784938D01*
X68815403Y-69784936D01*
X68580001Y-69764341D01*
X68579999Y-69764341D01*
X68344596Y-69784936D01*
X68344586Y-69784938D01*
X68116344Y-69846094D01*
X68116335Y-69846098D01*
X67902171Y-69945964D01*
X67902169Y-69945965D01*
X67708597Y-70081505D01*
X67592466Y-70197637D01*
X67531143Y-70231122D01*
X67461451Y-70226138D01*
X67417104Y-70197637D01*
X65173321Y-67953852D01*
X65173320Y-67953851D01*
X65094681Y-67901307D01*
X65094680Y-67901306D01*
X65050400Y-67871719D01*
X65050388Y-67871712D01*
X64913817Y-67815143D01*
X64913807Y-67815140D01*
X64768820Y-67786300D01*
X64768818Y-67786300D01*
X64464499Y-67786300D01*
X64397460Y-67766615D01*
X64351705Y-67713811D01*
X64340499Y-67662300D01*
X64340499Y-67121971D01*
X64340499Y-67121964D01*
X64329886Y-67002582D01*
X64273909Y-66806951D01*
X64179698Y-66626593D01*
X64100937Y-66530000D01*
X64051109Y-66468890D01*
X63893409Y-66340304D01*
X63893410Y-66340304D01*
X63893407Y-66340302D01*
X63713049Y-66246091D01*
X63713048Y-66246090D01*
X63713045Y-66246089D01*
X63595829Y-66212550D01*
X63517418Y-66190114D01*
X63517415Y-66190113D01*
X63517413Y-66190113D01*
X63451102Y-66184217D01*
X63398037Y-66179500D01*
X63398032Y-66179500D01*
X62281971Y-66179500D01*
X62281965Y-66179500D01*
X62281964Y-66179501D01*
X62270316Y-66180536D01*
X62162584Y-66190113D01*
X61966954Y-66246089D01*
X61918681Y-66271305D01*
X61786593Y-66340302D01*
X61786591Y-66340303D01*
X61786590Y-66340304D01*
X61628890Y-66468890D01*
X61500304Y-66626590D01*
X61406089Y-66806954D01*
X61350114Y-67002583D01*
X61350113Y-67002586D01*
X61339500Y-67121966D01*
X61339500Y-67626811D01*
X61319815Y-67693850D01*
X61267011Y-67739605D01*
X61239690Y-67748429D01*
X61237141Y-67748936D01*
X61237140Y-67748935D01*
X61120993Y-67772039D01*
X61120983Y-67772042D01*
X61040979Y-67805181D01*
X61005059Y-67820060D01*
X60957605Y-67829500D01*
X58032942Y-67829500D01*
X57965903Y-67809815D01*
X57921854Y-67760594D01*
X57907030Y-67730704D01*
X57787724Y-67582280D01*
X57787722Y-67582278D01*
X57718112Y-67526324D01*
X57678196Y-67468985D01*
X57675616Y-67399163D01*
X57711194Y-67339030D01*
X57718115Y-67333033D01*
X57787366Y-67277367D01*
X57787367Y-67277366D01*
X57906607Y-67129025D01*
X57906609Y-67129022D01*
X57991168Y-66958523D01*
X58037102Y-66773824D01*
X58040000Y-66731096D01*
X58040000Y-66530000D01*
X55040000Y-66530000D01*
X55040000Y-66731096D01*
X55042897Y-66773824D01*
X55088831Y-66958523D01*
X55173390Y-67129022D01*
X55173392Y-67129025D01*
X55292630Y-67277364D01*
X55361884Y-67333031D01*
X55401803Y-67390375D01*
X55404383Y-67460197D01*
X55368805Y-67520329D01*
X55361885Y-67526326D01*
X55292276Y-67582280D01*
X55172969Y-67730704D01*
X55158146Y-67760594D01*
X55110725Y-67811907D01*
X55047058Y-67829500D01*
X51918558Y-67829500D01*
X51851519Y-67809815D01*
X51813019Y-67770597D01*
X51810563Y-67766615D01*
X51730212Y-67636344D01*
X51606156Y-67512288D01*
X51513388Y-67455069D01*
X51456836Y-67420187D01*
X51456831Y-67420185D01*
X51455362Y-67419698D01*
X51290297Y-67365001D01*
X51290295Y-67365000D01*
X51187510Y-67354500D01*
X50412498Y-67354500D01*
X50412480Y-67354501D01*
X50309703Y-67365000D01*
X50309700Y-67365001D01*
X50143168Y-67420185D01*
X50143163Y-67420187D01*
X49993842Y-67512289D01*
X49869788Y-67636343D01*
X49869783Y-67636349D01*
X49867741Y-67639661D01*
X49865747Y-67641453D01*
X49865307Y-67642011D01*
X49865211Y-67641935D01*
X49815791Y-67686383D01*
X49746828Y-67697602D01*
X49682747Y-67669755D01*
X49656668Y-67639656D01*
X49654819Y-67636659D01*
X49654816Y-67636655D01*
X49530845Y-67512684D01*
X49381624Y-67420643D01*
X49381619Y-67420641D01*
X49215197Y-67365494D01*
X49215190Y-67365493D01*
X49112486Y-67355000D01*
X48975000Y-67355000D01*
X48975000Y-68706000D01*
X48955315Y-68773039D01*
X48902511Y-68818794D01*
X48851000Y-68830000D01*
X48599000Y-68830000D01*
X48531961Y-68810315D01*
X48486206Y-68757511D01*
X48475000Y-68706000D01*
X48475000Y-67355000D01*
X48446119Y-67326119D01*
X48412634Y-67264796D01*
X48409800Y-67238438D01*
X48409800Y-66039998D01*
X74894532Y-66039998D01*
X74894532Y-66040001D01*
X74914364Y-66266686D01*
X74914366Y-66266697D01*
X74973258Y-66486488D01*
X74973261Y-66486497D01*
X75069431Y-66692732D01*
X75069432Y-66692734D01*
X75199954Y-66879141D01*
X75360859Y-67040046D01*
X75396621Y-67065086D01*
X75440247Y-67119662D01*
X75449500Y-67166662D01*
X75449500Y-69993336D01*
X75429815Y-70060375D01*
X75396625Y-70094910D01*
X75360863Y-70119951D01*
X75199951Y-70280862D01*
X75069432Y-70467265D01*
X75069431Y-70467267D01*
X74973261Y-70673502D01*
X74973258Y-70673511D01*
X74914366Y-70893302D01*
X74914364Y-70893313D01*
X74894532Y-71119998D01*
X74894532Y-71120001D01*
X74914364Y-71346686D01*
X74914366Y-71346697D01*
X74973258Y-71566488D01*
X74973261Y-71566497D01*
X75069431Y-71772732D01*
X75069432Y-71772734D01*
X75199954Y-71959141D01*
X75360858Y-72120045D01*
X75396282Y-72144849D01*
X75547266Y-72250568D01*
X75753504Y-72346739D01*
X75973308Y-72405635D01*
X76135230Y-72419801D01*
X76199998Y-72425468D01*
X76200000Y-72425468D01*
X76200002Y-72425468D01*
X76256673Y-72420509D01*
X76426692Y-72405635D01*
X76646496Y-72346739D01*
X76852734Y-72250568D01*
X77039139Y-72120047D01*
X77127179Y-72032006D01*
X77188500Y-71998523D01*
X77258192Y-72003507D01*
X77302540Y-72032008D01*
X82053478Y-76782947D01*
X82053485Y-76782953D01*
X82117158Y-76825497D01*
X82117160Y-76825498D01*
X82117163Y-76825500D01*
X82176405Y-76865084D01*
X82312987Y-76921658D01*
X82312991Y-76921658D01*
X82312992Y-76921659D01*
X82457979Y-76950500D01*
X82457982Y-76950500D01*
X82457983Y-76950500D01*
X82605817Y-76950500D01*
X85233337Y-76950500D01*
X85300376Y-76970185D01*
X85334912Y-77003377D01*
X85359954Y-77039141D01*
X85520858Y-77200045D01*
X85520861Y-77200047D01*
X85707266Y-77330568D01*
X85913504Y-77426739D01*
X86133308Y-77485635D01*
X86295230Y-77499801D01*
X86359998Y-77505468D01*
X86360000Y-77505468D01*
X86360002Y-77505468D01*
X86416673Y-77500509D01*
X86586692Y-77485635D01*
X86806496Y-77426739D01*
X87012734Y-77330568D01*
X87199139Y-77200047D01*
X87360047Y-77039139D01*
X87490568Y-76852734D01*
X87586739Y-76646496D01*
X87645635Y-76426692D01*
X87665468Y-76200000D01*
X87645635Y-75973308D01*
X87586739Y-75753504D01*
X87490568Y-75547266D01*
X87360047Y-75360861D01*
X87360045Y-75360858D01*
X87199141Y-75199954D01*
X87012734Y-75069432D01*
X87012732Y-75069431D01*
X86806497Y-74973261D01*
X86806488Y-74973258D01*
X86586697Y-74914366D01*
X86586693Y-74914365D01*
X86586692Y-74914365D01*
X86586691Y-74914364D01*
X86586686Y-74914364D01*
X86360002Y-74894532D01*
X86359998Y-74894532D01*
X86133313Y-74914364D01*
X86133302Y-74914366D01*
X85913511Y-74973258D01*
X85913502Y-74973261D01*
X85707267Y-75069431D01*
X85707265Y-75069432D01*
X85520858Y-75199954D01*
X85359954Y-75360858D01*
X85334912Y-75396623D01*
X85280335Y-75440248D01*
X85233337Y-75449500D01*
X82894130Y-75449500D01*
X82827091Y-75429815D01*
X82806449Y-75413181D01*
X78513266Y-71119998D01*
X85054532Y-71119998D01*
X85054532Y-71120001D01*
X85074364Y-71346686D01*
X85074366Y-71346697D01*
X85133258Y-71566488D01*
X85133261Y-71566497D01*
X85229431Y-71772732D01*
X85229432Y-71772734D01*
X85359954Y-71959141D01*
X85520858Y-72120045D01*
X85556282Y-72144849D01*
X85707266Y-72250568D01*
X85913504Y-72346739D01*
X86133308Y-72405635D01*
X86295230Y-72419801D01*
X86359998Y-72425468D01*
X86360000Y-72425468D01*
X86360002Y-72425468D01*
X86416673Y-72420509D01*
X86586692Y-72405635D01*
X86806496Y-72346739D01*
X87012734Y-72250568D01*
X87199139Y-72120047D01*
X87360047Y-71959139D01*
X87490568Y-71772734D01*
X87586739Y-71566496D01*
X87645635Y-71346692D01*
X87663138Y-71146632D01*
X87665468Y-71120001D01*
X87665468Y-71119998D01*
X87652887Y-70976201D01*
X87645635Y-70893308D01*
X87586739Y-70673504D01*
X87490568Y-70467266D01*
X87360047Y-70280861D01*
X87360045Y-70280858D01*
X87199141Y-70119954D01*
X87012734Y-69989432D01*
X87012732Y-69989431D01*
X86806497Y-69893261D01*
X86806488Y-69893258D01*
X86586697Y-69834366D01*
X86586693Y-69834365D01*
X86586692Y-69834365D01*
X86586691Y-69834364D01*
X86586686Y-69834364D01*
X86360002Y-69814532D01*
X86359998Y-69814532D01*
X86133313Y-69834364D01*
X86133302Y-69834366D01*
X85913511Y-69893258D01*
X85913502Y-69893261D01*
X85707267Y-69989431D01*
X85707265Y-69989432D01*
X85520858Y-70119954D01*
X85359954Y-70280858D01*
X85229432Y-70467265D01*
X85229431Y-70467267D01*
X85133261Y-70673502D01*
X85133258Y-70673511D01*
X85074366Y-70893302D01*
X85074364Y-70893313D01*
X85054532Y-71119998D01*
X78513266Y-71119998D01*
X77930313Y-70537045D01*
X77881079Y-70504150D01*
X77848255Y-70482218D01*
X77807395Y-70454916D01*
X77807394Y-70454915D01*
X77807392Y-70454914D01*
X77807390Y-70454913D01*
X77670817Y-70398343D01*
X77670807Y-70398340D01*
X77525820Y-70369500D01*
X77525818Y-70369500D01*
X77326663Y-70369500D01*
X77259624Y-70349815D01*
X77225088Y-70316623D01*
X77200048Y-70280862D01*
X77120489Y-70201303D01*
X77039139Y-70119953D01*
X77034373Y-70116615D01*
X77003375Y-70094910D01*
X76959751Y-70040332D01*
X76950500Y-69993336D01*
X76950500Y-67166662D01*
X76970185Y-67099623D01*
X77003379Y-67065086D01*
X77004310Y-67064434D01*
X77039139Y-67040047D01*
X77200047Y-66879139D01*
X77330568Y-66692734D01*
X77426739Y-66486496D01*
X77485635Y-66266692D01*
X77502634Y-66072384D01*
X77505468Y-66040001D01*
X77505468Y-66039998D01*
X85054532Y-66039998D01*
X85054532Y-66040001D01*
X85074364Y-66266686D01*
X85074366Y-66266697D01*
X85133258Y-66486488D01*
X85133261Y-66486497D01*
X85229431Y-66692732D01*
X85229432Y-66692734D01*
X85359954Y-66879141D01*
X85520858Y-67040045D01*
X85520861Y-67040047D01*
X85707266Y-67170568D01*
X85913504Y-67266739D01*
X86133308Y-67325635D01*
X86295230Y-67339801D01*
X86359998Y-67345468D01*
X86360000Y-67345468D01*
X86360002Y-67345468D01*
X86416673Y-67340509D01*
X86586692Y-67325635D01*
X86806496Y-67266739D01*
X87012734Y-67170568D01*
X87199139Y-67040047D01*
X87360047Y-66879139D01*
X87490568Y-66692734D01*
X87586739Y-66486496D01*
X87645635Y-66266692D01*
X87662634Y-66072384D01*
X87665468Y-66040001D01*
X87665468Y-66039998D01*
X87665468Y-66039993D01*
X90034700Y-66039993D01*
X90034700Y-66040006D01*
X90053864Y-66271297D01*
X90053866Y-66271308D01*
X90110842Y-66496300D01*
X90204075Y-66708848D01*
X90331016Y-66903147D01*
X90331019Y-66903151D01*
X90331021Y-66903153D01*
X90488216Y-67073913D01*
X90488219Y-67073915D01*
X90488222Y-67073918D01*
X90671365Y-67216464D01*
X90671371Y-67216468D01*
X90671374Y-67216470D01*
X90875497Y-67326936D01*
X90955791Y-67354501D01*
X91095015Y-67402297D01*
X91095017Y-67402297D01*
X91095019Y-67402298D01*
X91323951Y-67440500D01*
X91323952Y-67440500D01*
X91556048Y-67440500D01*
X91556049Y-67440500D01*
X91784981Y-67402298D01*
X92004503Y-67326936D01*
X92208626Y-67216470D01*
X92391784Y-67073913D01*
X92400511Y-67064432D01*
X92460394Y-67028441D01*
X92530232Y-67030538D01*
X92587850Y-67070060D01*
X92607924Y-67105080D01*
X92636645Y-67182086D01*
X92636649Y-67182093D01*
X92722809Y-67297187D01*
X92722812Y-67297190D01*
X92837906Y-67383350D01*
X92837913Y-67383354D01*
X92972620Y-67433596D01*
X92972627Y-67433598D01*
X93032155Y-67439999D01*
X93032172Y-67440000D01*
X93730000Y-67440000D01*
X93730000Y-66415277D01*
X93806306Y-66459333D01*
X93920756Y-66490000D01*
X94039244Y-66490000D01*
X94153694Y-66459333D01*
X94230000Y-66415277D01*
X94230000Y-67440000D01*
X94927828Y-67440000D01*
X94927844Y-67439999D01*
X94987372Y-67433598D01*
X94987379Y-67433596D01*
X95122086Y-67383354D01*
X95122093Y-67383350D01*
X95237187Y-67297190D01*
X95237190Y-67297187D01*
X95323350Y-67182093D01*
X95323354Y-67182086D01*
X95373596Y-67047379D01*
X95373598Y-67047372D01*
X95379999Y-66987844D01*
X95380000Y-66987827D01*
X95380000Y-66290000D01*
X94355278Y-66290000D01*
X94399333Y-66213694D01*
X94430000Y-66099244D01*
X94430000Y-65980756D01*
X94399333Y-65866306D01*
X94355278Y-65790000D01*
X95380000Y-65790000D01*
X95380000Y-65092172D01*
X95379999Y-65092155D01*
X95373598Y-65032627D01*
X95373596Y-65032620D01*
X95323354Y-64897913D01*
X95323350Y-64897906D01*
X95237190Y-64782812D01*
X95237187Y-64782809D01*
X95122093Y-64696649D01*
X95122086Y-64696645D01*
X94987379Y-64646403D01*
X94987372Y-64646401D01*
X94927844Y-64640000D01*
X94230000Y-64640000D01*
X94230000Y-65664722D01*
X94153694Y-65620667D01*
X94039244Y-65590000D01*
X93920756Y-65590000D01*
X93806306Y-65620667D01*
X93730000Y-65664722D01*
X93730000Y-64640000D01*
X93032155Y-64640000D01*
X92972627Y-64646401D01*
X92972620Y-64646403D01*
X92837913Y-64696645D01*
X92837906Y-64696649D01*
X92722812Y-64782809D01*
X92722809Y-64782812D01*
X92636649Y-64897906D01*
X92636646Y-64897911D01*
X92607924Y-64974920D01*
X92566052Y-65030853D01*
X92500588Y-65055270D01*
X92432315Y-65040418D01*
X92400514Y-65015571D01*
X92391784Y-65006087D01*
X92391779Y-65006083D01*
X92391777Y-65006081D01*
X92208634Y-64863535D01*
X92208628Y-64863531D01*
X92004504Y-64753064D01*
X92004495Y-64753061D01*
X91784984Y-64677702D01*
X91597404Y-64646401D01*
X91556049Y-64639500D01*
X91323951Y-64639500D01*
X91282596Y-64646401D01*
X91095015Y-64677702D01*
X90875504Y-64753061D01*
X90875495Y-64753064D01*
X90671371Y-64863531D01*
X90671365Y-64863535D01*
X90488222Y-65006081D01*
X90488219Y-65006084D01*
X90488216Y-65006086D01*
X90488216Y-65006087D01*
X90463791Y-65032620D01*
X90331016Y-65176852D01*
X90204075Y-65371151D01*
X90110842Y-65583699D01*
X90053866Y-65808691D01*
X90053864Y-65808702D01*
X90034700Y-66039993D01*
X87665468Y-66039993D01*
X87659801Y-65975230D01*
X87645635Y-65813308D01*
X87586739Y-65593504D01*
X87490568Y-65387266D01*
X87360047Y-65200861D01*
X87360045Y-65200858D01*
X87199141Y-65039954D01*
X87012734Y-64909432D01*
X87012732Y-64909431D01*
X86806497Y-64813261D01*
X86806488Y-64813258D01*
X86586697Y-64754366D01*
X86586693Y-64754365D01*
X86586692Y-64754365D01*
X86586691Y-64754364D01*
X86586686Y-64754364D01*
X86360002Y-64734532D01*
X86359998Y-64734532D01*
X86133313Y-64754364D01*
X86133302Y-64754366D01*
X85913511Y-64813258D01*
X85913502Y-64813261D01*
X85707267Y-64909431D01*
X85707265Y-64909432D01*
X85520858Y-65039954D01*
X85359954Y-65200858D01*
X85229432Y-65387265D01*
X85229431Y-65387267D01*
X85133261Y-65593502D01*
X85133258Y-65593511D01*
X85074366Y-65813302D01*
X85074364Y-65813313D01*
X85054532Y-66039998D01*
X77505468Y-66039998D01*
X77499801Y-65975230D01*
X77485635Y-65813308D01*
X77426739Y-65593504D01*
X77330568Y-65387266D01*
X77200047Y-65200861D01*
X77200045Y-65200858D01*
X77039141Y-65039954D01*
X76852734Y-64909432D01*
X76852732Y-64909431D01*
X76646497Y-64813261D01*
X76646488Y-64813258D01*
X76426697Y-64754366D01*
X76426693Y-64754365D01*
X76426692Y-64754365D01*
X76426691Y-64754364D01*
X76426686Y-64754364D01*
X76200002Y-64734532D01*
X76199998Y-64734532D01*
X75973313Y-64754364D01*
X75973302Y-64754366D01*
X75753511Y-64813258D01*
X75753502Y-64813261D01*
X75547267Y-64909431D01*
X75547265Y-64909432D01*
X75360858Y-65039954D01*
X75199954Y-65200858D01*
X75069432Y-65387265D01*
X75069431Y-65387267D01*
X74973261Y-65593502D01*
X74973258Y-65593511D01*
X74914366Y-65813302D01*
X74914364Y-65813313D01*
X74894532Y-66039998D01*
X48409800Y-66039998D01*
X48409800Y-65828903D01*
X55040000Y-65828903D01*
X55040000Y-66030000D01*
X56290000Y-66030000D01*
X56790000Y-66030000D01*
X58040000Y-66030000D01*
X58040000Y-65828903D01*
X58037102Y-65786175D01*
X57991168Y-65601476D01*
X57906609Y-65430977D01*
X57906607Y-65430974D01*
X57787367Y-65282633D01*
X57787366Y-65282632D01*
X57639025Y-65163392D01*
X57639022Y-65163390D01*
X57468523Y-65078831D01*
X57283824Y-65032897D01*
X57241097Y-65030000D01*
X56790000Y-65030000D01*
X56790000Y-66030000D01*
X56290000Y-66030000D01*
X56290000Y-65030000D01*
X55838903Y-65030000D01*
X55796175Y-65032897D01*
X55611476Y-65078831D01*
X55440977Y-65163390D01*
X55440974Y-65163392D01*
X55292633Y-65282632D01*
X55292632Y-65282633D01*
X55173392Y-65430974D01*
X55173390Y-65430977D01*
X55088831Y-65601476D01*
X55042897Y-65786175D01*
X55040000Y-65828903D01*
X48409800Y-65828903D01*
X48409800Y-62606528D01*
X48429485Y-62539489D01*
X48446114Y-62518852D01*
X50254967Y-60709999D01*
X64709364Y-60709999D01*
X64709364Y-60710000D01*
X65606988Y-60710000D01*
X65574075Y-60767007D01*
X65540000Y-60894174D01*
X65540000Y-61025826D01*
X65574075Y-61152993D01*
X65606988Y-61210000D01*
X64709364Y-61210000D01*
X64766567Y-61423486D01*
X64766570Y-61423492D01*
X64866399Y-61637578D01*
X65001894Y-61831082D01*
X65168917Y-61998105D01*
X65362421Y-62133600D01*
X65576507Y-62233429D01*
X65576516Y-62233433D01*
X65790000Y-62290634D01*
X65790000Y-61393012D01*
X65847007Y-61425925D01*
X65974174Y-61460000D01*
X66105826Y-61460000D01*
X66232993Y-61425925D01*
X66290000Y-61393012D01*
X66290000Y-62290633D01*
X66503483Y-62233433D01*
X66503492Y-62233429D01*
X66717578Y-62133600D01*
X66911082Y-61998105D01*
X67078105Y-61831082D01*
X67208119Y-61645405D01*
X67262696Y-61601781D01*
X67332195Y-61594588D01*
X67394549Y-61626110D01*
X67411269Y-61645405D01*
X67541505Y-61831401D01*
X67708599Y-61998495D01*
X67805384Y-62066265D01*
X67902165Y-62134032D01*
X67902167Y-62134033D01*
X67902170Y-62134035D01*
X68116337Y-62233903D01*
X68344592Y-62295063D01*
X68521034Y-62310500D01*
X68579999Y-62315659D01*
X68580000Y-62315659D01*
X68580001Y-62315659D01*
X68638966Y-62310500D01*
X68815408Y-62295063D01*
X69043663Y-62233903D01*
X69257830Y-62134035D01*
X69451401Y-61998495D01*
X69618495Y-61831401D01*
X69748425Y-61645842D01*
X69803002Y-61602217D01*
X69872500Y-61595023D01*
X69934855Y-61626546D01*
X69951575Y-61645842D01*
X70081281Y-61831082D01*
X70081505Y-61831401D01*
X70248599Y-61998495D01*
X70345384Y-62066265D01*
X70442165Y-62134032D01*
X70442167Y-62134033D01*
X70442170Y-62134035D01*
X70656337Y-62233903D01*
X70884592Y-62295063D01*
X71061034Y-62310500D01*
X71119999Y-62315659D01*
X71120000Y-62315659D01*
X71120001Y-62315659D01*
X71178966Y-62310500D01*
X71355408Y-62295063D01*
X71583663Y-62233903D01*
X71797830Y-62134035D01*
X71991401Y-61998495D01*
X72158495Y-61831401D01*
X72288425Y-61645842D01*
X72343002Y-61602217D01*
X72412500Y-61595023D01*
X72474855Y-61626546D01*
X72491575Y-61645842D01*
X72621281Y-61831082D01*
X72621505Y-61831401D01*
X72788599Y-61998495D01*
X72885384Y-62066265D01*
X72982165Y-62134032D01*
X72982167Y-62134033D01*
X72982170Y-62134035D01*
X73196337Y-62233903D01*
X73424592Y-62295063D01*
X73601034Y-62310500D01*
X73659999Y-62315659D01*
X73660000Y-62315659D01*
X73660001Y-62315659D01*
X73718966Y-62310500D01*
X73895408Y-62295063D01*
X74123663Y-62233903D01*
X74337830Y-62134035D01*
X74531401Y-61998495D01*
X74653329Y-61876566D01*
X74714648Y-61843084D01*
X74784340Y-61848068D01*
X74840274Y-61889939D01*
X74857189Y-61920917D01*
X74906202Y-62052328D01*
X74906206Y-62052335D01*
X74992452Y-62167544D01*
X74992455Y-62167547D01*
X75107664Y-62253793D01*
X75107671Y-62253797D01*
X75242517Y-62304091D01*
X75242516Y-62304091D01*
X75249444Y-62304835D01*
X75302127Y-62310500D01*
X77097872Y-62310499D01*
X77157483Y-62304091D01*
X77292331Y-62253796D01*
X77407546Y-62167546D01*
X77493796Y-62052331D01*
X77544091Y-61917483D01*
X77550500Y-61857873D01*
X77550500Y-61834500D01*
X77570185Y-61767461D01*
X77622989Y-61721706D01*
X77674500Y-61710500D01*
X86433920Y-61710500D01*
X86531462Y-61691096D01*
X86578913Y-61681658D01*
X86715495Y-61625084D01*
X86764729Y-61592186D01*
X86838416Y-61542952D01*
X88574548Y-59806817D01*
X88635871Y-59773333D01*
X88662229Y-59770499D01*
X89797871Y-59770499D01*
X89797872Y-59770499D01*
X89857483Y-59764091D01*
X89992331Y-59713796D01*
X90107546Y-59627546D01*
X90193796Y-59512331D01*
X90244091Y-59377483D01*
X90250500Y-59317873D01*
X90250499Y-57522128D01*
X90244091Y-57462517D01*
X90243002Y-57459598D01*
X90193797Y-57327671D01*
X90193793Y-57327664D01*
X90107547Y-57212455D01*
X90107544Y-57212452D01*
X89992335Y-57126206D01*
X89992328Y-57126202D01*
X89857482Y-57075908D01*
X89857483Y-57075908D01*
X89797883Y-57069501D01*
X89797881Y-57069500D01*
X89797873Y-57069500D01*
X89797865Y-57069500D01*
X89774500Y-57069500D01*
X89707461Y-57049815D01*
X89661706Y-56997011D01*
X89650500Y-56945500D01*
X89650500Y-54814499D01*
X89670185Y-54747460D01*
X89722989Y-54701705D01*
X89774500Y-54690499D01*
X89797871Y-54690499D01*
X89797872Y-54690499D01*
X89857483Y-54684091D01*
X89992331Y-54633796D01*
X90107546Y-54547546D01*
X90193796Y-54432331D01*
X90244091Y-54297483D01*
X90250500Y-54237873D01*
X90250499Y-53340000D01*
X92514675Y-53340000D01*
X92533962Y-53732591D01*
X92533962Y-53732597D01*
X92533963Y-53732599D01*
X92591637Y-54121406D01*
X92687143Y-54502684D01*
X92819561Y-54872770D01*
X92819562Y-54872772D01*
X92987620Y-55228100D01*
X93189692Y-55565236D01*
X93423846Y-55880956D01*
X93687807Y-56172192D01*
X93935228Y-56396441D01*
X93979049Y-56436158D01*
X94294761Y-56670306D01*
X94294763Y-56670307D01*
X94631899Y-56872379D01*
X94631902Y-56872380D01*
X94631903Y-56872381D01*
X94987228Y-57040438D01*
X95357316Y-57172857D01*
X95738600Y-57268364D01*
X96127409Y-57326038D01*
X96520000Y-57345325D01*
X96912591Y-57326038D01*
X97301400Y-57268364D01*
X97682684Y-57172857D01*
X98052772Y-57040438D01*
X98408097Y-56872381D01*
X98745239Y-56670306D01*
X99060951Y-56436158D01*
X99352192Y-56172192D01*
X99616158Y-55880951D01*
X99850306Y-55565239D01*
X100052381Y-55228097D01*
X100220438Y-54872772D01*
X100352857Y-54502684D01*
X100448364Y-54121400D01*
X100506038Y-53732591D01*
X100525325Y-53340000D01*
X100506038Y-52947409D01*
X100448364Y-52558600D01*
X100352857Y-52177316D01*
X100220438Y-51807228D01*
X100052381Y-51451903D01*
X99850306Y-51114761D01*
X99616158Y-50799049D01*
X99564084Y-50741594D01*
X99352192Y-50507807D01*
X99060956Y-50243846D01*
X98745236Y-50009692D01*
X98408100Y-49807620D01*
X98052772Y-49639562D01*
X98052770Y-49639561D01*
X97682684Y-49507143D01*
X97301406Y-49411637D01*
X97301401Y-49411636D01*
X97301400Y-49411636D01*
X97157256Y-49390254D01*
X96912599Y-49353963D01*
X96912597Y-49353962D01*
X96912591Y-49353962D01*
X96520000Y-49334675D01*
X96127409Y-49353962D01*
X96127403Y-49353962D01*
X96127400Y-49353963D01*
X95738593Y-49411637D01*
X95357315Y-49507143D01*
X94987229Y-49639561D01*
X94987227Y-49639562D01*
X94631899Y-49807620D01*
X94294763Y-50009692D01*
X93979043Y-50243846D01*
X93687807Y-50507807D01*
X93423846Y-50799043D01*
X93189692Y-51114763D01*
X92987620Y-51451899D01*
X92819562Y-51807227D01*
X92819561Y-51807229D01*
X92687143Y-52177315D01*
X92591637Y-52558593D01*
X92535076Y-52939901D01*
X92533962Y-52947409D01*
X92514675Y-53340000D01*
X90250499Y-53340000D01*
X90250499Y-52442128D01*
X90244091Y-52382517D01*
X90243002Y-52379598D01*
X90193797Y-52247671D01*
X90193793Y-52247664D01*
X90107547Y-52132455D01*
X90107544Y-52132452D01*
X89992335Y-52046206D01*
X89992328Y-52046202D01*
X89857482Y-51995908D01*
X89857483Y-51995908D01*
X89797883Y-51989501D01*
X89797881Y-51989500D01*
X89797873Y-51989500D01*
X89797864Y-51989500D01*
X88002129Y-51989500D01*
X88002123Y-51989501D01*
X87942516Y-51995908D01*
X87807671Y-52046202D01*
X87807664Y-52046206D01*
X87692455Y-52132452D01*
X87692452Y-52132455D01*
X87606206Y-52247664D01*
X87606202Y-52247671D01*
X87556997Y-52379598D01*
X87515126Y-52435532D01*
X87449661Y-52459949D01*
X87381388Y-52445097D01*
X87353134Y-52423946D01*
X87231082Y-52301894D01*
X87037578Y-52166399D01*
X86823492Y-52066570D01*
X86823486Y-52066567D01*
X86610000Y-52009364D01*
X86610000Y-52906988D01*
X86552993Y-52874075D01*
X86425826Y-52840000D01*
X86294174Y-52840000D01*
X86167007Y-52874075D01*
X86110000Y-52906988D01*
X86110000Y-52009364D01*
X86109999Y-52009364D01*
X85896513Y-52066567D01*
X85896507Y-52066570D01*
X85682422Y-52166399D01*
X85682420Y-52166400D01*
X85488926Y-52301886D01*
X85488920Y-52301891D01*
X85321891Y-52468920D01*
X85321886Y-52468926D01*
X85186400Y-52662420D01*
X85186399Y-52662422D01*
X85086570Y-52876507D01*
X85086567Y-52876513D01*
X85029364Y-53089999D01*
X85029364Y-53090000D01*
X85926988Y-53090000D01*
X85894075Y-53147007D01*
X85860000Y-53274174D01*
X85860000Y-53405826D01*
X85894075Y-53532993D01*
X85926988Y-53590000D01*
X85029364Y-53590000D01*
X85086567Y-53803486D01*
X85086570Y-53803492D01*
X85186399Y-54017578D01*
X85321894Y-54211082D01*
X85488917Y-54378105D01*
X85682421Y-54513600D01*
X85896507Y-54613429D01*
X85896516Y-54613433D01*
X86110000Y-54670634D01*
X86110000Y-53773012D01*
X86167007Y-53805925D01*
X86294174Y-53840000D01*
X86425826Y-53840000D01*
X86552993Y-53805925D01*
X86610000Y-53773012D01*
X86610000Y-54670633D01*
X86823483Y-54613433D01*
X86823492Y-54613429D01*
X87037578Y-54513600D01*
X87231078Y-54378108D01*
X87353133Y-54256053D01*
X87414456Y-54222568D01*
X87484148Y-54227552D01*
X87540082Y-54269423D01*
X87556997Y-54300401D01*
X87606202Y-54432328D01*
X87606206Y-54432335D01*
X87692452Y-54547544D01*
X87692455Y-54547547D01*
X87807664Y-54633793D01*
X87807671Y-54633797D01*
X87852618Y-54650561D01*
X87942517Y-54684091D01*
X88002127Y-54690500D01*
X88025497Y-54690499D01*
X88092536Y-54710181D01*
X88138292Y-54762983D01*
X88149500Y-54814499D01*
X88149500Y-56945500D01*
X88129815Y-57012539D01*
X88077011Y-57058294D01*
X88025505Y-57069500D01*
X88002132Y-57069500D01*
X88002123Y-57069501D01*
X87942516Y-57075908D01*
X87807671Y-57126202D01*
X87807664Y-57126206D01*
X87692455Y-57212452D01*
X87692452Y-57212455D01*
X87606206Y-57327664D01*
X87606202Y-57327671D01*
X87556997Y-57459598D01*
X87515126Y-57515532D01*
X87449661Y-57539949D01*
X87381388Y-57525097D01*
X87353134Y-57503946D01*
X87231082Y-57381894D01*
X87037578Y-57246399D01*
X86823492Y-57146570D01*
X86823486Y-57146567D01*
X86610000Y-57089364D01*
X86610000Y-57986988D01*
X86552993Y-57954075D01*
X86425826Y-57920000D01*
X86294174Y-57920000D01*
X86167007Y-57954075D01*
X86110000Y-57986988D01*
X86110000Y-57089364D01*
X86109999Y-57089364D01*
X85896513Y-57146567D01*
X85896507Y-57146570D01*
X85682422Y-57246399D01*
X85682420Y-57246400D01*
X85488926Y-57381886D01*
X85488920Y-57381891D01*
X85321891Y-57548920D01*
X85321886Y-57548926D01*
X85186400Y-57742420D01*
X85186399Y-57742422D01*
X85086570Y-57956507D01*
X85086567Y-57956513D01*
X85029364Y-58169999D01*
X85029364Y-58170000D01*
X85926988Y-58170000D01*
X85894075Y-58227007D01*
X85860000Y-58354174D01*
X85860000Y-58485826D01*
X85894075Y-58612993D01*
X85926988Y-58670000D01*
X85029364Y-58670000D01*
X85086567Y-58883486D01*
X85086570Y-58883492D01*
X85186399Y-59097578D01*
X85321894Y-59291082D01*
X85488917Y-59458105D01*
X85682421Y-59593600D01*
X85896507Y-59693429D01*
X85896516Y-59693433D01*
X86124673Y-59754567D01*
X86124684Y-59754569D01*
X86208634Y-59761914D01*
X86273703Y-59787366D01*
X86314682Y-59843957D01*
X86318560Y-59913719D01*
X86285508Y-59973123D01*
X86085451Y-60173181D01*
X86024128Y-60206666D01*
X85997770Y-60209500D01*
X77674499Y-60209500D01*
X77607460Y-60189815D01*
X77561705Y-60137011D01*
X77550499Y-60085500D01*
X77550499Y-60062129D01*
X77550498Y-60062123D01*
X77544091Y-60002516D01*
X77493797Y-59867671D01*
X77493793Y-59867664D01*
X77407547Y-59752455D01*
X77407544Y-59752452D01*
X77292335Y-59666206D01*
X77292328Y-59666202D01*
X77157482Y-59615908D01*
X77157483Y-59615908D01*
X77097883Y-59609501D01*
X77097881Y-59609500D01*
X77097873Y-59609500D01*
X77097864Y-59609500D01*
X75302129Y-59609500D01*
X75302123Y-59609501D01*
X75242516Y-59615908D01*
X75107671Y-59666202D01*
X75107664Y-59666206D01*
X74992455Y-59752452D01*
X74992452Y-59752455D01*
X74906206Y-59867664D01*
X74906203Y-59867669D01*
X74857189Y-59999083D01*
X74815317Y-60055016D01*
X74749853Y-60079433D01*
X74681580Y-60064581D01*
X74653326Y-60043430D01*
X74531402Y-59921506D01*
X74531395Y-59921501D01*
X74337834Y-59785967D01*
X74337830Y-59785965D01*
X74290921Y-59764091D01*
X74123663Y-59686097D01*
X74123659Y-59686096D01*
X74123655Y-59686094D01*
X73895413Y-59624938D01*
X73895403Y-59624936D01*
X73660001Y-59604341D01*
X73659999Y-59604341D01*
X73424596Y-59624936D01*
X73424586Y-59624938D01*
X73196344Y-59686094D01*
X73196335Y-59686098D01*
X72982171Y-59785964D01*
X72982169Y-59785965D01*
X72788597Y-59921505D01*
X72621505Y-60088597D01*
X72491575Y-60274158D01*
X72436998Y-60317783D01*
X72367500Y-60324977D01*
X72305145Y-60293454D01*
X72288425Y-60274158D01*
X72158494Y-60088597D01*
X71991402Y-59921506D01*
X71991395Y-59921501D01*
X71797834Y-59785967D01*
X71797830Y-59785965D01*
X71750921Y-59764091D01*
X71583663Y-59686097D01*
X71583659Y-59686096D01*
X71583655Y-59686094D01*
X71355413Y-59624938D01*
X71355403Y-59624936D01*
X71120001Y-59604341D01*
X71119999Y-59604341D01*
X70884596Y-59624936D01*
X70884586Y-59624938D01*
X70656344Y-59686094D01*
X70656335Y-59686098D01*
X70442171Y-59785964D01*
X70442169Y-59785965D01*
X70248597Y-59921505D01*
X70081505Y-60088597D01*
X69951575Y-60274158D01*
X69896998Y-60317783D01*
X69827500Y-60324977D01*
X69765145Y-60293454D01*
X69748425Y-60274158D01*
X69618494Y-60088597D01*
X69451402Y-59921506D01*
X69451395Y-59921501D01*
X69257834Y-59785967D01*
X69257830Y-59785965D01*
X69210921Y-59764091D01*
X69043663Y-59686097D01*
X69043659Y-59686096D01*
X69043655Y-59686094D01*
X68815413Y-59624938D01*
X68815403Y-59624936D01*
X68580001Y-59604341D01*
X68579999Y-59604341D01*
X68344596Y-59624936D01*
X68344586Y-59624938D01*
X68116344Y-59686094D01*
X68116335Y-59686098D01*
X67902171Y-59785964D01*
X67902169Y-59785965D01*
X67708597Y-59921505D01*
X67541508Y-60088594D01*
X67411269Y-60274595D01*
X67356692Y-60318219D01*
X67287193Y-60325412D01*
X67224839Y-60293890D01*
X67208119Y-60274594D01*
X67078113Y-60088926D01*
X67078108Y-60088920D01*
X66911082Y-59921894D01*
X66717578Y-59786399D01*
X66503492Y-59686570D01*
X66503486Y-59686567D01*
X66290000Y-59629364D01*
X66290000Y-60526988D01*
X66232993Y-60494075D01*
X66105826Y-60460000D01*
X65974174Y-60460000D01*
X65847007Y-60494075D01*
X65790000Y-60526988D01*
X65790000Y-59629364D01*
X65789999Y-59629364D01*
X65576513Y-59686567D01*
X65576507Y-59686570D01*
X65362422Y-59786399D01*
X65362420Y-59786400D01*
X65168926Y-59921886D01*
X65168920Y-59921891D01*
X65001891Y-60088920D01*
X65001886Y-60088926D01*
X64866400Y-60282420D01*
X64866399Y-60282422D01*
X64766570Y-60496507D01*
X64766567Y-60496513D01*
X64709364Y-60709999D01*
X50254967Y-60709999D01*
X51946091Y-59018875D01*
X52007410Y-58985393D01*
X52077102Y-58990377D01*
X52133035Y-59032249D01*
X52146150Y-59054154D01*
X52166398Y-59097576D01*
X52301894Y-59291082D01*
X52468917Y-59458105D01*
X52662421Y-59593600D01*
X52876507Y-59693429D01*
X52876516Y-59693433D01*
X53090000Y-59750634D01*
X53090000Y-58853012D01*
X53147007Y-58885925D01*
X53274174Y-58920000D01*
X53405826Y-58920000D01*
X53532993Y-58885925D01*
X53590000Y-58853012D01*
X53590000Y-59750633D01*
X53803483Y-59693433D01*
X53803492Y-59693429D01*
X54017578Y-59593600D01*
X54211078Y-59458108D01*
X54333133Y-59336053D01*
X54394456Y-59302568D01*
X54464148Y-59307552D01*
X54520082Y-59349423D01*
X54536997Y-59380401D01*
X54586202Y-59512328D01*
X54586206Y-59512335D01*
X54672452Y-59627544D01*
X54672455Y-59627547D01*
X54787664Y-59713793D01*
X54787671Y-59713797D01*
X54922517Y-59764091D01*
X54922516Y-59764091D01*
X54929444Y-59764835D01*
X54982127Y-59770500D01*
X56777872Y-59770499D01*
X56837483Y-59764091D01*
X56972331Y-59713796D01*
X57087546Y-59627546D01*
X57173796Y-59512331D01*
X57224091Y-59377483D01*
X57230500Y-59317873D01*
X57230499Y-57522128D01*
X57224091Y-57462517D01*
X57223002Y-57459598D01*
X57173797Y-57327671D01*
X57173793Y-57327664D01*
X57087547Y-57212455D01*
X57087544Y-57212452D01*
X56972335Y-57126206D01*
X56972328Y-57126202D01*
X56837482Y-57075908D01*
X56837483Y-57075908D01*
X56777883Y-57069501D01*
X56777881Y-57069500D01*
X56777873Y-57069500D01*
X56777865Y-57069500D01*
X56754500Y-57069500D01*
X56687461Y-57049815D01*
X56641706Y-56997011D01*
X56630500Y-56945500D01*
X56630500Y-54814499D01*
X56650185Y-54747460D01*
X56702989Y-54701705D01*
X56754500Y-54690499D01*
X56777871Y-54690499D01*
X56777872Y-54690499D01*
X56837483Y-54684091D01*
X56972331Y-54633796D01*
X57087546Y-54547546D01*
X57173796Y-54432331D01*
X57224091Y-54297483D01*
X57230500Y-54237873D01*
X57230499Y-52442155D01*
X64436000Y-52442155D01*
X64436000Y-53090000D01*
X65352988Y-53090000D01*
X65320075Y-53147007D01*
X65286000Y-53274174D01*
X65286000Y-53405826D01*
X65320075Y-53532993D01*
X65352988Y-53590000D01*
X64436000Y-53590000D01*
X64436000Y-54237844D01*
X64442401Y-54297372D01*
X64442403Y-54297379D01*
X64492645Y-54432086D01*
X64492649Y-54432093D01*
X64578809Y-54547187D01*
X64578812Y-54547190D01*
X64693906Y-54633350D01*
X64693913Y-54633354D01*
X64828620Y-54683596D01*
X64828627Y-54683598D01*
X64888155Y-54689999D01*
X64888172Y-54690000D01*
X65536000Y-54690000D01*
X65536000Y-53773012D01*
X65593007Y-53805925D01*
X65720174Y-53840000D01*
X65851826Y-53840000D01*
X65978993Y-53805925D01*
X66036000Y-53773012D01*
X66036000Y-54690000D01*
X66683828Y-54690000D01*
X66683844Y-54689999D01*
X66743372Y-54683598D01*
X66743379Y-54683596D01*
X66878086Y-54633354D01*
X66878093Y-54633350D01*
X66993187Y-54547190D01*
X66993190Y-54547187D01*
X67079350Y-54432093D01*
X67079354Y-54432086D01*
X67129596Y-54297379D01*
X67129598Y-54297372D01*
X67135999Y-54237844D01*
X67136000Y-54237827D01*
X67136000Y-53590000D01*
X66219012Y-53590000D01*
X66251925Y-53532993D01*
X66286000Y-53405826D01*
X66286000Y-53274174D01*
X66251925Y-53147007D01*
X66219012Y-53090000D01*
X67136000Y-53090000D01*
X67136000Y-52442172D01*
X67135999Y-52442155D01*
X75104000Y-52442155D01*
X75104000Y-53090000D01*
X76020988Y-53090000D01*
X75988075Y-53147007D01*
X75954000Y-53274174D01*
X75954000Y-53405826D01*
X75988075Y-53532993D01*
X76020988Y-53590000D01*
X75104000Y-53590000D01*
X75104000Y-54237844D01*
X75110401Y-54297372D01*
X75110403Y-54297379D01*
X75160645Y-54432086D01*
X75160649Y-54432093D01*
X75246809Y-54547187D01*
X75246812Y-54547190D01*
X75361906Y-54633350D01*
X75361913Y-54633354D01*
X75496620Y-54683596D01*
X75496627Y-54683598D01*
X75556155Y-54689999D01*
X75556172Y-54690000D01*
X76204000Y-54690000D01*
X76204000Y-53773012D01*
X76261007Y-53805925D01*
X76388174Y-53840000D01*
X76519826Y-53840000D01*
X76646993Y-53805925D01*
X76704000Y-53773012D01*
X76704000Y-54690000D01*
X77351828Y-54690000D01*
X77351844Y-54689999D01*
X77411372Y-54683598D01*
X77411379Y-54683596D01*
X77546086Y-54633354D01*
X77546093Y-54633350D01*
X77661187Y-54547190D01*
X77661190Y-54547187D01*
X77747350Y-54432093D01*
X77747354Y-54432086D01*
X77797596Y-54297379D01*
X77797598Y-54297372D01*
X77803999Y-54237844D01*
X77804000Y-54237827D01*
X77804000Y-53590000D01*
X76887012Y-53590000D01*
X76919925Y-53532993D01*
X76954000Y-53405826D01*
X76954000Y-53274174D01*
X76919925Y-53147007D01*
X76887012Y-53090000D01*
X77804000Y-53090000D01*
X77804000Y-52442172D01*
X77803999Y-52442155D01*
X77797598Y-52382627D01*
X77797596Y-52382620D01*
X77747354Y-52247913D01*
X77747350Y-52247906D01*
X77661190Y-52132812D01*
X77661187Y-52132809D01*
X77546093Y-52046649D01*
X77546086Y-52046645D01*
X77411379Y-51996403D01*
X77411372Y-51996401D01*
X77351844Y-51990000D01*
X76704000Y-51990000D01*
X76704000Y-52906988D01*
X76646993Y-52874075D01*
X76519826Y-52840000D01*
X76388174Y-52840000D01*
X76261007Y-52874075D01*
X76204000Y-52906988D01*
X76204000Y-51990000D01*
X75556155Y-51990000D01*
X75496627Y-51996401D01*
X75496620Y-51996403D01*
X75361913Y-52046645D01*
X75361906Y-52046649D01*
X75246812Y-52132809D01*
X75246809Y-52132812D01*
X75160649Y-52247906D01*
X75160645Y-52247913D01*
X75110403Y-52382620D01*
X75110401Y-52382627D01*
X75104000Y-52442155D01*
X67135999Y-52442155D01*
X67129598Y-52382627D01*
X67129596Y-52382620D01*
X67079354Y-52247913D01*
X67079350Y-52247906D01*
X66993190Y-52132812D01*
X66993187Y-52132809D01*
X66878093Y-52046649D01*
X66878086Y-52046645D01*
X66743379Y-51996403D01*
X66743372Y-51996401D01*
X66683844Y-51990000D01*
X66036000Y-51990000D01*
X66036000Y-52906988D01*
X65978993Y-52874075D01*
X65851826Y-52840000D01*
X65720174Y-52840000D01*
X65593007Y-52874075D01*
X65536000Y-52906988D01*
X65536000Y-51990000D01*
X64888155Y-51990000D01*
X64828627Y-51996401D01*
X64828620Y-51996403D01*
X64693913Y-52046645D01*
X64693906Y-52046649D01*
X64578812Y-52132809D01*
X64578809Y-52132812D01*
X64492649Y-52247906D01*
X64492645Y-52247913D01*
X64442403Y-52382620D01*
X64442401Y-52382627D01*
X64436000Y-52442155D01*
X57230499Y-52442155D01*
X57230499Y-52442128D01*
X57224091Y-52382517D01*
X57223002Y-52379598D01*
X57173797Y-52247671D01*
X57173793Y-52247664D01*
X57087547Y-52132455D01*
X57087544Y-52132452D01*
X56972335Y-52046206D01*
X56972328Y-52046202D01*
X56837482Y-51995908D01*
X56837483Y-51995908D01*
X56777883Y-51989501D01*
X56777881Y-51989500D01*
X56777873Y-51989500D01*
X56777864Y-51989500D01*
X54982129Y-51989500D01*
X54982123Y-51989501D01*
X54922516Y-51995908D01*
X54787671Y-52046202D01*
X54787664Y-52046206D01*
X54672455Y-52132452D01*
X54672452Y-52132455D01*
X54586206Y-52247664D01*
X54586202Y-52247671D01*
X54536997Y-52379598D01*
X54495126Y-52435532D01*
X54429661Y-52459949D01*
X54361388Y-52445097D01*
X54333134Y-52423946D01*
X54211082Y-52301894D01*
X54017578Y-52166399D01*
X53803492Y-52066570D01*
X53803486Y-52066567D01*
X53590000Y-52009364D01*
X53590000Y-52906988D01*
X53532993Y-52874075D01*
X53405826Y-52840000D01*
X53274174Y-52840000D01*
X53147007Y-52874075D01*
X53090000Y-52906988D01*
X53090000Y-52009364D01*
X53089999Y-52009364D01*
X52876513Y-52066567D01*
X52876507Y-52066570D01*
X52662422Y-52166399D01*
X52662420Y-52166400D01*
X52468926Y-52301886D01*
X52468920Y-52301891D01*
X52301891Y-52468920D01*
X52301886Y-52468926D01*
X52166400Y-52662420D01*
X52166399Y-52662422D01*
X52066570Y-52876507D01*
X52066567Y-52876513D01*
X52009364Y-53089999D01*
X52009364Y-53090000D01*
X52906988Y-53090000D01*
X52874075Y-53147007D01*
X52840000Y-53274174D01*
X52840000Y-53405826D01*
X52874075Y-53532993D01*
X52906988Y-53590000D01*
X52009364Y-53590000D01*
X52066567Y-53803486D01*
X52066570Y-53803492D01*
X52166399Y-54017578D01*
X52301894Y-54211082D01*
X52468917Y-54378105D01*
X52662421Y-54513600D01*
X52876507Y-54613429D01*
X52876516Y-54613433D01*
X53090000Y-54670634D01*
X53090000Y-53773012D01*
X53147007Y-53805925D01*
X53274174Y-53840000D01*
X53405826Y-53840000D01*
X53532993Y-53805925D01*
X53590000Y-53773012D01*
X53590000Y-54670633D01*
X53803483Y-54613433D01*
X53803492Y-54613429D01*
X54017578Y-54513600D01*
X54211078Y-54378108D01*
X54333133Y-54256053D01*
X54394456Y-54222568D01*
X54464148Y-54227552D01*
X54520082Y-54269423D01*
X54536997Y-54300401D01*
X54586202Y-54432328D01*
X54586206Y-54432335D01*
X54672452Y-54547544D01*
X54672455Y-54547547D01*
X54787664Y-54633793D01*
X54787671Y-54633797D01*
X54832618Y-54650561D01*
X54922517Y-54684091D01*
X54982127Y-54690500D01*
X55005497Y-54690499D01*
X55072536Y-54710181D01*
X55118292Y-54762983D01*
X55129500Y-54814499D01*
X55129500Y-56243600D01*
X55109815Y-56310639D01*
X55057011Y-56356394D01*
X55005500Y-56367600D01*
X52711576Y-56367600D01*
X52682742Y-56373334D01*
X52682743Y-56373335D01*
X52566593Y-56396439D01*
X52566583Y-56396442D01*
X52486581Y-56429579D01*
X52486582Y-56429580D01*
X52430005Y-56453015D01*
X52347872Y-56507895D01*
X52307085Y-56535147D01*
X52307081Y-56535150D01*
X47076349Y-61765882D01*
X47076348Y-61765884D01*
X47032576Y-61831396D01*
X47032573Y-61831400D01*
X47032572Y-61831401D01*
X46994214Y-61888807D01*
X46937643Y-62025382D01*
X46937640Y-62025392D01*
X46908800Y-62170379D01*
X46908800Y-62170382D01*
X46908800Y-71965918D01*
X46908800Y-71965920D01*
X46908799Y-71965920D01*
X40640000Y-71965920D01*
X40640000Y-53340000D01*
X41714675Y-53340000D01*
X41733962Y-53732591D01*
X41733962Y-53732597D01*
X41733963Y-53732599D01*
X41791637Y-54121406D01*
X41887143Y-54502684D01*
X42019561Y-54872770D01*
X42019562Y-54872772D01*
X42187620Y-55228100D01*
X42389692Y-55565236D01*
X42623846Y-55880956D01*
X42887807Y-56172192D01*
X43135228Y-56396441D01*
X43179049Y-56436158D01*
X43494761Y-56670306D01*
X43494763Y-56670307D01*
X43831899Y-56872379D01*
X43831902Y-56872380D01*
X43831903Y-56872381D01*
X44187228Y-57040438D01*
X44557316Y-57172857D01*
X44938600Y-57268364D01*
X45327409Y-57326038D01*
X45720000Y-57345325D01*
X46112591Y-57326038D01*
X46501400Y-57268364D01*
X46882684Y-57172857D01*
X47252772Y-57040438D01*
X47608097Y-56872381D01*
X47945239Y-56670306D01*
X48260951Y-56436158D01*
X48552192Y-56172192D01*
X48816158Y-55880951D01*
X49050306Y-55565239D01*
X49252381Y-55228097D01*
X49420438Y-54872772D01*
X49552857Y-54502684D01*
X49648364Y-54121400D01*
X49706038Y-53732591D01*
X49725325Y-53340000D01*
X49706038Y-52947409D01*
X49648364Y-52558600D01*
X49552857Y-52177316D01*
X49420438Y-51807228D01*
X49252381Y-51451903D01*
X49050306Y-51114761D01*
X48816158Y-50799049D01*
X48764084Y-50741594D01*
X48552192Y-50507807D01*
X48260956Y-50243846D01*
X47945236Y-50009692D01*
X47608100Y-49807620D01*
X47252772Y-49639562D01*
X47252770Y-49639561D01*
X46882684Y-49507143D01*
X46501406Y-49411637D01*
X46501401Y-49411636D01*
X46501400Y-49411636D01*
X46357256Y-49390254D01*
X46112599Y-49353963D01*
X46112597Y-49353962D01*
X46112591Y-49353962D01*
X45720000Y-49334675D01*
X45327409Y-49353962D01*
X45327403Y-49353962D01*
X45327400Y-49353963D01*
X44938593Y-49411637D01*
X44557315Y-49507143D01*
X44187229Y-49639561D01*
X44187227Y-49639562D01*
X43831899Y-49807620D01*
X43494763Y-50009692D01*
X43179043Y-50243846D01*
X42887807Y-50507807D01*
X42623846Y-50799043D01*
X42389692Y-51114763D01*
X42187620Y-51451899D01*
X42019562Y-51807227D01*
X42019561Y-51807229D01*
X41887143Y-52177315D01*
X41791637Y-52558593D01*
X41735076Y-52939901D01*
X41733962Y-52947409D01*
X41714675Y-53340000D01*
X40640000Y-53340000D01*
X40640000Y-53181446D01*
X40642415Y-53173219D01*
X40641926Y-53173193D01*
X40644666Y-53122301D01*
X40644667Y-53122302D01*
X40656684Y-52899143D01*
X40657591Y-52889453D01*
X40716651Y-52447157D01*
X40718615Y-52436216D01*
X40816988Y-52001660D01*
X40819924Y-51990952D01*
X40956905Y-51566981D01*
X40960788Y-51556584D01*
X41135267Y-51146622D01*
X41140066Y-51136618D01*
X41350650Y-50743953D01*
X41356326Y-50734425D01*
X41601288Y-50362269D01*
X41607810Y-50353268D01*
X41885190Y-50004599D01*
X41892506Y-49996207D01*
X41895436Y-49993136D01*
X42200048Y-49673856D01*
X42208058Y-49666181D01*
X42543315Y-49372716D01*
X42551998Y-49365779D01*
X42912234Y-49103595D01*
X42921499Y-49097469D01*
X43303813Y-48868679D01*
X43313604Y-48863403D01*
X43714906Y-48669852D01*
X43725095Y-48665490D01*
X44142173Y-48508733D01*
X44152734Y-48505297D01*
X44582181Y-48386614D01*
X44593018Y-48384137D01*
X45031368Y-48304481D01*
X45042402Y-48302985D01*
X45486794Y-48262936D01*
X45496538Y-48262443D01*
X45719360Y-48260007D01*
X45720716Y-48260000D01*
X96767061Y-48260000D01*
X96778191Y-48260500D01*
G37*
%TD.AperFunction*%
%TD*%
M02*
