M48
; DRILL file {KiCad 8.0.4} date 2024-09-28T10:20:46+1000
; FORMAT={-:-/ absolute / inch / decimal}
; #@! TF.CreationDate,2024-09-28T10:20:46+10:00
; #@! TF.GenerationSoftware,Kicad,Pcbnew,8.0.4
; #@! TF.FileFunction,Plated,1,2,PTH
FMAT,2
INCH
; #@! TA.AperFunction,Plated,PTH,ViaDrill
T1C0.0157
; #@! TA.AperFunction,Plated,PTH,ComponentDrill
T2C0.0276
; #@! TA.AperFunction,Plated,PTH,ComponentDrill
T3C0.0315
; #@! TA.AperFunction,Plated,PTH,ComponentDrill
T4C0.0354
; #@! TA.AperFunction,Plated,PTH,ComponentDrill
T5C0.0394
; #@! TA.AperFunction,Plated,PTH,ComponentDrill
T6C0.0433
; #@! TA.AperFunction,Plated,PTH,ComponentDrill
T7C0.1378
%
G90
G05
T1
X2.725Y-3.95
T2
X2.5Y-4.4
X2.95Y-4.4
T3
X2.5Y-3.25
X2.5Y-3.35
X2.5Y-3.45
X2.5Y-3.55
X2.5Y-3.65
X2.5Y-3.75
X2.5Y-3.85
X2.5Y-3.95
X2.5Y-4.05
X2.5Y-4.15
X3.0Y-2.6
X3.0Y-2.8
X3.0Y-3.0
X3.1Y-3.25
X3.1Y-3.35
X3.1Y-3.45
X3.1Y-3.55
X3.1Y-3.65
X3.1Y-3.75
X3.1Y-3.85
X3.1Y-3.95
X3.1Y-4.05
X3.1Y-4.15
X3.4Y-2.6
X3.4Y-2.8
X3.4Y-3.0
T4
X3.6Y-2.6
X3.6Y-2.8
X3.7Y-2.6
X3.7Y-2.8
T5
X1.8Y-3.25
X1.8Y-3.35
X1.8Y-3.45
X1.8Y-3.55
X1.8Y-3.65
X1.8Y-3.75
X1.8Y-3.85
X1.8Y-3.95
X1.8Y-4.05
X1.8Y-4.15
X2.0Y-3.25
X2.0Y-3.35
X2.0Y-3.45
X2.0Y-3.55
X2.0Y-3.65
X2.0Y-3.75
X2.0Y-3.85
X2.0Y-3.95
X2.0Y-4.05
X2.0Y-4.15
X2.1Y-2.1
X2.1Y-2.3
X2.2Y-2.1
X2.2Y-2.3
X2.59Y-2.1
X2.6Y-2.4
X2.7Y-2.4
X2.7Y-2.8
X2.8Y-2.4
X2.8Y-2.8
X2.9Y-2.4
X3.0Y-2.4
X3.01Y-2.1
X3.4Y-2.1
X3.4Y-2.3
X3.45Y-4.45
X3.45Y-4.55
X3.45Y-4.65
X3.45Y-4.75
X3.5Y-2.1
X3.5Y-2.3
X3.6Y-3.2502
X3.6Y-3.3502
X3.6Y-3.4502
X3.6Y-3.5502
X3.6Y-3.6502
X3.6Y-3.7502
X3.6Y-3.8502
X3.6Y-3.9502
X3.6Y-4.0502
X3.6Y-4.1502
X3.8Y-3.25
X3.8Y-3.35
X3.8Y-3.45
X3.8Y-3.55
X3.8Y-3.65
X3.8Y-3.75
X3.8Y-3.85
X3.8Y-3.95
X3.8Y-4.05
X3.8Y-4.15
T6
X2.0941Y-4.5728
X2.0941Y-4.75
X2.35Y-4.5728
X2.35Y-4.75
X2.522Y-4.5728
X2.522Y-4.75
X2.778Y-4.5728
X2.778Y-4.75
X2.9441Y-4.5728
X2.9441Y-4.75
X3.2Y-4.5728
X3.2Y-4.75
T7
X1.8Y-2.1
X1.8Y-4.8
X3.8Y-2.1
X3.8Y-4.8
M30
